<svg id="Calque_1" data-name="Calque 1" xmlns="http://www.w3.org/2000/svg" viewBox="0 0 261.92 313.04"><title>1</title><path d="M7142.59,7297.12a72.9,72.9,0,0,0-.58,17.69c.74,8.52,1.77,17,2.66,25.51a1.67,1.67,0,0,0,1.64,1.69,10.47,10.47,0,0,1,2.82.94,5.05,5.05,0,0,1,2.44,5.29,1.1,1.1,0,0,1-.83.62c-4,0-8,.13-12-.1-2.29-.13-3-2.12-3.66-4.08a11.24,11.24,0,0,0-1.75-3.44,6.6,6.6,0,0,1-1.57-4c-.22-9.15-.41-18.3-.65-27.45-.07-2.8-.27-5.59-.37-8.38a20,20,0,0,0-1.75-6.79,101.07,101.07,0,0,1-3.62-10.51c-.78-2.78.15-5.47,1.48-7.95a61,61,0,0,0,6.86-19.71c.84-5.56,1.3-11.18,1.72-16.79.88-11.9-1.7-23.26-5.65-34.39-1.42-4-2.78-8-2.92-12.31a8.13,8.13,0,0,0-.22-1.09c-.83,1.6-1.52,3-2.28,4.37a21.69,21.69,0,0,1-1.74,2.71c-.28.36-.83.5-1.25.74a5.83,5.83,0,0,1-.52-1.38,14.84,14.84,0,0,0-.12-2.73,57.18,57.18,0,0,0-2.48-6.32c-1.14,2.67.53,5.9-2.14,8.5a16.52,16.52,0,0,1-1.63-2.68c-1.3-3.53-1.47-7.27-1.66-11a39.26,39.26,0,0,1,1.92-15.25c1.91-5.4,5.35-9.5,11.14-10.67,2.66-.54,5.55,0,8.33.1,1.2,0,2.39.27,3.59.22a2.59,2.59,0,0,0,1.76-.74c7.95-9.88,18.51-15.33,30.59-18.31,9.9-2.44,20-3,30.11-2.87,11.11.16,22.22.38,33.34.4,7.55,0,15.1-.34,22.66-.43a68.62,68.62,0,0,1,30.88,7.17c2.09,1,4.14,2.09,6.21,3.12a6.39,6.39,0,0,0,7.53-1.4,10.82,10.82,0,0,0,2.92-6.93c.48-8.66.84-17.32,1.27-26,.4-8,.82-16,1.29-23.94a96.54,96.54,0,0,1,.91-9.77,29.29,29.29,0,0,1,4.74-11c.48-.74,1-1.45,1.42-2.22a12.61,12.61,0,0,1,6.86-6,6.21,6.21,0,0,0,3.75-4.23c1.13-3.49,2.52-6.9,3.58-10.41a41.08,41.08,0,0,0,1.14-6.21c.2-1.4.55-1.83,2-1.82,2.24,0,3.26,1.07,3.31,3.32q.09,4.55.28,9.11a7.75,7.75,0,0,0,.47,1.71h.44c.67-1.64,1.33-3.28,2-4.92.27-.66.54-1.33.87-2a1.75,1.75,0,0,1,2-.91,1.49,1.49,0,0,1,1.39,1.55c-.05,2.07-.18,4.13-.36,6.19-.16,1.83-.39,3.65-.65,5.47a.85.85,0,0,0,.74,1.1c.92.25,1.84.54,2.75.85a20.09,20.09,0,0,1,6.35,2.94c2.44,1.91,5.54,2.2,8.51,2.53,5.13.58,9.26,3.08,12.94,6.5a2,2,0,0,1,.55,2.3,1.58,1.58,0,0,0,.68,2.06,4.48,4.48,0,0,1,1.09,1.09,2.19,2.19,0,0,1-1.62,3.68c-1.42.18-2.85.32-4.64.51l2.11,1.49c1.24.9,1.38,1.64.56,2.95a4.12,4.12,0,0,1-3.32,2.05,10.54,10.54,0,0,1-5.15-.73,3.92,3.92,0,0,0-2.72,0c-4.14,1.67-8.22,3.48-12.56,5.35.06.65.12,1.63.25,2.61a46.76,46.76,0,0,1-1.27,17.48,52.9,52.9,0,0,0-1.69,15.77c.62,12.46-2.23,24.27-7.2,35.62a131,131,0,0,1-22.16,34,13.46,13.46,0,0,1-1,1.17c-3.86,3.46-5.24,8-6,13a158.87,158.87,0,0,0-1.48,20.91c-.24,8.71-.44,17.42-.95,26.11-.33,5.59-1.94,10.85-5.78,15.18a6.79,6.79,0,0,0-1.64,4.37c-.44,7.66-1.13,15.31-1.44,23-.24,5.86-.11,11.74-.05,17.6,0,4.55.25,9.11.36,13.66,0,2,.23,2.33,2.16,2.86,3.46,1,4.85,3.36,5,6.74,0,.52.09,1,.15,1.55.2,1.63-.23,2.16-1.84,2.17-4.28,0-8.55,0-12.83,0-1.06,0-1.68-.35-1.54-1.56s.1-2.4.28-3.58c.29-1.94-.81-3.07-2.19-4.07a11.14,11.14,0,0,0-1.26-.7,2.74,2.74,0,0,1-1.59-2.84c.27-3.19.51-6.37.82-9.56,1.1-11.32,1.58-22.64-.06-34-.42-2.93-.71-5.87-1-8.81a1.73,1.73,0,0,0-1.08-1.68,3.84,3.84,0,0,1-2.06-2.77c-1.59-5.47-1.76-11.11-2-16.74-.07-2-.15-3.91-.25-5.87a2.33,2.33,0,0,0-.44-1.26c-.24,2.29-.44,4.59-.72,6.88-.69,5.63-1.41,11.26-2.12,16.89a3.77,3.77,0,0,1-1.75,2.85,6.24,6.24,0,0,0-2.56,4.82c-1.42,11.86-2.87,23.73-3.45,35.67-.21,4.35-.58,8.69-.83,13a4.51,4.51,0,0,0,2.37,4.16,8.79,8.79,0,0,1,4.33,6.06,31.26,31.26,0,0,1,.06,6.06,2,2,0,0,1-2.13,2c-4.35-.08-8.69-.23-13.14-.36-.14-1.8-.27-3.46-.41-5.12a20.48,20.48,0,0,0-2.53-8.8c-2.12-3.59-2.25-7.27-1.49-11.22a92.5,92.5,0,0,0,2-21.09c-.22-5.43-.81-10.84-1.24-16.25,0-.6-.1-1.19-.15-1.79-.16-2.06-.32-4-1.92-5.71s-1.52-4.14-1.88-6.34c-.85-5.18-.17-10.36.06-15.55.29-6.47.4-12.94.61-19.79-.63.41-.94.61-1.25.8a20,20,0,0,1-2.48,1.43c-2,.83-3.41.17-4.2-1.84l-.46-1.14c-.73.9-1.34,1.71-2,2.47a6.31,6.31,0,0,1-1.32,1.2,1.32,1.32,0,0,1-2.15-.65c-.46-1-.77-2.16-1.23-3.45-.34.44-.59.77-.84,1.1-2.48,3.37-4.36,3.29-6.48-.37-1.16,1-1.89,2.57-3.68,2.58s-2.46-1.62-3.3-3c-.61.73-1.11,1.4-1.69,2-1.67,1.71-3.5,1.5-4.75-.56-.49-.81-.87-1.68-1.36-2.63a13.81,13.81,0,0,1-3.91,2.59,3.47,3.47,0,0,1-4.86-2.3c-.27-.74-.4-1.53-.61-2.39a7.93,7.93,0,0,1-7,.55,10.24,10.24,0,0,1-2-1.38,4.32,4.32,0,0,0-1.45-.89c-3.51-.57-7-1.06-10.55-1.56a6.32,6.32,0,0,0-.8,0c-.24,2.54-.42,5-.71,7.53a61.49,61.49,0,0,1-7.89,24.44,19.65,19.65,0,0,1-8.54,8.32,4.08,4.08,0,0,0-1.58,1.72,40.38,40.38,0,0,0-4.66,23.73c.66,7.5,3,14.6,5.25,21.73l6.16,19.9c.55,1.78,1.26,2.38,2.95,2.44,4.31.16,6.29,1.9,7.12,6.25.36,1.9.12,2.21-1.79,2.25-3,.06-6.08.06-9.11.15a13.3,13.3,0,0,0-2.94.41c-1.5.39-2.17.14-2.66-1.35a26.24,26.24,0,0,1-.75-3,4,4,0,0,0-3.88-3.72c-1.9-.29-2.61-.85-2.95-2.76-.55-3.15-.89-6.33-1.48-9.47a92.56,92.56,0,0,0-5.29-16.51c-1.87-4.75-3.81-9.48-5.72-14.22C7143,7297.84,7142.79,7297.49,7142.59,7297.12Z" transform="translate(-7112.75 -7036.83)"/></svg>