<svg id="Calque_1" data-name="Calque 1" xmlns="http://www.w3.org/2000/svg" viewBox="0 0 201.43 313.01"><title>10</title><path d="M7247.46,7344.17a14,14,0,0,0-5.52-.22c-2.3.24-4.73-.76-7.11-1.24-3.5-.7-7-1.9-10.49-2-4.88-.12-9.78.61-14.67.94a23.05,23.05,0,0,0-3.4,0,47.36,47.36,0,0,1-4.87,1.29c.74-1.05,1.26-2.65,2.26-3,2.81-1.11,5.54-2.43,8.76-2.61a12.75,12.75,0,0,0,6.42-2.62c1-.77,1.5-2.86,1.51-4.37.05-5.52-.15-11-.33-16.56-.22-6.67-.56-13.33-.76-20q-.29-9.55-.39-19.1c0-4.84,1.08-9.5,2.25-14.17,1.47-5.86,2.7-11.79,4-17.7a19.81,19.81,0,0,0,0-3.4c-5.56,3.54-10.78,6.61-15.66,10.15-1.22.88-1.3,3.29-2,5q-2.59,6.61-5.24,13.2c-.11.27-.45.45-.77.76l-2.76-8.73-.79.15c.25,2.23.54,4.45.75,6.69.23,2.49.79,5-.56,7.39-.41.72-.94,1.8-1.56,1.92-3.06.57-6.21,1.4-9.14-.55a6,6,0,0,1-3-5.71c.17-3.35,0-6.72,0-10.1-1.28.66-2.81,1.46-4.35,2.23a4.92,4.92,0,0,1-1.43.53c-3.46.51-5.26-1.6-3.86-4.9,1.7-4,3.67-8,5.75-11.81,1.65-3.06,3.93-5.8,5.35-9,1-2.13.94-4.71,1.27-7.1a23.8,23.8,0,0,0,0-3.07l-9.62,16-.62-.35c.94-2,1.9-4.07,2.83-6.12,1.44-3.16,2.84-6.33,4.29-9.48,1.37-3,2.83-5.91,4.16-8.9,1.41-3.16,2.64-6.41,4.08-9.55,1.72-3.76,3.58-7.46,5.38-11.18,2.51-5.19,4.95-10.41,7.55-15.54,1.66-3.27,3.58-6.42,5.38-9.62,1.67-3,3.26-6,5-8.89,3.27-5.32,6.46-10.72,10.05-15.82a150.19,150.19,0,0,1,15.6-19.37,88.81,88.81,0,0,1,15.92-12.71,51.94,51.94,0,0,1,12.53-5.34c4-1.24,7.93-.79,11.89-1l1.33-.11c-9-4.52-14-11.41-15.83-20.69s1-17.5,6-25.19l-.34-.42-6.35,4.88-.38-.19,2-3.94c-4.1,2.9-6.2,7.27-8.64,11.37l-.69-.33,4.09-10.29a32.3,32.3,0,0,0-6.66,11.17l-.63-.26c.57-2.12,1.09-4.24,1.71-6.34a35.42,35.42,0,0,1,8-13.38c1.48-1.65,3.77-2.59,5.71-3.83s3.7-2.48,5.65-3.53a17.55,17.55,0,0,1,5.29-2.22,29,29,0,0,1,16.72,1.83,22.34,22.34,0,0,1,11.72,11.41,15.7,15.7,0,0,0,6.45,7.49c2.76,1.61,5.91,2.53,8.86,3.84,5.81,2.58,11.63,5.16,17.4,7.84,3.56,1.66,7.08,3.41,10.52,5.3,3.29,1.8,6.49,3.78,9.66,5.78s6.15,4,9.16,6.14a45,45,0,0,1,3.41,2.94,6.39,6.39,0,0,1-1.68.13q-5.71-1.54-11.39-3.16c-3-.87-6.06-1.73-9-2.72a66.57,66.57,0,0,1-7.23-2.76c-4.46-2.09-9.24-3.08-13.92-4.45-3.3-1-6.35-2.78-9.62-3.91-3.71-1.28-7.48-2.71-11.33-3.16-3.31-.39-6.76.6-10.15.83-2.86.19-5.75.12-8.62.23a13.58,13.58,0,0,0-4,.53c-.47.17-.87,1.5-.75,2.21.55,3.29,2.57,5.87,4.36,8.59a55.3,55.3,0,0,0,10.29,12.23c3,2.55,6.41,4.72,9.47,7.26,4.68,3.9,9.64,7.58,13.66,12.1,2.75,3.09,4.37,7.32,6,11.26,1,2.43,1.1,5.26,1.32,7.93a112.74,112.74,0,0,1,.73,14.12c-.19,4.34-.88,8.74-3.23,12.65a15,15,0,0,0-.83-8.41,75.33,75.33,0,0,1-3.78,19.8c-.73,2.21-2.06,4.21-2.92,6.38-.94,2.34-1.59,4.78-2.48,7.14a69.71,69.71,0,0,1-3.27,7.36l2.16-12.76-.64-.17-6.79,12.64a41.09,41.09,0,0,1-8.58,11.2l.86-4.59-8.68,9.24-.59-.4c3.55-6.21,7.1-12.42,8.95-19.77l-13,18.78-.54-.3c1.54-4,3.29-7.92,4.57-12a95.52,95.52,0,0,0,2.85-12.67,125.34,125.34,0,0,1-12.43,21.57l-.43-.23,2.29-5.45-.26-.25a9,9,0,0,0-1.07.8c-3,3-6,6.14-9.12,9.08a36.24,36.24,0,0,1-6,4.77c-2.66,1.6-2.76,4.27-3.46,6.7-.75,2.61-1.24,5.31-2,7.92-1.65,5.86-3.42,11.7-5.09,17.56-.73,2.57-1.42,5.16-1.93,7.78-.64,3.32-1.19,6.67-1.56,10-.31,2.89.23,6-.58,8.68-1,3.29-.68,6.59-.87,9.82-.24,4.27.52,8.64,1.13,12.92.72,5,1.56,10.09,2.67,15.07,1.25,5.58,2.74,11.12,4.35,16.61a34.87,34.87,0,0,0,2.78,6c1,2,2.26,2.31,4.49,2,4.28-.69,8.45-2.34,12.89-1.8a21.58,21.58,0,0,1,3.88,1.26l-9.23,2.85c3.19.61,6.14,1.12,9.05,1.75a19.3,19.3,0,0,1,3.2,1.2,19.68,19.68,0,0,0,2.38,1.09,3.5,3.5,0,0,1,2.4,3.44c-2.13-1.22-4.32-1-6.66-.78a46.06,46.06,0,0,1-7.67-.42c.57.71,2.25,1.93,2.51,3.4s1.06,3.43-.7,5.3c-.57-3.85-3.94-4.34-6.23-6a77,77,0,0,0-7.25-4c-3.89-2.17-8-2.13-12.22-1.43-2.87.47-5.84.27-8.74.55a13.35,13.35,0,0,0-3.12,1.11l-.45-.46,2.53-3.53a8.15,8.15,0,0,1,1.78-.75c2-.33,4.07-.48,6.09-.86,2.91-.55,4.25-1.61,4.24-3.56a44.57,44.57,0,0,0-.56-6.92c-.58-3.51-1.38-7-2.13-10.48-1-4.72-2.06-9.43-3.15-14.13-1.26-5.45-2.63-10.87-3.86-16.33a68,68,0,0,1-1.19-7.17c-.44-3.85.62-7.5,1.79-11.11a31.49,31.49,0,0,0,1.61-13.31c-.62-5.22.26-10.28.61-15.4.25-3.6.55-7.21.6-10.82a13.6,13.6,0,0,0-.9-3.61c-4,1.17-7.71,2.29-11.43,3.32-2.11.59-3.93,1.36-4.43,3.83a23,23,0,0,1-1.15,3.43c-1.83,4.87-3.85,9.68-5.49,14.62-1.76,5.3-3.17,10.71-4.7,16.09a9.45,9.45,0,0,0-.4,2.42c0,3.21.17,6.43-.07,9.61-.51,6.79-1.61,13.55-1.79,20.34-.19,7.11.3,14.25.75,21.36a42.59,42.59,0,0,0,1.68,8c.46,1.75,3.66,2.41,5.64,1a21,21,0,0,1,10.55-3.94c1.37-.12,3.27-1.38,4.56,1.14l-12.81,5c3.54,0,7.52.43,11.37-.13,3.15-.46,6,.16,8.93.76,1,.21,1.78,1.55,2.73,2.45a20.73,20.73,0,0,0-3.6-.34c-2.54.24-5.06.77-7.61,1-2.18.17-4.39,0-6.58,0C7242.1,7339.88,7245.47,7340.67,7247.46,7344.17Z" transform="translate(-7174.3 -7044.78)"/></svg>