<svg id="Calque_1" data-name="Calque 1" xmlns="http://www.w3.org/2000/svg" viewBox="0 0 164 313.01"><title>11</title><path d="M7285.32,7180.79c-.26-.08-.37-.16-.46-.14-6.93,1.71-11.43-2.12-16-6.51-8.49-8-16.29-16.58-21.6-27.1-.75-1.48-1.34-3.87-.67-5.11,8.08-14.93,16.16-29.88,28.17-42.23,3-3.12,6.16-4.55,10.51-3.54a75.47,75.47,0,0,0,8.48.94c2.09.23,3.51-.63,3.81-2.68a80.25,80.25,0,0,0,1.15-11.39c0-1.18-1.62-2.92-2.9-3.44-3-1.23-4.61-3.44-6-6.2a51.61,51.61,0,0,0-4.62-7.87c-4.28-5.85-4.11-12.64.67-16.94,6.07-5.46,13.22-5.44,18.86-.05a10,10,0,0,0,3.53,2.14c6.42,2.23,10.54,6.41,11.93,13.2,1.66,8.11,1.62,16.13-1.06,24-1.41,4.13-2.25,4.48-7,3.73a54,54,0,0,0-.68,5.71c-.07,3.82,1.09,5.6,4.86,6.1,8.73,1.17,15.18,5.62,20.23,12.61,6.54,9.06,13.22,18,19.86,27a5.53,5.53,0,0,1,.51,6.4c-4.35,8.35-8.43,16.84-13,25.08-3,5.47-3.3,5.32-8.65,3.2-.43,8.19-.29,16.54-1.43,24.72-2.24,16-4.76,32.07-8,47.95-2.81,13.92-2.31,27.69-.31,41.51,2.45,16.94,5.82,33.67,12.7,49.5a5.26,5.26,0,0,1-2.69,7.25c-4.08,2-8.38,4.23-12.79,4.8-13.45,1.74-27,3.43-40.5,3.86-23.68.75-47.35-.36-70.74-4.48a54.29,54.29,0,0,1-14.2-4.81c-5-2.43-4.86-6.1,0-8.66,3.66-1.91,7.69-3.14,11.56-4.65,23.49-9.12,45.37-21,63.77-38.45,12-11.38,21.78-24.29,27.16-40.18a20.49,20.49,0,0,0,.69-11.62q-6.55-27.3-13.11-54.61C7286.78,7186.87,7286.07,7183.9,7285.32,7180.79Zm36.81-59c-.15,7.33-.15,7.33-3.4,13-3,5.14-1.74,15.08,2.37,19.37,2.65,2.77,5.27,5.56,7.91,8.34l8.83,9.26c3.61-7.57,7-14.52,10.17-21.56a3.81,3.81,0,0,0-.57-3.27c-5.41-6.59-10.78-13.22-16.58-19.46C7328.75,7125.16,7325.51,7123.93,7322.13,7121.81Zm-46.55-1.81c-3.15,4.54-6.38,9.18-9.6,13.83a62.79,62.79,0,0,0-4.92,7.36c-.66,1.32-.85,3.63-.12,4.76,5.19,8.1,10.65,16,16.11,24a4,4,0,0,0,2.61,1.62c3.53.25,6.46-2.11,7.45-5.67a13,13,0,0,1,.73-2.18,18.62,18.62,0,0,0,.22-15.65C7284.14,7138.54,7279.73,7129.24,7275.59,7120Z" transform="translate(-7193.69 -7044.49)"/></svg>