<svg id="Calque_1" data-name="Calque 1" xmlns="http://www.w3.org/2000/svg" viewBox="0 0 233.02 391.29"><title>12</title><path d="M7349.8,7087.17c1.93-3.64,4-7.22,5.78-10.92,3.83-7.82,8.23-15.31,7.9-24.68-.36-10.29-3.48-19-11.31-25.76-2.34-2-4.66-4.08-7-6.13l.61-.92,2.17-.56-3.15-8.66.5-.51c.93.77,1.86,1.55,2.8,2.32,6.15,5,12.27,10,18.46,14.89,1.82,1.45,3.57.84,4.93-.82a11.92,11.92,0,0,0,2.44-10.87c-.73-3-1.58-6-2.48-9.35a17,17,0,0,1,8.59,13.44c.31,5.15-.95,10.39-1.53,15.76,2.79,1,4.63.22,6.62-3.3,2.54-4.46,4.22-9.08,1.95-14.62a5.64,5.64,0,0,1,4.6,5.24c.21,2.95-.36,6-.56,8.94-.15,2.24-.1,4.5-.4,6.72a3.27,3.27,0,0,1-1.47,2.34c-6.48,2.4-13.62,12.25-13.69,19.14a29.19,29.19,0,0,0,.06,3.44c1.09,10-2.79,17.83-10,24.44q-18.7,17.09-37.21,34.37a13.43,13.43,0,0,0-3,4.16c8.76-3.65,18.74-4.55,25.38-12.59l.86.56a14.79,14.79,0,0,1-1.39,3.59,79,79,0,0,1-6.27,7.78,45.65,45.65,0,0,0-8.87,12.35c-1,2.25-3.2,4.06-5.1,5.81-4.41,4.06-5.81,8.46-3.37,14,2.86,6.47,6.32,12.68,9.37,19.07,6.85,14.35,9.72,29.35,7.86,45.3-.55,4.68.23,9.56.7,14.32.58,5.91,2,11.78,2,17.68a33,33,0,0,1-2.8,12.62c-2.38,5.6-5.84,10.74-8.6,16.19a23,23,0,0,0-2.12,6.78c-1.61,10.4-3.64,20.78-4.37,31.25-.7,10,0,20.2.11,30.3,0,3.54.07,7.1.32,10.63.15,2.08.82,4.12,1.06,6.2.11.94-.38,1.93-.4,2.9,0,1.88-.68,4.41.26,5.53,3.49,4.15,3.74,9.13,4.86,14.26-5.62.34-10.85-.1-15.67-2.68-3.46-1.85-4.38-5.32-3.55-8.65,2.37-9.55.21-18.8-1.12-28.14q-2.48-17.35-4.64-34.74c-.24-1.94-.61-3-2.85-3.18a8.72,8.72,0,0,1-3.66-1.62c-5.22-3.25-10.63-3.26-16.2-1.1-3.42,1.32-4.81,3.77-4.84,7.52-.08,9.48,1.67,18.67,3.84,27.82,1.08,4.54.72,9,0,13.61-.9,6-.68,12.25-.73,18.39,0,.91,1,1.89,1.72,2.75,1.48,1.87,3.2,3.57,4.52,5.55,1.19,1.78,1,3.47-1.61,3.76a41.65,41.65,0,0,1-6.18.35c-2.79-.12-5.57-.72-8.36-.77-2.09,0-2.87-.83-2.67-2.8.11-1.14.31-2.28.36-3.42q.45-10.27.83-20.55a5.84,5.84,0,0,0-.12-1.56c-3.25-13.66-6.45-27.34-9.87-41-.33-1.31-1.93-3.16-3.08-3.27-5.57-.55-11.19-.6-16.8-.81-3.37-.13-4.83,2.08-6.24,4.73-3.62,6.78-7.32,13.53-11.27,20.12-2.35,3.91-5.52,7.33-7.76,11.29a17.4,17.4,0,0,0-1.92,7.76,58.73,58.73,0,0,0,.85,11.53,18.72,18.72,0,0,0,5.49,10.23c2.65,2.69,4.19,6.53,6,10,.76,1.51-.07,2.58-2,2.49-4.58-.22-9.18-.26-13.74-.7-.74-.07-2-2-1.83-2.81.84-3.52-.75-6.21-2.19-9.15-4.49-9.16-8.79-18.41-13.09-27.66a10.31,10.31,0,0,1,.41-9.63c3.5-6.52,7.19-12.94,10.45-19.58a28,28,0,0,0,2.49-8.88,51.46,51.46,0,0,0-.23-9.37c-.28-4.22-1.64-4.07-5.54-4.07-6,0-6.43,4.68-8,8-5.24,11.24-10.4,22.55-14.89,34.1-4.37,11.25-7.87,22.85-11.8,34.28-.8,2.34-.25,3.73,1.92,5.17,3.88,2.57,7.13,5.84,7.65,10.89a6.64,6.64,0,0,1,0,1.25,7.73,7.73,0,0,1-.3,1.12c-.55,0-1.13.1-1.71.07-4.24-.22-8.47-.68-12.7-.65-4.49,0-5.78-1.19-5.6-5.64.39-9.59.79-19.18.88-28.78a37,37,0,0,1,3.46-15.42c.79-1.7,1.3-3.52,2.1-5.21,5.84-12.26,3.05-25.22,3.09-37.94,0-16.83-3.54-33.12-7.06-49.46a79.38,79.38,0,0,1-1.6-18.93c.2-6.86,3.87-12.33,8.48-17.57,7.15-8.12,16.62-12.34,25.74-17.22a24.53,24.53,0,0,1,7.14-2.08c4.92-.9,9.89-1.58,14.84-2.29a11.69,11.69,0,0,1,4.33-.19c9.25,2.35,18.5.39,27.74.13a77.94,77.94,0,0,0,13.32-1.48c5.18-1.05,8.55-4.07,9.56-9.75,1.21-6.77,3.07-13.41,4.66-20.11a4.35,4.35,0,0,1,.45-1.48c3.44-4.9,2.2-9.56-.94-13.91a30.68,30.68,0,0,0-5-4.88c-2.64-2.29-5.87-4.08-8-6.76-4.31-5.48-8.09-11.38-12-17.19-1.2-1.8-2.61-3.76-1.2-7.06,6.49,8.87,16.24,10.14,25.19,13.15l.54-.83c-5.56-4.64-11.25-9.13-16.63-14-8.52-7.64-17-15.39-25.17-23.35-4.29-4.16-6-9.74-6-15.65a34,34,0,0,0-3-14.54c-2.7-5.86-4.89-12-7.12-18a16.86,16.86,0,0,1-.15-12.54c2.31-5.63,4.76-11.2,7.6-16.65,1.75,9.42-5.08,18.68.22,28.4l4.3-2.75-1.47,4.28c3.15,1.42,4.82-.63,6.2-2.58,2.64-3.74,5-7.66,7.51-11.52,2.36-3.68,4.68-7.4,7.05-11.08a14.8,14.8,0,0,1,1.59-1.78l.93.27-2.26,14.66,3.09.91c-2.08,3.15-3.65,6.23-5.86,8.76-8.24,9.49-9.68,20.2-5.36,31.56,2.63,6.92,6.4,13.4,9.66,20.07l1.44-.38V7073l1-.07c1.14,4.79,2.47,9.55,3.39,14.39,1.8,9.48,7,16.55,14.8,22a4.7,4.7,0,0,0,.82.43c.07,0,.2,0,.59-.15l-2.67-25.43.91-.25a7.38,7.38,0,0,1,.92,1.59c1.59,5.61,2.93,11.31,4.76,16.84a42.69,42.69,0,0,0,4.38,8.88c2,3.26,4.81,6.07,6.64,9.42,3.29,6,8.74,6,14.34,5.81a29,29,0,0,0,4.59-1c3.83-.77,6-3,6.39-7a7.2,7.2,0,0,1,1.1-3.24c4.1-6.09,5.11-13.08,6.35-20.1.83-4.7,2.52-9.24,3.83-13.85l1.43.3-3,31.26a9.14,9.14,0,0,0,2.57-1c4.35-4,8.79-8,12.89-12.28s5.94-9.81,6.4-15.63c.52-6.65.61-13.34.87-20a9.37,9.37,0,0,1,.56-3.66c4.74,8.36,3.31,17.67,3.84,26.67Z" transform="translate(-7158.72 -7005.21)"/></svg>