<svg id="Calque_1" data-name="Calque 1" xmlns="http://www.w3.org/2000/svg" viewBox="0 0 394.35 313.01"><title>13</title><path d="M7307.9,7357.5h-4a3.18,3.18,0,0,0-.56-.24c-4.79-1.05-9.57-2.13-14.38-3.12-1-.21-1.21-.74-1.12-1.61.19-1.88,1.6-2.75,3.08-3.29,2.44-.88,5-1.46,7.47-2.24a87.53,87.53,0,0,0,9.25-3.12c2.4-1.06,2.9-3.27,1.88-5.73a5.5,5.5,0,0,0-3.72-3.43,93,93,0,0,0-12.3-2.39,29.69,29.69,0,0,1-16.51-7.08c-4.11-3.44-4-6.5.23-9.75,1.38-1.07,2.76-2.14,4-3.33.9-.85,1.49-1.93.87-3.16-4.19.73-8.25,1.57-12.34,2.12a50,50,0,0,1-18-.63c-6.15-1.42-11.73-4.22-17.25-7.13a4.72,4.72,0,0,0-5.26.06c-2.75,1.86-5.39,3.88-8.06,5.85L7190.54,7332c-4.07,3-8.43,5.71-11.4,10-1.46,2.1-2.82,4.28-4.36,6.33-2,2.66-4.41,4.6-7.94,5a37.21,37.21,0,0,1-13-.65,21.09,21.09,0,0,1-8.85-4.05c-2.9-2.42-4.28-5.49-3.45-9.27a9.32,9.32,0,0,1,5.6-6.37c4.91-2.27,10-4.21,15-6.27,4.47-1.84,8.91-3.71,12.2-7.46,2.1-2.39,4.23-4.76,6.28-7.19,3.65-4.31,7.22-8.67,9.3-14a15.4,15.4,0,0,0,.5-11.23l-.66.13-.89.22c-5.7,1.34-11.41,2.51-17.32,1.67-6.07-.87-10.66-3.8-13.14-9.53-1-2.28-1.66-4.68-2.59-7.35a13.44,13.44,0,0,0-2.61,1.88c-1.06,1.23-1.86,2.68-2.81,4a41.06,41.06,0,0,1-4,5.38c-5.17,5.14-11.51,8.7-17.56,12.66a56.18,56.18,0,0,0-11.35,9.15c-3.18,3.53-5.93,7.34-7,12.1-.62,2.79-1.12,5.62-1.64,8.43-1,5.26-3.94,8.78-9.24,9.84a33.48,33.48,0,0,1-9.12.78c-5.69-.46-10.77-2.31-12.75-8.53v-2.46c1.17-3.89,3.79-6.7,6.83-9.2a128.76,128.76,0,0,0,16.48-15.63c7.15-8.37,13.4-17.19,17.87-27.26,3.39-7.64,7.72-14.88,9.86-23.07a97.56,97.56,0,0,1,3.38-10c2.56-6.72,6.54-12.28,13.22-15.37-.68-2-1.46-3.84-1.94-5.76a38,38,0,0,1-1-6c-.64-7.93,1.17-15.56,2.86-23.22,1.12-5.09,2.56-10.16,3.06-15.31.34-3.51-.66-7.17-1.16-10.75a66.81,66.81,0,0,1-.38-17.32,54.36,54.36,0,0,1,8.55-23.57,2,2,0,0,0-.06-2.73,36.34,36.34,0,0,0-4.94-4.3c-2.45-1.66-5.17-2.93-7.67-4.52a14.1,14.1,0,0,1-3.31-2.91,3.53,3.53,0,0,1-.2-4.31c.89-1.41,2.31-1.34,3.71-1,2.9.79,5.78,1.67,8.7,2.42a3.29,3.29,0,0,0,3.61-1.17,52.1,52.1,0,0,1-12.74-10.51c-8.35-9.61-13.58-20.44-12.33-33.57.53-5.57,2.79-10.36,7.53-13.67,1-.72,2.16-1.29,3.24-1.93h.31c-.07.4-.13.8-.21,1.2-.79,4.37-1.87,8.71-2.3,13.11-.88,8.85,2.19,16.05,10,20.78,3.67,2.23,7.64,4,11.31,6.18,2.24,1.35,3.9,1.12,5.9-.42,5.18-4,11.23-5.52,17.67-5.67a63.94,63.94,0,0,1,17.65,2,26.67,26.67,0,0,0,14.79.12,19.73,19.73,0,0,1,9.12-.52,31.14,31.14,0,0,1,12.14,5.33c2,1.34,3.72,2.46,6,.74a.68.68,0,0,1,.3-.08c3.73-.62,7.43-1.4,11.18-1.81,7.32-.8,12.31-4.44,14.13-11.62a73.77,73.77,0,0,0,2-12.84c.34-4.75.08-9.55.08-14.49,4.45,7.84,8.77,15.63,9.82,24.68.72,6.25-1.32,11.45-6.81,14.91-2,1.25-4.15,2.21-6.21,3.35a70.13,70.13,0,0,0-6.9,4c-3.44,2.45-2.81,8.28,1,10a32.76,32.76,0,0,1,3.66,1.94c2.42,1.51,2.59,3.94.37,5.79a8.37,8.37,0,0,1-2.92,1.62c-2,.57-4,.88-6,1.29-3,.62-6,1.12-9,1.92a6.07,6.07,0,0,0-4.24,3.73c-4,10.69-3.78,21.22,1.3,31.53,3.77,7.65,9.53,13.53,16.51,18.28a12.56,12.56,0,0,0,3.73,2.05c9.19,2.3,16.87,7.2,23.85,13.42q9.77,8.7,19.68,17.24a5.87,5.87,0,0,0,3,1.06c4.07.46,8.19.54,12.22,1.21,10.71,1.79,20.8,5.59,30.71,9.89,5.35,2.32,10.65,4.73,16,7a2.76,2.76,0,0,0,2.1.14,166.76,166.76,0,0,0,21.91-14.47c2.63-2.13,5.22-4.34,6.91-7.37s1.12-5.29-1.81-6.89a24.15,24.15,0,0,0-6.66-2.61c-8.57-1.7-17.2-3.1-25.79-4.72-6-1.13-11.9-2.59-17.19-5.83-4.81-2.95-6.73-7.13-5.65-12.65a19.24,19.24,0,0,1,7-11.12c3.73-3.12,7.71-5.94,11.66-8.77,4.71-3.37,9.56-6.55,13.29-11.12a7.81,7.81,0,0,0,1.77-6.87c-.68-3.25-1.5-6.47-2.1-9.74s0-6.28,2.78-8.44c4-3,8.72-3.6,13.59-4.32-.23.59-.36,1-.52,1.35a10,10,0,0,0,1.16,10.57c.85,1.15,1.73,2.29,2.62,3.42a26.05,26.05,0,0,1,5.24,10.13c1.11,4.69.69,9.36-.15,14a1.93,1.93,0,0,1-1.1,1.11c-6.25,2.54-12.48,5.11-18.79,7.5-5.21,2-10.55,3.6-15.74,5.6-2.79,1.08-5.39,2.68-6.45,5.76-.95,2.76-.29,5.47.66,8.1a1.71,1.71,0,0,0,1.21.76c4.4.67,8.82,1.21,13.21,1.94,6.4,1.06,12.82,2.09,19.16,3.44a37.09,37.09,0,0,1,14.5,6c3.73,2.73,5.65,6.31,4.79,11a22.31,22.31,0,0,1-4.35,9.05,82.72,82.72,0,0,1-14.69,14.84c-3,2.5-6.17,4.9-9.38,7.43a14.42,14.42,0,0,0,2,2.31c3.86,2.95,7.69,6,11.71,8.67,6.27,4.23,11.59,9.29,15.15,16a41.58,41.58,0,0,0,2.25,4.35q8.69,12.58,17.53,25.06a7.6,7.6,0,0,0,2.61,2.42,29.63,29.63,0,0,1,15.37,17.38,115.86,115.86,0,0,1,3.95,13.82c.81,3.82,1.6,7.46,4.52,10.31,1.32,1.29,2.48,2.73,3.71,4.12,3.72,4.21,7.88,8.12,9.41,13.82v2.46a6.39,6.39,0,0,0-.27.71c-.86,3.34-2.29,4.59-5.75,4.5-2.7-.06-5.4-.51-8.1-.66a4.17,4.17,0,0,1-3.81-2.84,17.63,17.63,0,0,1-1.15-3.94c-.5-3.13-.78-6.3-1.3-9.42-.2-1.19-.35-2.59-1.82-3.12a16.91,16.91,0,0,1-9.87-9.54c-.76-1.68-1.56-3.34-2.42-5-1.46-2.74-3.37-4.87-6.63-5.68a40.76,40.76,0,0,1-8.06-2.9c-6.29-3.08-12.5-6.31-18.66-9.64a20.73,20.73,0,0,0-12-2.34c-1,.08-1.39.43-1.4,1.52a71.78,71.78,0,0,1-.44,9.21,32.24,32.24,0,0,1-2.17,7.91c-1,2.46-3.13,3.22-5.63,2.28a27.85,27.85,0,0,1-5.34-2.94c-1.77-1.16-3.39-2.55-4.93-3.72a63.58,63.58,0,0,1-4.24,5.1c-3.38,3.32-7.26,3.49-11.08.68a22.79,22.79,0,0,1-6.47-8.09,2.19,2.19,0,0,0-1.35-1.15c-2.86-.21-5.74-.4-8.6-.33a19.84,19.84,0,0,0-12.81,5.24c-2.68,2.34-3.25,5.48-1.21,8.41a34.12,34.12,0,0,0,5.57,5.85c3,2.61,6.24,4.86,9.1,7.55s3.17,6.11,1,9.61a13.64,13.64,0,0,1-6.64,5.25c-6.07,2.58-12.6,3-19,4C7313.7,7356.42,7310.8,7357,7307.9,7357.5Z" transform="translate(-7077.76 -7044.49)"/></svg>