<svg id="Calque_1" data-name="Calque 1" xmlns="http://www.w3.org/2000/svg" viewBox="0 0 406.4 213.34"><title>14</title><path d="M7350,7236c-2.54,6.84-5,13.11-7.19,19.45q-4.91,13.92-9.58,27.93c-1,3-.34,3.62,2.74,3a5.93,5.93,0,0,1,5.19,1.27c2.58,2,5,4.2,5.69,7.61a4.09,4.09,0,0,1-1.23,4.27,8.42,8.42,0,0,0-1.87,3.77c-.67,2.38-1.13,2.84-3.6,2.38a5.12,5.12,0,0,0-4.36,1.22,5.72,5.72,0,0,1-4.12,1.19c-5.83-1.38-11.61-3-17.35-4.77-3.22-1-5.08-3.42-5.91-6.66-2.08-8.1-1.79-16.16-.25-24.36a269.5,269.5,0,0,0,4.38-42.4,10.9,10.9,0,0,0-.12-1.26c-2.68.13-5.24.2-7.79.38-15.71,1.11-31-1.17-46-5.8-9-2.77-17.91-5.61-26.79-8.63-3.67-1.25-7.15-3-11-4.71a13.71,13.71,0,0,0-.65,1.43c-4.45,12.86-8.85,25.73-13.35,38.57-.76,2.16-2.07,4.12-2.85,6.28a15.8,15.8,0,0,0-1.33,5.87,54.83,54.83,0,0,0,4.14,17.48,14.22,14.22,0,0,0,1.68,2.91c2,2.8,4.56,4.14,8.06,3a8.6,8.6,0,0,1,2.89-.61c1.26.06,2.87.07,3.69.82,3.52,3.21,6.34,6.95,6.7,12,.22,3.16-.47,4.38-3.43,5.45-8.87,3.22-17.79,2.84-26.66,0a15.49,15.49,0,0,1-7.35-5.56q-7.23-9.19-14.22-18.57c-2.52-3.39-4.71-7-7.12-10.49-3.82-5.51-4.32-11.34-1.89-17.52.92-2.34,1.74-4.71,2.67-7,2-5,1.82-10,1.14-15.21-.19,0-.37,0-.42.11-4.27,5.8-10.62,8.74-16.56,12.34a149,149,0,0,0-16.31,11.22c-6.41,5.16-8.28,12.48-8,20.45.06,1.57.73,2.09,2.43,1.91,1.89-.2,4.4-.55,5.65.43,2.52,2,4.45,4.76,6.44,7.34.4.52,0,1.65,0,2.49-.1,1.11-.55,2.29-.31,3.31.53,2.25-.71,3.18-2.44,3.53-3.49.71-7,1.35-10.56,1.72s-6.87.38-10.31.49a6.12,6.12,0,0,1-6.32-3.91c-1.08-2.65-1.8-5.46-2.76-8.44-1,1.83-1.95,3.55-2.93,5.23-4.54,7.76-13.75,12.26-22.16,10.78a9.1,9.1,0,0,1-3.53-1.22c-6.34-4.36-11.44-9.77-12.47-17.77-.89-6.89,1.59-12.83,6.62-17.49,3.78-3.5,11.34-1,12.51,4a40.47,40.47,0,0,1,.77,7.07c.1,2-1,3.12-3,3.46-3,.49-3.42,1-3.3,3,.17,2.93,1.39,4.35,4,4.43a10.86,10.86,0,0,0,8.3-3.08c5.7-5.52,8.4-12.41,9.22-20.13,1.38-12.89,2.42-25.82,4.05-38.68,2.4-18.93,6.08-37.63,13.2-55.41,6.47-16.13,17.76-28.19,33.28-36.12,4-2.07,8.3-3.74,12.46-5.59a10.41,10.41,0,0,0,1.61-.75c10.48-7.06,22.52-9.88,34.55-12.77,13.89-3.33,27.57-1.69,41.25,1.39,16.18,3.64,32.4,7.09,48.59,10.67,10.18,2.25,20.23,1.58,30.23-1.1a19.64,19.64,0,0,1,3.9-.67c4.08-.24,7.22-2.36,10.15-4.92a28,28,0,0,0,2.17-2c8.62-9.32,19.35-10.82,31.13-8.41.71.15,1.4.39,2.11.55,3,.68,5.57,1.33,8.85-.26,3.68-1.79,8.14-2.08,12.31-2.69s8.3-.76,12.43-1.25a4.11,4.11,0,0,0,2.43-1.25,15.67,15.67,0,0,1,9.25-5.62c4.95-.95,8.3,1.16,11.16,4.71.82,1,1.41,2.24,2.14,3.34a7.93,7.93,0,0,0,12.16,1.85,14,14,0,0,1,3.26-2.2c1.87-.79,3,.24,2.63,2.23,0,.13-.08.25-.1.38-1.06,5.22-.67,5.54,4,8.23,5.34,3.06,9.32,7.4,10,13.9a6.16,6.16,0,0,0,2.72,4.81,15.06,15.06,0,0,1,5.67,7.67,66.8,66.8,0,0,0,2.87,6.31,4.34,4.34,0,0,1-.78,5.45,15.35,15.35,0,0,0-4.5,8.14c-.58,3-3.23,4.12-6.24,3.81-1-.1-2.09.89-3.14,1.39l.29.9c1.66-.12,3.33-.18,5-.38,3-.35,3.7.35,2.89,3.26-.66,2.35-1.48,4.66-2.34,6.94-.7,1.86-2.09,2.43-4,1.76-2.73-1-5.49-1.83-8.13-3a24.52,24.52,0,0,1-4.68-2.89c-1.63-1.21-2.67-1.15-3.74.58-.66,1.07-1.17,2.22-1.83,3.29a3,3,0,0,1-4.23,1.39c-1.56-.71-3.1-1.49-4.68-2.16-2.87-1.21-4.1-.9-6.07,1.47-.76.91-1.42,1.91-2.19,2.82-1,1.14-1.94,1-2.72-.22-.6-.95-1.07-2-1.65-2.93-.8-1.32-1.78-1.61-3.1-.59-1.08.83-2.29,2.1-3.4,2.06-.8,0-1.57-1.87-2.29-3a2.7,2.7,0,0,0-3.34-1.05c-6.6,2.22-13,4.92-16.6,11.38s-6.7,13.19-9.95,19.85a14.5,14.5,0,0,0-.88,9.84c.69,3.12.57,6.43.71,9.66.5,11.83.85,23.66,1.51,35.48a86.62,86.62,0,0,0,1.81,10.92,3.63,3.63,0,0,0,3.35,2.94c1.76.27,3.54.4,5.32.52a4.51,4.51,0,0,1,3.93,2.55,9.64,9.64,0,0,0,2.59,2.88c2.67,2,4.07,6.06,2.89,9.15a2.67,2.67,0,0,1-1.2,1.46,77.58,77.58,0,0,1-9.62,3.57c-7.7,2-14.9-.6-22-3.1a4.9,4.9,0,0,1-2.22-2.12q-5-8.44-9.8-17a12.75,12.75,0,0,1-1.21-3.91c-1.46-8-2.08-16.32-6.39-23.57C7353.77,7241.31,7352,7238.94,7350,7236Z" transform="translate(-7072.19 -7094.8)"/></svg>