<svg id="Calque_1" data-name="Calque 1" xmlns="http://www.w3.org/2000/svg" viewBox="0 0 149.89 313.01"><title>15</title><path d="M7306.19,7079.07a42.21,42.21,0,0,0,4.37,1.79c11.17,3.26,16.75,11.08,17.62,22.28.47,6.12,2.37,11.68,4.71,17.22.92,2.17,1.46,4.5,2.21,6.86l-2.78,2.05c1.58,4.37,3.18,9.12,5,13.77,4,10,5.56,20.71,8.26,31.09,1.13,4.34,2.57,8.62,3.4,13a82.23,82.23,0,0,1,1.22,12.24c.13,3.7-.17,7.42-.4,11.12a6.16,6.16,0,0,1-.9,2.29c-1,1.82-2.09,3.56-2.93,5.44-.63,1.4-1.07,2.57-2.92,1.52-.38-.21-1,0-1.66,0l.66-6.06-.32-.13c-.72,1.5-1.37,3-2.19,4.49-.29.51-1.2,1.23-1.42,1.11a3.06,3.06,0,0,1-1.53-1.69,5.26,5.26,0,0,1,.62-2.35c1.05-3.06,2.47-6,3-9.19.26-1.45-1.11-3.2-1.75-4.81-.63.31-1.59.49-1.8,1-.36.86-.07,2-.4,2.86-.22.59-1,1-1.57,1.45a6.8,6.8,0,0,1-1.33-1.58c-1.21-3,.33-5.37,2-7.54a20.48,20.48,0,0,0,4-9.41,4.07,4.07,0,0,0-.39-2.49,145.76,145.76,0,0,1-12.58-26c-1.41-4.07-1.77-8.5-2.69-12.75s-1.82-8.53-2.93-12.73c-.43-1.64-1.89-2.41-3.69-2.46l-.74-4.1h-.77c-2.56,3.3-1,7.55-2.22,11.55l-.31-1.72-.58-.15-2.1,7.15c-1.57-4.18,1.62-7.83,1.38-12l-2.66,1.27c5-4.71,3.48-10.83,3.35-16.72-.75,1.46-1.53,2.92-2.26,4.39-4,8.18-8.07,16.34-12,24.56a6,6,0,0,0-.55,3.33c3.35,20.3,6.9,40.56,10.09,60.89.81,5.17.69,10.52.64,15.79-.07,8.07,1.43,15.94,2.66,23.85,2.41,15.58,4.76,31.15,6.12,46.87.8,9.28,1.86,18.54,2.86,27.8.2,1.87-.27,3.2-2.09,3.88-1.63.61-2,1.55-1.42,3.29,1.71,5.53,3.2,11.13,4.77,16.7.16.56.33,1.12.46,1.7.74,3.33.11,4.66-2.76,6.45-4.12,2.58-8.15,2.68-12.24-.09-3.18-2.15-4.09-4.44-3.25-8.19a3,3,0,0,0-.33-2.29,5.58,5.58,0,0,1-.65-6.22c.81-1.86.55-3.63.42-5.51-.1-1.45-.26-3.13.34-4.34,2.16-4.34,1.08-8.54-.19-12.7-2.46-8.09-5.14-16.11-7.68-24.17a11,11,0,0,1-.51-3.24c0-7.1-.1-14.21.18-21.31.1-2.66-.79-4.16-3.17-5.07-1.49,1.51-.66,3.39-.78,5.13,0,.58-.17,1.55-.47,1.64-2.17.62-1.84,2.3-1.84,3.88,0,2.85,0,5.7,0,8.68l-1.68-3.59c1.77-1.35,1.07-3.29.65-5.28a10.53,10.53,0,0,1,0-3.4c.42-3.42.94-6.82,1.41-10.24,0-.19.07-.53,0-.56-3-1.34-.44-5-3.12-6.48,2.47-1.15,3-2.32,2.44-4.89-.45-2-.9-3.94-1.51-5.86-1.69-5.3-1.42-10.82-1.92-16.25-.41-4.54-.59-9.1-.87-13.65-.1-1.73-1-2.32-2.83-1.54a17.79,17.79,0,0,0,.47-4.06,6.64,6.64,0,0,0-1.38-3.61c-2.06-2.24-4.41-4.2-6.91-6.52-.87,3.76-1.68,7.22-2.47,10.68-3.36,14.65-6.84,29.27-10,44a61,61,0,0,0-1,12.24c0,1.87,1.09,3.72,1.48,5.62a21.29,21.29,0,0,1,.6,5.16c-.26,6.38-.48,12.77-1.12,19.11a97.31,97.31,0,0,1-2.41,13.63,40.86,40.86,0,0,0-.55,16.82c.24,1.41.33,2.85.52,4.27.41,3.08.14,3.64-2.58,5.15.44,1.15.87,2.3,1.32,3.44,1.12,2.81-.06,5.36-1,7.89-.18.48-1.1.85-1.73,1a52.5,52.5,0,0,1-6.94,1.09c-4.83.27-8.73,2.8-12.83,4.89-3,1.53-6,3.13-9,4.69s-9.82.23-12-2.32a6,6,0,0,1,1.31-8.69c5.69-3.43,11.39-6.82,16-11.71a23.61,23.61,0,0,1,3.83-2.71l-.7-.56,2.79-1.43-1.28-.66.94-2.68c.71-1.13,1.48-1.85,1.62-2.67a123.31,123.31,0,0,0,1.82-13.34c.25-4.73-.1-9.5-.3-14.25-.43-10.35-.93-20.69-1.41-31a54.08,54.08,0,0,0-.44-6.24c-1.27-7.72.79-15.11,1.91-22.63,1.16-7.79,2-15.63,2.74-23.47,1.2-11.93,2.43-23.86,3.29-35.81.49-6.84,3.87-12.63,5.88-18.91.27-.86.63-1.68,1-2.65l-1.6-.46,1.72-2.07-4.08-3a16.12,16.12,0,0,0,3.25-1.81,5.85,5.85,0,0,0,2.29-4.92c-.62-8.25-1.1-16.51-1.64-24.76a4.27,4.27,0,0,0-.28-.8c-.37.55-.65.91-.87,1.31-5,9-10,18-15.86,26.46-3,4.35-5.08,9.39-7.11,14.31-.88,2.12-.55,4.74-.8,7.13-.07.63-.23,1.26-.43,2.27-1.23-2.38-1-5.76-4.72-5-2.35,3.75-5.88,7.11-5,12.63l-3.09-1.76c-.59,2.25-1,4.28.06,6.51a55,55,0,0,1,3.31,8.95c.46,1.73.08,3.69,0,5.54,0,.26-.49.72-.73.71a1.32,1.32,0,0,1-1-.62,53.67,53.67,0,0,1-1.78-5.34c-.38-1.47-.65-2.93-2.38-3.64a6.46,6.46,0,0,0-2.71,5c-.4,3.77,1.24,6.8,3.09,9.81.72,1.18,1.63,2.66.29,3.69-1.16.89-2.52,1.68-4.46.74-2.64-1.27-4.54-2.81-5.18-5.75a11.27,11.27,0,0,0-1.16-3.1c-2.2-3.92-1.93-7.9-.66-12,1.49-4.9,2-10.1,4.73-14.61.21-.35-.09-1-.16-1.51a12.31,12.31,0,0,1-.22-1.58c0-4.38,4.37-5.68,6.2-8.79.87-1.48,2.29-2.65,3.11-4.15,6.09-11.29,12.24-22.54,18-34,1.83-3.61,2.65-7.73,3.87-11.63,1.83-5.83,3.51-11.72,5.46-17.51,1.5-4.46,3.53-8.7,7-12.08a10.44,10.44,0,0,1,6.87-3.32,38.74,38.74,0,0,0,14.21-3.89,3.22,3.22,0,0,1,2-.47,2.94,2.94,0,0,0,3.88-2.06c1.64-5.46,6-8.75,9.53-12.67,2-2.17,4.21-4.1,6.07-6.36,5.64-6.88,13.65-5.1,18.74-1.44a20.68,20.68,0,0,1,7.7,11.91c1,3.62-.41,6.89-2.85,9.53C7312.57,7073,7309.42,7075.87,7306.19,7079.07Z" transform="translate(-7200.36 -7045.12)"/></svg>