<svg id="Calque_1" data-name="Calque 1" xmlns="http://www.w3.org/2000/svg" viewBox="0 0 313.05 313.01"><title>16</title><path d="M7215.7,7082.26l8.4,8.4-8.91,8.94,2.52.24,23.84,2c6.6.57,13.2,1.17,19.81,1.75,1.62.14,3.24.24,4.85.41a1.36,1.36,0,0,0,1.23-.45q8.67-8.72,17.37-17.41l.47-.45,9.15,9.16-10.66,10.58,4.8.51,17,1.76,16.82,1.73c3.45.36,6.89.71,10.34,1.1a1.64,1.64,0,0,0,1.52-.51c8.4-8.49,16.68-17.09,25.26-25.4,10.63-10.3,21.43-20.42,33.48-29.11a108.37,108.37,0,0,1,24-13.4,78.43,78.43,0,0,1,13.68-3.94c.2,0,.42,0,.83-.08-.36,1.93-.63,3.77-1.06,5.58a69.59,69.59,0,0,1-7.94,18.75c-5.77,9.94-12.87,18.9-20.42,27.51-6.74,7.68-14,14.86-21.21,22.08q-11.15,11.15-22.3,22.29a1.5,1.5,0,0,0-.49,1.38q1.23,10.32,2.42,20.64,1.28,11,2.54,22c.26,2.29.54,4.58.82,6.92l10.51-10.52,9.23,9.21c-.12.13-.32.35-.53.56q-8.6,8.61-17.22,17.22a1.56,1.56,0,0,0-.53,1.36c.48,5.53.94,11.07,1.41,16.61q.62,7.32,1.24,14.63l1.43,16.77c.1,1.19.2,2.39.3,3.59l9.28-9.19,8.11,8.08c-.51.46-1.07.95-1.6,1.47q-6.89,6.88-13.78,13.77a1.81,1.81,0,0,0-.59,1.59q.82,10.24,1.59,20.48c.47,6.14.92,12.29,1.39,18.43q.78,10.28,1.58,20.57a6.56,6.56,0,0,0,.08,1.15c.54,2-.28,3.66-1.39,5.33-3.07,4.59-6,9.28-9,13.93-.14.22-.3.44-.53.78-.61-2.07-1.19-4-1.76-5.95q-16.29-55.33-32.59-110.65a6.32,6.32,0,0,0-.55-1.37q-12.29-21.33-24.59-42.64c-.12-.21-.26-.41-.42-.67-.22.19-.4.34-.57.51l-60.59,59.41a8,8,0,0,1-1.35,1.07q-17.19,10.7-34.39,21.37a1.1,1.1,0,0,0-.59,1.31c1,7.29,2,14.59,3.06,21.89q1.61,11.52,3.23,23c.79,5.64,1.58,11.27,2.34,16.91a1.47,1.47,0,0,1-.3,1.09c-3.65,3.7-7.33,7.37-11,11.05a2.51,2.51,0,0,1-.26.19c-.2-.29-.4-.57-.59-.86q-15.67-24.14-31.36-48.28a5.22,5.22,0,0,0-1.48-1.49q-24.29-15.83-48.61-31.61l-.65-.44c.19-.21.34-.4.51-.57q5.28-5.29,10.55-10.58a1.36,1.36,0,0,1,1.3-.45c5.31.75,10.62,1.48,15.92,2.22l18.37,2.58,18.38,2.57c3.16.44,6.31.91,9.47,1.31a1.16,1.16,0,0,0,.83-.54q5.36-8.56,10.67-17.16t10.71-17.23a9.17,9.17,0,0,1,1.22-1.55q29.58-30.24,59.18-60.46l.62-.65-.72-.44-42.48-24.54a6.67,6.67,0,0,0-1.43-.61l-95-28-21.18-6.24a1.74,1.74,0,0,1-.28-.16c.19-.15.34-.28.51-.38q8-5.16,16-10.3a2.28,2.28,0,0,1,1.3-.34c4.75.33,9.49.69,14.23,1l14.23,1.09,16.12,1.25,16.13,1.22a2.1,2.1,0,0,1,.41,0c1.84.53,3.06-.27,4.34-1.59,4.43-4.6,9-9.06,13.5-13.58A7.31,7.31,0,0,0,7215.7,7082.26Z" transform="translate(-7118.39 -7038.12)"/></svg>