<svg id="Calque_1" data-name="Calque 1" xmlns="http://www.w3.org/2000/svg" viewBox="0 0 252.81 313.01"><title>18</title><path d="M7172.41,7252.34l4.56,4.82,4.77-3.51a17,17,0,0,1,1,3.14c.49,4.77.94,9.55,1.28,14.33.28,4,3.15,6,6.33,8.2-1-6-7.27-12.11.63-17.93,3.91,9,11.12,16.27,11.83,26.66a8.3,8.3,0,0,0,5.6,7.26c3.67,1.42,6.84,3.86,11.52,3.13,3.18-.5,6.77,1.93,10.23,2.85,1.5.4,4.3.78,4.5.32,1-2.28,1.73-4.71-1.3-6.66a40.64,40.64,0,0,1-7.17-6.31c-3.17-3.34-3.58-7.1-1.38-11.3a108.09,108.09,0,0,0,5.66-12.19c1.84-4.88,2.57-9.82-.75-14.65-1.4-2-2.07-4.56-2.78-6.18-2.62,1.44-5.24,2.44-7.24,4.15-1.17,1-1.66,3.1-1.92,4.79-.42,2.74-.39,5.54-.55,8.31l-1.62-.09V7245.6a56.72,56.72,0,0,0-8.36.14c-1.2.17-2.21,1.81-3.26,2.83-1.78,1.76-3.52,3.56-5.28,5.34l-1.16-.85.38-3-5.43,2.67-.83-1.1c1.89-1.95,3.73-4,5.69-5.83,1.19-1.14,2.69-2,3.84-3.16,2.57-2.67,5.22-4.13,9.21-2.92,3.73,1.13,10.18-1.92,12.12-5.11a3.16,3.16,0,0,0,.23-1.46c.21-6.28,4.36-10.29,10.57-9.52,4.54.56,8.93,2.2,13.47,2.82,1.62.22,4.71-.81,5-1.83.67-2.65.16-5.6.11-8.43-1.27.1-2.8-.2-3.76.39-1.83,1.13-3.23,2.92-5,4.19-3.13,2.27-4.95,1.78-6.73-1.65-1.19-2.28-2.1-4.72-5.47-4.54-.49,0-1.74-2-1.49-2.66.62-1.52,1.91-2.77,3.23-4.52-1.25.18-2.68,0-3.73.59-2.37,1.26-3.33.16-3.9-1.88-.85-3-1.94-4.88-5.65-2.85-2.36,1.29-4.57-.62-4.41-3.4a15.1,15.1,0,0,1,.79-3.75c2.55-7.79,1.19-15.32-1.36-22.8-3.38,1-3.94,2.62-2.65,7.46-6.49,2.58,1.71,7.46-2.57,9.88a17.15,17.15,0,0,0-2.61,2.94c-1.89,3.46-3.27,7.24-5.43,10.5-4.88,7.37-13.94,8.2-20.7,2.55-5.89-4.92-13.32-5.11-20.5-5.71-.82-.07-1.83.78-2.57,1.42-2.78,2.38-5.49,4.84-8.22,7.28l-.81-.83c.12-1,.29-2,.35-3,.28-5.07,2.24-7.71,7.32-8.12,5.53-.45,11.13-.1,17.33-.1l-12.49-9.82c2.88-2.52,5.73-2.44,8.28-1a29.82,29.82,0,0,1,6.53,5.24c2.05,2.08,3.51,5,7.19,3.78,3.13-1,5.66-5.17,5.65-8.38-4.79-.64-9.59-.81-14.13-2-7.41-1.94-12.54-8.59-12.56-15.24,0-7.54,4.74-13.66,12.38-16.22.92-.31,1.51-1.58,2.25-2.41-1.06-.9-2.11-2.51-3.19-2.53-1.64,0-3.29,1.06-5.61,1.93-.07-3.73,2.42-4.53,4.9-5.11,4.87-1.12,5.1-1.75,1.86-5.54a20.57,20.57,0,0,1-3.06-4.38c-1.9-4-.9-5.76,3.52-6.64,3.46-.69,5.06-3.15,4.18-6.43s-3.08-2.71-5.73-2.23c-1.58.29-4.16-.54-5-1.76-1.36-1.92-2.53-2.77-4.9-2.73-3.74,0-6.07-2.36-7.68-5.48-.31-.6-.5-1.84-.21-2.06a2.8,2.8,0,0,1,2.35-.48c2.88,1.31,6.13,2.32,8.39,4.38,5.89,5.36,10.83,4.21,13.39-3.6,1.76-5.36,3.87-7.18,7.85-6.69.63.08,1.23.39,1.86.42,1.18.07,2.37,0,3.56,0-.06-1.42-.08-2.85-.17-4.27-.16-2.44-1.09-5.15-.3-7.22.63-1.66,3.21-3.26,5.14-3.59,2.42-.41,4.72-.21,5.1-3.29s-.61-5.57-4-6.43c-.57-.14-1.11-.4-1.89-.69,3.87-1.8,8.54,1.55,9,6.21a10.24,10.24,0,0,1-.25,3.43c-.58,2.38.49,2.89,2.62,2.91s4.18.65,6.27.61c1.63,0,4-.16,4.68-1.17.87-1.22.51-3.42.43-5.18-.06-1.42-.85-2.86-.71-4.23.56-5.36-2.12-8.69-7.5-8.74-6.76-.05-12.83-1.57-16.28-8a24.11,24.11,0,0,1-1.8-6.51c-.41-2-.29-4.11-.87-6-.72-2.39-2.14-3.86-5.18-3.09-3.6.9-6.43-.44-8.12-4.27l3.81-1.37-4.8-2.14c6.23-2,15.16,3.41,16.81,9.94.31,1.24.52,2.51.71,3.78.91,6,2.38,7.51,8.5,8.21,2.67.31,5.37.31,8,.58a19.68,19.68,0,0,1,16.23,10.8,33.58,33.58,0,0,0,2.42,3.34c1.82-3,3.5-4.41,6.93-3.56,1.82.45,2.67-2,1.32-4-.72-1-1.56-2-2.65-3.36a7.44,7.44,0,0,1,7.12,5.16c1.12,2.91,2.49,3.1,4.88,1.44,7.63-5.3,9.77-4.85,15.69,2,1,1.16,3.53,1.18,5.39,1.34,2.36.21,4.86-.37,7.1.2a4.62,4.62,0,0,1,2.7,3.53c0,1.15-1.67,2.8-3,3.28-2.8,1-3.93,2.58-3.27,5.52s-.65,3.78-3.37,3.43c-1.76-.23-4.13-1.55-4.8,1.25-.26,1.08.86,3.5,1.61,3.61a10.92,10.92,0,0,0,6.25-.69c1-.51.86-3,1.65-4.39a17.74,17.74,0,0,1,3.32-3.94c1.56-1.46,3.9-2.39,4.87-4.12,2.67-4.77,4-5.65,9.1-4.39,3.33.82,4.63-.25,4.72-3.86.15-5.79,2.8-9.1,9.25-11.55,3.56-1.35,7.39-.17,11.66,4-3.48.76-6.51,1.38-9.52,2.08a26,26,0,0,0-5.48,1.53c-2.42,1.17-3.23,3.26-1.89,5.78,1.54,2.91,2.32,6.09,6.81,6.66,3.61.46,6.14,3.37,6.41,7.6.35,5.33,2.1,6.82,7.34,7.51a40.76,40.76,0,0,1,8.45,2.11c1.16.42,2,1.86,2.41,2.33a76.38,76.38,0,0,1-8.47,2.66,61.46,61.46,0,0,1-8.1.55c0,.11-.19.54-.13.57,3.64,2.13,4.95,6,7.19,9.24,2.5,3.57,6.17,3.28,9.12.09a13.72,13.72,0,0,1,4.46-3.18,9,9,0,0,0,4.1-12.66c-1.12-2-2.8-3.82-3.44-6-.71-2.39-.48-5.05-.72-7.59-.15-1.59-.38-3.16-.61-4.74-.4-2.75-1.43-5.55-1.15-8.22.76-7.24,7.12-10.61,13.79-7.8,2,.86,4.24,1.38,6.8,2.2a17.74,17.74,0,0,0-1.87,2.12c-1.28,2.08-3.1,4.1-3.54,6.37a13.51,13.51,0,0,1-4.47,8.16c-6.09,5.35-6.11,8-.57,14,5.05,5.4,5.76,9.06,1.38,15-3.28,4.48-7.51,8.32-11.61,12.13-2,1.89-2.93,3-.88,5.62.92,1.16.15,3.65.15,6.23a18.29,18.29,0,0,0,2.27.39c2.56.22,4.07,1.33,3.89,4.14s1.51,3.64,3.87,3.57a14.8,14.8,0,0,0,4.16-.65c9.35-3.08,14.12,1.56,17.33,10.76.89,2.56.53,5.89-.22,8.61-1.26,4.6-4.72,6.61-9.52,6.66a16.41,16.41,0,0,0-4.9.6c-2.86.94-3.39,3.35-2.79,5.94s2.34,3.57,4.88,3.34c.38,0,.76-.09,1.14-.14,8.05-1.18,10.88,1.19,11,9.23.09,5.37.08,5.43,5.47,5.71,4.54.23,8.29,1.68,10.28,6.1s.87,7.64-2.77,10.82a12.59,12.59,0,0,0-3.88,6.1c-.68,2.86,1.61,4.41,4.26,3,8-4.22,12.92-9.5,8-18.59-2.61-4.84.37-10.07,5.93-10.79a68.77,68.77,0,0,1,8.76-.07l.65,1.23c-2.35,1.62-4.52,3.68-7.1,4.75-4.46,1.86-4.94,2.26-3.92,7.07.58,2.74,1.68,5.49,1.63,8.21-.08,4.55-2.78,7.93-6.6,10.22a52.9,52.9,0,0,1-7.91,3.91c-7.12,2.79-11.24-.05-11.32-7.63,0-1.13,0-2.27,0-3.71a20.43,20.43,0,0,1-4.15,1,16.28,16.28,0,0,1-3.84-.9c-5.6,8.17-6-1.68-9.09-3.08-2.44,2.45-1.86,5.29-.47,7.39s3.86,3.43,5.85,5.11c-4.87,2.12-9.68-1.64-13.34-10.6-5.51,1.62-3.28-4.18-5.78-6.29-.58.69-1.37,1.21-1.52,1.88-.71,3.32-1.26,6.67-1.86,10-1.39,7.79,5.11,14.82,12.72,14,1.95-.2,4.48,0,5.9,1.05a101.79,101.79,0,0,1,10.93,10c.77.79.68,2.68.54,4-.4,3.85,1.16,6.38,4.6,8,3.82,1.78,6.33,4.61,6.86,8.93-5.16,2.15-7,1.6-10.11-2.67s-5.43-8.6-5.31-14.37c.15-7.39-7-12.53-14.3-11.22-11,2-20.57-8.87-17.53-19.64a18.49,18.49,0,0,0,.36-7.51c-.54-3.64-3.51-4.84-6.79-5-.58,0-1.62,1.26-1.78,2.07a21.84,21.84,0,0,0-.48,6.3c.21,1.91,1.15,3.75,2,6.47-.93.19-2.77,1.09-3.31.59-1.33-1.22-3-3.19-2.83-4.69.32-3.22-.22-5.52-3.15-7.08-2.68-1.42-4.11-.68-4.23,2.42a29,29,0,0,0,.48,3.4c.31,3.7-1.91,5.51-5.39,4.25-1.82-.66-3.24-1-4.78.75-.67.76-2.28.69-3.54,1-.47,3.62,2.18,4.88,4.68,5.58,2.79.78,5.8.78,8.72,1.07,2.67.26,5.43.08,8,.73,5.13,1.31,7.47,4.48,7.34,9.78-.06,2.26.57,3.39,2.64,4.38,10,4.8,12,13.45,5.16,22.37-2.2,2.84-2.67,4.79-.55,8,3.19,4.75,2.26,9.5-2.3,13.33-2.85,2.4-2.86,4.51-.62,7.13,3,3.55,3.06,7.17.92,11.36a16.69,16.69,0,0,0-1.43,8c.12,2.85,1.62,4.6,5.22,3.53,3.86-1.15,5.52.28,8.41,6-9.72,3.68-15.61-.42-19.1-13.6l-2.54,4.45-.94-.73c1.38-2,2.81-4,4.13-6,3.93-6,3-9.66-3.65-13.48-3.65,4.34-7.84,4.39-12.57,1.54-2.82-1.7-6,0-6.38,3.34s-.71,6.89-.78,10.35c-.07,3.61,1.79,6.31,4.71,8.34,12.39,8.59,19.34,21.16,25.6,34.79h-95.44c.7-4.67,1.24-9.33,2.14-13.92.84-4.26-.25-7.19-4-9.82-9.61-6.82-18.83-14.2-28.41-21.05-6.45-4.61-13.18-8.83-19.92-13-5.65-3.52-9.18-7.77-10.74-14.83C7169.07,7270.45,7168.36,7261.94,7172.41,7252.34ZM7340.08,7174c1.43-6.3,2.69-7.54,8.2-8.84,1.87-.44,3.78-.77,5.61-1.34,5.16-1.6,6.3-5.45,2.39-9.09a7.55,7.55,0,0,0-5.89-1.74c-5.35,1.26-10.56.92-15.85.1-.45-.07-.94.14-.6.08l-4.6,10.94c-1.69-3.45-2.56-6.17-4.23-8.23-.84-1-3.15-.88-4.8-1.26-.11,1.46-.69,3.07-.26,4.35,1.84,5.45,6.07,8.23,11.59,8.59C7335.67,7167.78,7338.5,7169.18,7340.08,7174Zm3,28c3.9-5.13,5.42-5.29,11-1.32a11.24,11.24,0,0,0,2,1l7.16,3.13c-4.88,3.32-8.55,2.75-12.23-.49-2.36-2.08-2.75-1.8-3.11.86,1.37.8,3.09,1.24,3.81,2.34,2,3.05,4.23,4.2,7.66,1.42.89,1.08,1.5,2.56,2.38,2.74,2,.41,4.36.78,6.06,0,1.46-.65,2.2-2.91,3.26-4.45-1.61-1.05-3.09-2.62-4.85-3.07-6.9-1.75-7.94-2.93-7.83-10.32,0-3-.64-5.67-4.36-5.27-4.81.52-9-.3-11.78-3.9l-5.46,13.9Zm-149.6-31.83c-7.78-5.1-7.8-5.11-12.19,2.54-1.46,2.55-3.58,2.36-6.92,1.58l9.21-12.32c-4.53-2-8.77-.62-12.07,3.28-2.7,3.19-2.91,6.2-.53,9.83,2.56,3.91,6.5,4.12,10.58,3.63C7187,7178,7191.86,7176.47,7193.5,7170.09Zm97.39-58.25c4.14-1.4,5.4-4.07,6-7.36,1.3-6.61,1.36-6.59,7.34-3.36.17.09.46,0,.69-.05,2.68-4.26,2.28-4.44-1.64-6.71a20.84,20.84,0,0,1-7.09-7c-1.84-3.06-3.8-4.09-7.59-3.18C7293.65,7092.88,7297.45,7101.61,7290.89,7111.83Zm-9.07-.26c4.19-5.22,7.71-10.21,5.79-17.11-.89-3.22-2.81-3.89-5.62-2-2.43,1.6-4.58,6.8-3.71,9.52C7279.27,7105,7280.51,7108,7281.82,7111.58Zm-95.76,90.19c4.27,1.36,8,.86,10.31-2,4.86-6,3.94-13.43,3.75-20.71a13.72,13.72,0,0,0-3.49,5.77C7194.78,7191.37,7191.86,7197.17,7186.06,7201.77Zm45.18-118.65c-1,1.85-2.23,3.77-3.22,5.78a3,3,0,0,0-.22,2.35c1.73,3.15,3.64,6.21,5.32,9,1.06-2.7,2.42-5.8,3.46-9a4.19,4.19,0,0,0-.32-3.4A48,48,0,0,0,7231.24,7083.12Zm84.32,181.71c2.79-.38,4.87-.09,6.09-1,1.57-1.14,2.56-3.15,3.59-4.91,1.15-2-.15-6.88-2.17-7.8a2.77,2.77,0,0,0-2.57.9C7318.88,7255.78,7317.53,7259.62,7315.56,7264.83Zm-54-185.69c-3.37-1.37-6.05-3.21-8.76-3.23-1.17,0-2.9,3.58-3.42,5.76s-.59,4.9,2.43,6ZM7331,7199c2.06-4.29.78-10.67-3.28-12.73l-.51,5.72-8.2,4Zm-18.35,82.57,7.34,4.31c4.2-5,4.11-7.67-.28-10.73Zm-124.19-158.39,6.28-9.4c-2.74-.76-6.25-2.45-6.82-1.75-1.56,1.91-2.23,4.79-2.5,7.37C7185.27,7120.42,7187.14,7121.65,7188.43,7123.17Zm7.2,38.49c-.46-2-.79-3.82-1.29-5.59-1.41-5-2.11-5.26-6.36-2.86l2.07,8.44ZM7302,7194.23l-4.42-4.91c-1.28,1.29-3.72,2.74-3.58,3.85.22,1.65,2.08,3.33,3.65,4.38C7298.08,7197.83,7300,7195.8,7302,7194.23Zm-122.79-58.07a48.65,48.65,0,0,0,4.64,3.85,4.1,4.1,0,0,0,3.05.42c.41-.12.76-1.81.51-2.6-.73-2.31-1.77-4.52-2.67-6.73Zm31.51-33.27c.79-3.12,3.1-5.56.72-8.06-.67-.7-3.88-.41-4.32.35C7205.25,7098.5,7207.73,7100.48,7210.74,7102.89ZM7313.33,7115l-.71.89v9.19l5.1-2.77ZM7294,7215.59c-1.44-1.13-2.3-2.31-3.21-2.36-.69,0-2.15,1.53-2,2.11a3.59,3.59,0,0,0,2.29,2.22C7291.61,7217.73,7292.58,7216.56,7294,7215.59Zm-95-118.37,1.5-.35.8-5-3.87,1.32Z" transform="translate(-7148.4 -7039.12)"/></svg>