<svg id="Calque_1" data-name="Calque 1" xmlns="http://www.w3.org/2000/svg" viewBox="0 0 195.49 313.01"><title>19</title><path d="M7307.21,7340.58l-2.71,2.53,7.78,2.81-12.2,1.3,2.43,4.53c-5-1.26-9.59-2.36-14.13-3.58-3-.8-5.94-1.65-8.82-2.73-2.12-.8-3.2-1.93-2.26-4.81a31.83,31.83,0,0,0,1.16-10.2c-.1-7.15-.35-14.31-1-21.44-1-11.66-1.86-23.37-3.67-34.91-.88-5.6-1.51-10.9,0-16.37.56-2,.1-3.45-2.29-4.17-15.46-4.6-31-8.93-47.05-10.84-1.88-.22-4.5-1.33-5.17-2.76s.16-4.24,1.31-5.68c7.61-9.54,15.48-18.87,23.27-28.28,1.34-1.62,3-3.08,3.94-4.9a30.34,30.34,0,0,0,2-6.33c.22-.81,0-1.72.18-2.56.8-4.93-1.58-9.23-6.28-10.81-7.22-2.42-14.54-4.54-21.73-7-9.25-3.21-17.18-1.43-24,5.59-2,2-4.13,3.78-6.79,6.2.6-7.14,5.62-10.85,8.88-15.71-4.1.12-9.68,4.37-13.46,10.49-3,4.89-5.71,10-8.54,15l-1.41-.56c.57-3.77,1-7.56,1.72-11.3,4.39-23.08,16.73-40.8,35.57-54.71,22.21-16.39,47-22.13,74-19.59a60.94,60.94,0,0,1,32.19,13c5.43,4.23,8.57,10.11,10.68,16.57.57,1.76,1.22,3.49,1.91,5.21,1.93,4.86,5.32,7.34,9,6.67,3.53-.64,6.82-5,7-9.47.23-8.11-3.21-15-8.28-20.84-7.2-8.3-14.93-16.15-22.48-24.14-5.76-6.09-10.63-12.83-12.3-21.13-3.48-17.32,1.07-32.79,22-36.44a25.43,25.43,0,0,1,19.31,4.43c4.62,3.16,10.14,5,15.13,7.63,2.67,1.43,5.5,3,7.45,5.26a10.53,10.53,0,0,1,2,10.76c-1,3-1.55,6.21-2.51,9.26-.29.93-1.45,2.39-1.93,2.29a5.3,5.3,0,0,1-3.18-2,10.47,10.47,0,0,1-1.33-4.56c-.35-4.47-2.69-7.62-6.77-8.8-7.08-2-14.32-3.53-21.5-5.21-1.07-.25-2.21-.24-3.27-.51-8.27-2.11-12.69,1-13.64,9.63-.76,6.94,1.05,13.13,6.26,17.82,7.42,6.67,15.26,12.87,22.71,19.51,8.45,7.52,16.11,15.77,20.09,26.65,6.5,17.77.73,35.65-15.3,46.95-11.88,8.38-24.33,15.53-39.35,16.77-5.68.47-10.55,3.14-14.77,7.09a79.7,79.7,0,0,1-7.71,5.74,9.93,9.93,0,0,0-4.23,7.41c-1.25,11-2.74,22-4.34,33-.44,3,.47,4,3.36,4.79a147.38,147.38,0,0,1,18.48,6.35c5.18,2.23,7.64,7,7.93,12.48.34,6.38.08,12.8.08,19.2l-1.09.44c-.72-1.7-1.77-3.35-2.11-5.12-1.15-6.09-1.07-6.11-7.72-5.65.25-1.73.43-3.38.74-5,1.33-7.17-1.59-12.75-8.29-15.5-2.62-1.07-5.34-1.91-8-2.78-3.93-1.28-4.69-.83-4.55,3.28.47,13.29,1,26.57,1.63,39.85.48,9.86,1.47,19.69,1.75,29.55.24,8.46,4.92,10.82,12.76,10.3,3.78-.25,7.57-.43,11.35-.64Zm-32.69-90.15c.3-.41.55-.59.58-.8,1.74-12.1,3.5-24.2,5.15-36.32.42-3.07-1-5.44-3.39-7.4a38.33,38.33,0,0,1-4.71-4.6c-3.29-3.86-8-4.75-12.25-1.94a22.55,22.55,0,0,0-4.81,4q-12.16,14.22-24.1,28.63c-2.88,3.48-2.26,5.18,2.12,6.56,8.13,2.55,16.25,5.11,24.43,7.48C7263.19,7247.68,7268.93,7249,7274.53,7250.42Z" transform="translate(-7176.72 -7038.74)"/></svg>