<svg id="Calque_1" data-name="Calque 1" xmlns="http://www.w3.org/2000/svg" viewBox="0 0 551.4 263.63"><title>2</title><path d="M7300.74,7203.19c-6.25-3.88-12.3-7.69-18.43-11.37a5.75,5.75,0,0,0-3.31-.63,93.42,93.42,0,0,1-16.87.61,42.62,42.62,0,0,1-15.3-4.1l-.74-.33c-1.5,3-3.08,5.89-4.43,8.9-1.55,3.45-2.9,7-4.35,10.5a39.61,39.61,0,0,1-18,20.21c-10.23,5.59-20.64,10.85-31,16.25-.6.31-1.21.62-1.79,1a4.61,4.61,0,0,0-2.35,4.87c.31,2.37.78,4.73,1,7.11a7.73,7.73,0,0,1-.34,3.07,9.64,9.64,0,0,0,1.9,9.88c3.56,4,6,8.74,8.67,13.34a14.82,14.82,0,0,0,6.66,6.45c3.26,1.52,6.5,3.05,9.75,4.59.58.27,1.15.56,1.71.86a7.8,7.8,0,0,1,4.37,7.54c0,.76-.08,1.51-.13,2.52-.62-.41-1.09-.74-1.57-1.05-2.63-1.69-5.54-2.21-8.14-.44a17.44,17.44,0,0,1-10,2.73c-1.32,0-1.68.47-1.62,1.76.11,2.27.05,4.56,0,6.84,0,.36-.25,1-.48,1a1.49,1.49,0,0,1-1.21-.35,9.46,9.46,0,0,0-8.6-3.05c-5.12.71-8.36-1.24-10.64-5.76a52.11,52.11,0,0,0-5.19-7.75,5.05,5.05,0,0,0-8.43.39,6.41,6.41,0,0,0-1.26,4.6,8.33,8.33,0,0,1-3.79,8.39c-1.79,1.27-3.7,2.37-5.61,3.45a2.38,2.38,0,0,1-3.33-1.06c-1.06-2-2.19-4-3.14-6.06a11.1,11.1,0,0,1,.18-10.15,20.77,20.77,0,0,0,1.68-14.13,16.64,16.64,0,0,1,.76-9.87c1.14-2.85,2.43-5.64,3.64-8.47,2-4.72,2.59-9.78,3.42-14.78,1.34-8.12,3.69-15.89,8.78-22.54a39.37,39.37,0,0,1,5.62-6,19,19,0,0,0,6.21-9.74c2.36-8.76,7.89-14.71,16-18.49a7.55,7.55,0,0,0,4.72-7.25c.09-3.1.66-6.18,1-9.46-1.06-.44-2.23-1-3.46-1.42a70.32,70.32,0,0,1-23.89-13.86c-7.51-6.52-16.29-11-25.49-14.54-10.61-4.11-21.34-7.9-31.95-12-17.12-6.64-33.72-14.4-49.12-24.5-5.45-3.57-10.56-7.66-16.06-11.13-10.3-6.51-20.8-12.72-32.38-16.76a73,73,0,0,0-10.7-3,33.69,33.69,0,0,0-15.87,1.31c-4.09,1.23-8.1,2.7-12.17,4-1.71.55-3.47.93-5.21,1.39s-1.8.48-2.71-1.08a54.94,54.94,0,0,1,21.32-17.21,48.18,48.18,0,0,1,22.07-4.67c9.48.24,18.29,3.06,26.76,7.15q19.25,9.3,38.56,18.48a78.24,78.24,0,0,0,26.39,7.05c13.56,1.25,27.16,2.16,40.76,3,14.29.92,28.6,1.06,42.92.86,8-.11,16-.41,24-.48a37.75,37.75,0,0,0,12.69-2.7,212.73,212.73,0,0,1,48.1-11.62c4.6-.55,9.24-.78,13.86-1.1,6.14-.41,12.06-1.92,18-3.45a175.09,175.09,0,0,1,32.07-5.54,98,98,0,0,1,23.42,1,27.28,27.28,0,0,1,6.6,2.43c6,2.78,12,5.55,18.38,7.14,11,2.71,20.89.57,29.23-7.06a112.82,112.82,0,0,1,19-13.73,24.87,24.87,0,0,1,6.58-2.77,17.56,17.56,0,0,1,17.06,4.57,37,37,0,0,0,13.12,7.93,30.19,30.19,0,0,1,4.32,2,8.35,8.35,0,0,1,3.65,4.13c2.37,5.43,6.49,9.36,11.39,12.49a157,157,0,0,0,21.67,12,23.35,23.35,0,0,1,3.44,1.94c5.26,3.45,7.11,7.46,5.56,13.53-1.72,6.72-3.89,13.33-5.93,20a5,5,0,0,1-3.26,3,1.54,1.54,0,0,1-.93,0c-4.57-1.28-6-.81-8.91,3-.11.15-.24.29-.43.52l-1.68-4.19-6.87,7.84c-.93-.15-1.18-.65-1.22-1.5-.19-3.79-.43-7.58-.71-11.37,0-.39-.34-1-.58-1.07a1.61,1.61,0,0,0-1.21.54c-1.82,2.13-3.58,4.3-5.36,6.46-.14.18-.31.33-.64.68-.13-2.39-.21-4.56-.37-6.73a6,6,0,0,0-.47-1.41h-.36l-2.9,4.81-3-5c-.45.29-.86.59-1.29.83-1.19.64-1.87.32-2.19-1l0-.12c-.18-.7-.16-1.65-.61-2s-1.37-.15-2.08-.15c-1.64,0-3.28,0-4.92.06a2.57,2.57,0,0,0-2.66,1.78c-.94,2.54-2.17,5-3,7.55a7.57,7.57,0,0,0,1.25,6.62c1.14,1.69,2.36,3.33,3.53,5a7.87,7.87,0,0,0,7.3,3.63l-1.34,2.63,4.91,1.35-4.42,6.82,10.7-.86-3.51,6.39,5.86-2.28a12.73,12.73,0,0,1,0,2.91q-1.23,4.81-2.71,9.56a5.08,5.08,0,0,1-1.38,2.19c-4.94,4.42-10.56,7.18-17.39,6.69a25.7,25.7,0,0,1-10.55-3.3c-4.52-2.47-8.8-5.31-11.74-9.65a23.42,23.42,0,0,1-3.15-6.27A40,40,0,0,0,7424,7158c-2.25-2.27-4.66-4.38-7-6.59a5.8,5.8,0,0,0-6.84-1.2c-4.22,1.81-8.45,3.59-12.63,5.48a9,9,0,0,0-4.87,5.4,25.08,25.08,0,0,0-1.8,7.77,20.62,20.62,0,0,0,3.41,11.92,102.92,102.92,0,0,0,6.4,9c4,5,5.4,10.78,5.21,17a22.5,22.5,0,0,1-2.81,10.55,7.93,7.93,0,0,1-3.91,3.55L7394,7223c-.91-.75-1.14-1.5-.29-2.5.72-.85,1.28-1.82,2-2.87l-4-2.11,5-2.85c-.53-.36-.86-.77-1.24-.82-1.74-.23-3.49-.36-5.46-.55a9.82,9.82,0,0,1,.81-.61c1.1-.65,2.25-1.22,3.31-1.93a6.32,6.32,0,0,0,.25-10.69c-2.38-1.75-4.92-3.3-7.23-5.13a83.25,83.25,0,0,1-6.59-5.91,18.39,18.39,0,0,1-5.5-12.66c-.05-1.06-.26-2.11-.41-3.25l-23.89,3.14a1.62,1.62,0,0,0,.48,2.27c3.16,2.89,6.09,6.09,9.92,8.08,7.17,3.71,13.34,8.77,19.47,13.91a5.69,5.69,0,0,1,2,3.53c.27,1.53.51,3.06.81,4.84l-9.7-8.09v14.69l-8.29-9.12-8.14,7.32c.22-1.89.45-3.44.57-5,.19-2.42.43-4.85.4-7.27a7.05,7.05,0,0,0-2.91-5.44c-1.55-1.25-3.23-2.34-4.88-3.46-1.42-1-2.89-1.85-4.52-2.89-.36,1.94-.83,3.78-1,5.65-1.28,12.49-6.39,23.57-12.56,34.27-3,5.23-6.12,10.39-9.12,15.63a25.82,25.82,0,0,0-2.83,8.35c-.53,2.94-1.52,5.79-2.14,8.71-1.46,6.88-.5,13.29,4.13,18.84a26.53,26.53,0,0,0,9.8,6.93,43.3,43.3,0,0,1,6.66,3.5,35.76,35.76,0,0,0,16.93,6.17,18.27,18.27,0,0,1,12.29,6.72c1.6,1.84,3.23,3.67,4.67,5.63a4,4,0,0,1,.7,2.66c-.27,2.07-.84,4.1-1.35,6.38l-1.09-1.15a7,7,0,0,0-8-2c-1.65.6-3.22,1.42-4.89,1.94a31.15,31.15,0,0,1-5.69,1.31c-3.92.43-7.07-1.2-9.63-4.11l-1.1-1.25-.9,13.29-1.44.3c-.12-.11-.16-.13-.18-.17-1.69-4-4-5.18-8.7-4.13a11.06,11.06,0,0,1-6.56-.53c-1.42-.54-2.84-1.08-4.27-1.58a15.19,15.19,0,0,1-9.15-8.78c-.72-1.64-1.31-3.34-2-5a6.11,6.11,0,0,0-.33-.9c-1.64-2.79-3-3.18-5.06-.94a24.4,24.4,0,0,0-2.6,3.85c-.63,1.05-1.13,2.18-1.67,3.25-2-.31-2-.31-1.94-2.12.21-3.86.37-7.74.78-11.58a11.17,11.17,0,0,0-3.91-10.16,55,55,0,0,1-5.22-5.44,13.06,13.06,0,0,1-2-15,79.16,79.16,0,0,0,6.13-17.22,57.44,57.44,0,0,0,.95-17.64c-.93-9.38.55-18.24,6-26.18A12.54,12.54,0,0,0,7300.74,7203.19Z" transform="translate(-6967.89 -7061.83)"/></svg>