<svg id="Calque_1" data-name="Calque 1" xmlns="http://www.w3.org/2000/svg" viewBox="0 0 1249.39 409.68"><title>20</title><path d="M6987.37,6990.5c-.05,5.37-.23,10.75-.06,16.12,0,1.45,1.09,2.9,1.82,4.27a4.13,4.13,0,0,1-.68,4.08c1.34,1.61,1.35,3.61,0,4.76,1.06,1.53,1.69,3,.19,4.73-.27.32.3,1.93.9,2.33a14,14,0,0,1,5.54,7.23c.63,1.89,1.49,4.17,0,6.28a2.5,2.5,0,0,0,1.31,3.65c.87,3.39-1.43,5.88-2.45,8.73a9.91,9.91,0,0,0-.74,3.6q1.42,34.83,3,69.66c.83,18.47,1.53,37,2.68,55.41a436.73,436.73,0,0,0,5.48,47.33c.18,1,.34,1.64,1.67,1.75,1.73.15,3.28,4.24,2.34,5.73a1.38,1.38,0,0,1-.58.43c-2,.94-2.63,1.92-2.2,4.07,1.79,8.74,3.46,17.5,5.51,26.18,1.94,8.25,4.33,16.38,6.43,24.59.39,1.54,1.09,2,2.62,1.9,1.75-.14,3.53,0,5.26,0,.28,1.54.28,1.54-1.54,2.06V7300c3.29.73,3.29.73,2.93,5.11l-1.57.38-.7,4.09-.7,0c3.39,6.93,6.75,13.88,10.17,20.79,2.95,6,6,11.85,8.93,17.82a2.3,2.3,0,0,0,2.63,1.56,13.38,13.38,0,0,1,1.71,0c3.12,0,4.6,1.42,4.65,4.63.05,3.41,0,6.83,0,10.29,1.12.41,1.71.38,1.8-1,.15-2.18.51-4.35.66-6.53a5.27,5.27,0,0,0-.61-1.77l2.78-.24c0-.81,0-1.55,0-2.29,0-11.57-.09-23.15-.09-34.72,0-2.28.38-4.56.3-6.82a10,10,0,0,1,.25-2.79,2.5,2.5,0,0,0-1.88-2.92c-2.32-.53-2.68-2.47-3.05-4-.46-1.91-.11-4-.11-6.31h2.13c5.7,0,11.4,0,17.1,0a6.08,6.08,0,0,0,4-1.27q6-4.53,12.12-8.84a5.5,5.5,0,0,1,2.93-1c8.49-.07,17,0,25.46,0H7118c-.14-4.15,1.29-8.43-3-11.62,2.83.61,3.58-1.58,4.05-3.06s-.14-3.41-.3-5.53a5.08,5.08,0,0,0,1.66-4.08c.09-6.4.27-12.79.3-19.19a41.06,41.06,0,0,0-.71-5.41c.23-.67,1.2-2,.86-2.82-.45-1.07-1.91-1.72-3.19-2.76,1.77-.18,3.6.14,3.93-2.21l-1.24-1.61h11.8c0-2.59,0-4.91,0-7.23s-.7-4.75-.21-6.93c.44-2-.1-2.73-1.54-3.54-.15-.09-.08-.59-.11-1l1.92-.24c.49-2.1,1.1-4.24,1.47-6.41,2.16-12.38,8.68-21.71,19.62-27.85a4.49,4.49,0,0,0,2.45-3.4c.11-.73-.83-1.61-1.29-2.41l1.49-2.43,2.89-.17-.46-.4a13.35,13.35,0,0,0,.66-2.28c.24-2.12.39-4.25.52-6.38a14.7,14.7,0,0,0-.06-2.88,32.72,32.72,0,0,0-.76-3.2c.26-.28,1.08-.74,1.16-1.31.37-2.6,1.95-4.44,3.49-6.36s1.69-4.38,2-6.86l-1.75-.27c1-.25,2.22-.2,1.44-1.84l1.58,1.88-1.36.23a13.07,13.07,0,0,1,.82,3.43c-.11,2.61,1.75,4,3.09,5.72a17.32,17.32,0,0,1,1.39,3.28c.38.81.89,1.55,1.22,2.12a36.5,36.5,0,0,0-.53,5.91c.16,2.48-.93,5.17,1,7.45.17.2-.32,1-.59,1.71l3.22.24,1.37,2.64c.07-.13,0,.08-.11.19-1.85,1.69-1.6,3.78.65,5a38.43,38.43,0,0,1,19.68,25.72c.72,3,1.25,6,1.86,8.94l2.52.22c-.65.7-1.07,1.1-1.43,1.55s-1,.95-1,1.43c0,4.95.05,9.9.11,14.85a3.7,3.7,0,0,0,.2.72h11.45l-1.23,1.81c.28,2.35,2.14,2,3.95,2.1-1.27,1.09-2.69,1.8-3.2,2.92-.33.74.64,2.07.88,2.72a42.34,42.34,0,0,0-.64,5.29c0,6.52.2,13,.32,19.57a4.8,4.8,0,0,0,2.1,4.15c-2.22,3.52-.74,7.81,3,8.26-.18.35-.25.78-.5.94-2.5,1.62-2.29,4.15-2.29,6.61,0,1.26,0,2.52,0,4h2.17c8.36,0,16.72-.05,25.08.06a7.23,7.23,0,0,1,3.78,1.22c4.17,2.87,8.19,6,12.33,8.88a5.19,5.19,0,0,0,2.76.89c5.89.08,11.78,0,17.67,0h2.28c-.25,3,.91,6.06-1.17,8.68a8.89,8.89,0,0,1-1.9,1.53c-1.1.78-2.24,1.54-2.06,3.11.12,1,.48,2.08.51,3.12.07,2.29,0,4.58,0,6.87q0,17.28.09,34.57c0,.62,0,1.24,0,2l2.23.21.25,4.73h4l.35-3.89h6.81v8.46h2.41c.09-.52.2-1,.24-1.47.35-4.4,0-8.82.5-13.24s.57-9,.67-13.57,0-9,0-13.49c0-.51,0-1,0-1.52-.15-3.31-.94-4.13-4.18-4.31-1.57-.08-3.13-.14-4.8-.22-.13-2.48-.33-4.81-.34-7.13,0-1.49.54-1.56,2-.94a17,17,0,0,0,3.32.54c1.25.25,1.7-.78,2.53-1.27,2.12-1.26,1.36-2.39.58-3.91a25.05,25.05,0,0,1-1.53-4.27,3.53,3.53,0,0,1,1.15-3.94c.73-.62,2.08-.82,1.51-2.37-.08-.22.8-.8,1.2-1.17a42.86,42.86,0,0,1,3.22,5.07,4.65,4.65,0,0,1-.19,3c-.58,1.75-1.44,3.41-2.13,5.12a6.62,6.62,0,0,0-.22,1.53l2.18.65-.27,1.54c.17.14.26.28.35.28,2-.11,3.92-.31,5.88-.31a1.62,1.62,0,0,1,1.15,1.1,56.45,56.45,0,0,1-.3,6.25,1.57,1.57,0,0,1-1.18,1c-1.77,0-3.55-.07-5.31-.22a1.76,1.76,0,0,0-2.17,1.75,27.73,27.73,0,0,0-.31,3.38c.07,8.11.19,16.21.29,24.32a2.63,2.63,0,0,0,0,.76c1.74,5.26.71,10.72,1.16,16.08a8.59,8.59,0,0,0,.32,1,13.5,13.5,0,0,0,1.52-2.59c1.25-4.32,4.27-6.39,8.55-6.94a7.65,7.65,0,0,0,1-.3c0-3.79,0-7.59,0-11.38,0-4-.24-8.07-.09-12.1.37-9.71.95-19.42,1.35-29.13.12-2.88-.2-5.79,0-8.67a24.41,24.41,0,0,1,1.1-4.61l.59,1,.88-.57c0-2.11,0-4.23,0-6.34,0-.38-.23-.91-.05-1.1,1.88-2.14,1.47-4.82,1-7.07-.67-3.32.48-6.45.22-9.67-.19-2.36,0-4.75-.15-7.11,0-.57-.78-1.1-1.21-1.65l1.15-.41c.7-1.14-.17-3.48-1.05-3.76l.32-5.78,3.22,1.71c.29-2.59.69-4.62.71-6.65.08-6.46,0-12.92,0-19.38a21.59,21.59,0,0,0-.2-3.86c-.1-.55-.83-1-.75-1.33.42-1.53.9-3,1.23-4.58.27-1.23.54-2.27,1.87-1.83.41-2.66.68-5.41,1.33-8.07.16-.66,1.51-1,2.46-1.64l2.6-6.08,2.39,6.95c.9,0,2.09,0,3.28,0q8.73-.12,17.45-.26c1.94,0,2.18.38,2.27,2.33a7,7,0,0,0,1.24,2.61c.4.74.87,1.45,1.23,2.07-1.69,1.1.38,2.89-.46,4.25l.67.16.87-3,1.35,8.48c-.34.55-1,1.11-1,1.68-.06,8.74,0,17.48,0,26.22a3.06,3.06,0,0,0,.17.65h10.73l1.32-24.07h.31l1.35,24.11h10.8c0-.61.12-1.16.12-1.71q0-12.35,0-24.7c0-.94.24-2.05-1.1-1.91l1.36-8.59.91,2.79.35,0a30.45,30.45,0,0,0,.58-3.5c0-.31-.64-.66-.74-.75a11.86,11.86,0,0,0,1.24-2c.53-1.31,1.74-2.44,1.26-4.13a4.69,4.69,0,0,1,2.18-.88c6.33,0,12.65.11,19,.19h1.84l2.35-6.92,2.74,6.28c.62.28,1.85.44,2.2,1.08a11.57,11.57,0,0,1,1.24,4.18,25.9,25.9,0,0,1-.17,4.29c1.71-.43,2.18.45,2.28,1.87.11,1.6.12,3.27,1.31,4a23.9,23.9,0,0,0-1.05,4.7c-.11,7.16-.1,14.31,0,21.47a38.19,38.19,0,0,0,.88,5.37l3.41-1.57v5.71c-1.94.43-.52,2.53-1.32,3.86l1.28.34a7.24,7.24,0,0,0-1,2.32c-.1,3.52-.49,7.12.12,10.54s-.88,6.35-.2,9.52c.18.84.46,1.65.67,2.48a8,8,0,0,1,.39,1.76c0,2.13,0,4.26,0,7l1.48-1.37a2.6,2.6,0,0,1,.14.42c1.34,7.54.64,15.19,1.22,22.78.22,2.9.31,5.8.46,8.69l1.82.14c1.34.1,2.15-.14,2.19-1.85,0-1.87.68-3.71.82-5.59.11-1.52-.18-3.07-.17-4.61a13,13,0,0,1,.65-2.56l1,2.1a32.09,32.09,0,0,0,.43-3.64c0-7.41,3.47-13.21,8.56-18.18a4.37,4.37,0,0,0,1.63-3.92c-.13-1.33.39-2.72.39-4.09,0-2.36-.22-4.71-.25-7.07a4.36,4.36,0,0,1,.45-2.21c1.3-2.18,2.6-4.33,2.08-7.2.4.25.59.31.58.36-.07,2.31,1,4.18,1.88,6.23s.73,4.85.83,7.31c.12,2.74-.09,5.5.1,8.24.06.85.91,1.69,1.49,2.46,2.37,3.16,4.78,6.29,7.36,9.68-.41-1.51-.48-3.09-1.22-4.25-2-3.12-1.84-5.89.4-8.83.65-.85.64-2.3.67-3.48s-.55-2.51-.38-3.7c.36-2.47-.69-5.36,2.08-7.25.6-.41.81-1.61.92-2.49a45.15,45.15,0,0,1,9.67-23.36,23.66,23.66,0,0,1,4.07-4.23c2.27-1.68,3.61-4,5-6.29a5,5,0,0,0,.78-1.91c.38-4.28.67-8.56,1-12.84a1.75,1.75,0,0,0-.09-.75c-1.68-4.23.13-8,1.69-11.7.91-2.2,2.25-4.29,2-6.81a8.27,8.27,0,0,0-.8-2l1.07-1.23,1.45,1.51c-1.29-.08-1.52,1-1.22,2.18.56,2.12,1.35,4.19,2,6.29.91,3,2.15,6,2.51,9,.29,2.46-.59,5-.81,7.59a18,18,0,0,0,.33,3c.12,1.41.22,2.83.26,4.25a10.8,10.8,0,0,0,3.85,7.91c9.32,7.86,14.25,17.86,15.82,29.77.14,1,1,2,1.21,3a35,35,0,0,1,1,6c.11,2.27-.19,4.55-.25,6.83,0,.22.37.46.58.68a7,7,0,0,1,.54,8.39,19.09,19.09,0,0,0-1.51,4.3l.65.26a15.13,15.13,0,0,1,1-1.9c2-2.73,4.13-5.39,6.12-8.14a5.29,5.29,0,0,0,1.17-2.63c.11-3.19,0-6.38-.06-9.57-.05-2.4-.08-4.84,1.61-6.75,1.4-1.58.94-3.48,1.18-5.29.21.07.41.1.4.14,0,2.5,1.11,4.57,2.06,6.81.85,2,.62,4.51.72,6.8.12,2.8,0,5.6.16,8.4a3.62,3.62,0,0,0,1.25,2c5.29,5.1,8.87,11,8.86,18.62a32.63,32.63,0,0,0,.42,3.5l.82-1.73a5,5,0,0,1,1,4.85c-.79,3,.25,5.68.72,8.46.07.43,1,.89,1.67,1a6.69,6.69,0,0,0,2-.21l.94-1.23,1,1.68c.57.12,1.52.56,1.7-1a1.42,1.42,0,0,1,1.17-.25,5.41,5.41,0,0,1,1.07,1.35l.73-1.89.2-.52c1.77-.64,2.26.1,2.17,1.79-.23,4.41-.44,8.83-.53,13.25-.09,4.15,0,8.3,0,12.44,0,1.17.09,2,1.69,1.78l.26,4.61,2.94.25v.44l-2.58.54.62,4c-1.19,2.2-.24,4.66-.54,7,1.42.55,2,.21,2-1.23.09-3.86.14-3.85,3.8-4.9.55-.16,1.09-.34,1.65-.46,2-.43,4.07-.77,3.06-3.88.75.1,1.23.11,1.69.22,3.69.88,7.35,1.9,11.07,2.62,1.73.33,2.13,1.12,2,2.68a25.36,25.36,0,0,0,0,4.17c0,.42.58.81.89,1.21l.61-.3q0-.92,0-1.85c0-13.62,0-27.24-.08-40.85,0-1.42-1-2.82-1.55-4.34l1.43-.36a1.84,1.84,0,0,0,.17-.53c0-9,0-18,0-27a4.89,4.89,0,0,0-.75-2.07c-1-1.87-2-3.73-3.1-5.55-.22-.37-.77-.54-1.06-.72v-3.27h4.9c0-2.42.17-4.7,0-6.93s-.83-4.35-1.29-6.66c.23,0,.89.12,1.27-.15.63-.45,1.41-1.11,1.52-1.78.22-1.35,1.2-2.3,2.22-1.53,2.13,1.62,4.54.33,6.75.91.27.07.67-.52,1.06-.64.56-.18,1.42-.52,1.72-.28,2,1.72,4.44.2,6.56.91.22.07.58-.41.92-.53.55-.2,1.4-.65,1.67-.43,2.08,1.71,4.52.44,6.73.93.26.06.59-.41.93-.51.62-.19,1.54-.63,1.84-.37,2,1.69,4.43.27,6.57.89.22.06.57-.44.9-.56.56-.2,1.41-.62,1.69-.39,2.08,1.73,4.53.39,6.73.93.25.06.58-.43.92-.53.62-.19,1.53-.6,1.85-.35,2,1.61,4.33.33,6.42.89.27.07.67-.49,1.06-.62.56-.19,1.42-.56,1.71-.31,2.09,1.71,4.53.44,6.76.88.78.15,1.73-.84,2.6-.85s1.8,1,2.56.79c1.72-.38,3.66,1,5.23-.69a1.62,1.62,0,0,1,1.58-.12c2,1.7,4.42.3,6.56.91.23.06.57-.46.91-.56.61-.19,1.54-.59,1.85-.33,2,1.64,4.34.23,6.42.9.25.08.66-.5,1-.63.56-.19,1.41-.55,1.7-.31,2.07,1.69,4.51.33,6.69.91.23.06.58-.47.91-.55a4.43,4.43,0,0,1,2-.22c.28.07.52,1.07.43,1.59-.42,2.58,1.75,1.23,2.43,1.69a63.48,63.48,0,0,0-1.35,6.57c-.23,2.24-.05,4.53-.05,7h5.05l-.28,3.15c-.28.46-.64,1.11-1,1.73-1,1.55-2,3.07-2.93,4.64a4.5,4.5,0,0,0-.78,2.06c-.06,5.83,0,11.65,0,17.48a3.93,3.93,0,0,0,.12.7c2.57.44,2.93.23,2.92-2.17,0-1.83,1.17-2.83,2.42-3.72.3-.21,1.35.18,1.71.6a9.65,9.65,0,0,1,1,2.51l.19-2.4c.18.26.31.37.31.47.05,2.48.84,3.15,3.12,2.66.25-.05.67-.18.73-.08,1.14,1.74,1.77-.12,2.61,0a6.38,6.38,0,0,0,2.16.39c2.46-.45,2.45-.51,2.71,1.84a6.34,6.34,0,0,0,.89.13c1.83,0,3.66,0,5.6,0l.36-2c1.52-.23,3.08-.59,3,1.9h14.33l.6-3.31.62-.23c.41.76.8,1.53,1.24,2.28.3.5.66,1,1,1.44a32.64,32.64,0,0,1,2.52,3.52c1.63,3.05,4.25,3.85,7.43,3.58l2.66-.24c1.14,2.58,2.17,4.92,3.2,7.27a3.64,3.64,0,0,1,.47,1.42,15.37,15.37,0,0,0,3.08,9.21c-1.36,1.4-2.19,2.54-2,4.88.37,5-.34,10.11-.33,15.17,0,2.18.75,4.34,1.08,6.53.07.46-.35,1-.37,1.46-.06,1.19,0,2.39,0,3.73H7760c-.46-2.91.87-5.92-.75-8.52l1-4.8.53-.14a18.65,18.65,0,0,0,1.36-2.42,9.24,9.24,0,0,0,.76-3q.34-30.12.59-60.23c0-4.37.13-8.74.1-13.11a6.34,6.34,0,0,0-.83-2.1,4.12,4.12,0,0,1-.53-1.28c-.06-2,0-4,0-6.08l1.62-.33a27.72,27.72,0,0,1,.86-4.19,8.18,8.18,0,0,1,1.79-2.54c1-1.06,1.81-1.92.7-3.51s-.55-4.65.65-6.19a8.08,8.08,0,0,0,.79-1.9c2.45,3.15,2.31,6.26.54,9.61,1.86,2.54,5,4.64,3.69,8.63l1.82.38c.16,1.78.35,3.46.45,5.15.05,1,.26,2-1,2.56-.38.18-.41,1.36-.4,2.08q.18,22.33.41,44.65c.1,9.69.18,19.38.38,29.07,0,.89.85,1.76,1.23,2.66.27.63.41,1.3.65,2.07l1,.21-.49.29c.46,1.19.93,2.38,1.37,3.58.1.27.19.72,0,.88-2.28,2.56-.49,5.58-1.24,8.5h10.54a40.13,40.13,0,0,1-.49-4.61,20.65,20.65,0,0,1,.62-3.47,18.33,18.33,0,0,0,.45-2.94c.05-4,0-8,0-11.94a35.13,35.13,0,0,0-.25-5.9c-.19-1-1.2-1.94-1.87-2.94.82-1.85,1.72-3.87,2.61-5.88a1.44,1.44,0,0,0,.19-.72c-.48-3.06,1.29-5.44,2.39-8,.41-1,.64-2,1-3.23.77.06,1.63.11,2.49.2,3.38.37,6.15-.38,8-3.63.75-1.35,2.08-2.38,3.08-3.61.24-.3.17-.83.34-1.21.36-.78.78-1.52,1.18-2.28l.7.21.52,3.21h14.37c-.13-2.2,1.31-2.13,3-1.85l.36,1.86h6.49c.35-2.65.69-2.78,4.19-1.52l.48-1.19a4.47,4.47,0,0,0,.41.34c.45.29,1.11.93,1.34.81,1.33-.73,2.71-.58,4.11-.62.27,0,.62-.85.75-1.36a5,5,0,0,1,.35-1.6v1.87c.41-.52.61-.76.8-1,.54-.73.44-2.58,1.87-1.81a5.81,5.81,0,0,1,2.57,3.18c.79,2.73.67,2.5,3.64,3.19,1.52.35,2.92,1.27,4.61,1,.37,0,.74,0,1.23-.07l.26-2c1.49-.13,3.09-.62,3,1.91h14.38l.6-3.16c1.36.14,2,.65,1.93,2,0,.44.51.92.83,1.36a40.14,40.14,0,0,1,2.77,3.78c1.53,2.71,3.88,3.56,6.78,3.4,1.18-.07,2.36-.18,3.22-.25.83,2,1.46,3.73,2.29,5.4a16.4,16.4,0,0,1,1.45,5.4c.31,2.36,1,4.83,2.91,6.59v.76c-.72.88-1.86,1.68-2.06,2.67a23.59,23.59,0,0,0-.23,5.81c.33,6-.83,12.13,1.09,18.14.64,2,0,4.38,0,6.58q0,15.2,0,30.4c0,.68,0,1.36,0,2.13h-1248a1.66,1.66,0,0,1-.14-.34q0-16.81-.1-33.63c0-1,.49-1.29,1.41-1.26,1.37,0,2.74,0,4.3,0,0-1.65-.06-3,0-4.41,0-.57.22-1.41.62-1.64,2.68-1.52,4.72-4.39,8.44-4,2-26.43.63-52.82,1.19-79.22h17.1v59.88h4V7258h26.84v77.51h4.67V7314.5h8v-51.74l3.36-.19V7254h2.76v8.77h12.68v27.7h11.05v39.4h4.89v18.94h3.19V7238.36H6871v110.39h3.57v-8.88h6.25V7247l2.38.11c0,4.82,0,9.44,0,14.06a2.17,2.17,0,0,0,1.44,2.31c4.28,2.05,8.48,4.26,12.77,6.29a2.56,2.56,0,0,1,1.66,2.75q-.19,26.6-.27,53.2c0,.74,0,1.48,0,2.43,2.61,0,5,0,7.39,0,.34,0,.9-.66.94-1.06.22-2.27.43-4.54.44-6.82,0-8.87,0-17.73,0-26.6,0-.68,0-1.35,0-2.08h16.92v63.23l.48.11c1.07-2.12,2.15-4.23,3.19-6.36,6.13-12.49,12.28-25,18.33-37.51a15.6,15.6,0,0,0,.89-4.21c.05-.31-.12-.91-.33-1-2.22-.76-.88-2.44-.84-3.64,0-.59,1-1.15,1.9-2v-4.78l-.42.29-1.45-1.77.41-.52a40.61,40.61,0,0,1,4.33,0c1.59.17,2.18-.46,2.55-2,2.68-10.87,5.55-21.69,8.14-32.58,1.42-6,2.47-12,3.6-18,.44-2.34-.11-3.18-2.28-4.2a1.31,1.31,0,0,1-.57-.45c-.92-1.59.64-5.5,2.43-5.69,1.32-.15,1.49-.79,1.63-1.82.37-2.69.84-5.38,1.23-8.07,2.41-16.55,3.92-33.19,4.78-49.89.57-11,.84-22,1.28-33q1.61-40.34,3.28-80.68a10.06,10.06,0,0,0-1.07-5.08c-1.24-2.5-3.06-4.9-2.18-8.08l1.49-.41c0-1,.36-2.16-.07-2.69-1-1.25-.48-2.41-.53-3.71-.16-3.89,1.85-6.38,4.58-8.6a15,15,0,0,0,2.43-2.1,2.18,2.18,0,0,0,.32-2c-1.4-1.9-1.43-3.12.22-4.53a3,3,0,0,1,0-4.83c-1.11-.86-1.8-3.4-.91-4,1.67-1.11.54-3.31,2-4.4l-.16-16.14ZM6837.6,7343.15v-62.92h-49v62.92Zm186.29,12.47c-.1-.51-.14-.88-.24-1.23-3.78-13.29-12.58-21.8-25.36-26.42-4.16-1.5-8.42-2.95-12.93-2.56a47.64,47.64,0,0,0-18.77,5.66,37.83,37.83,0,0,0-19.44,25,14.9,14.9,0,0,0-.22,1.57h1.7v-5.22h4.59v4.93h5.61l.24-3.48h7.16l.21-3.73h11.82v8.35h12.12V7354h12.51l.17-3.81h11V7360c1.56.5,2-.06,2-1.41-.07-2.28,0-4.56,0-6.84s.18-2.29,2.64-1.64v5.49Zm622,4.5c0-.94,0-1.68,0-2.43q0-12.15,0-24.31c0-2.53.05-5.05-1.63-7.26a2,2,0,0,1,.28-2c1.37-.88.84-2,.52-3-1.73-5.37-5.59-8.58-10.8-10.32-.94-.31-1.94-.84-2.94.24-.27.29-1.33-.14-2-.26a5.09,5.09,0,0,0-1.37-.3c-5.2.65-11.13,6.13-12.18,11.25-.16.78-.54,1.63.61,2.27a2.18,2.18,0,0,1,.34,2.1c-1.48,2.08-1.56,4.39-1.56,6.76q0,10.54,0,21.08c0,3-.06,6.08.06,9.11,0,.62.7,1.72,1.12,1.74,3.27.15,6.54.08,10,.08V7352h12.07v8.09Zm-645.17-66.86a236.67,236.67,0,0,1-6.93-41.12h-16.06l-6.74,41.12Zm167.22-67.33c0-3.19.08-6.21,0-9.23a2.54,2.54,0,0,0-2.76-2.54,2.56,2.56,0,0,0-2.86,2.46c-.16,3.06,0,6.14,0,9.31Zm11.32-.12c0-3,.06-6,0-8.95,0-1.28-.44-2.7-2.08-2.65s-1.83,1.43-1.9,2.64c-.11,1.95-.06,3.91-.06,5.86C7175.18,7226.47,7175.19,7226.47,7179.25,7225.82Zm-28.19.09h3.9c0-3.16.06-6.19,0-9.21,0-1.18-.61-2.5-2-2.27a3,3,0,0,0-1.82,2.16C7150.94,7219.65,7151.06,7222.74,7151.06,7225.91Zm-6.77,0c0-3.38.09-6.65-.07-9.91,0-.64-1-1.24-1.58-1.85-.58.57-1.64,1.13-1.67,1.73-.16,3.32-.08,6.66-.08,10Zm41.46.1a11.42,11.42,0,0,0,2.47,0c.46-.11,1.15-.65,1.16-1q.11-4.07,0-8.15c0-1.15-.45-2.57-1.85-2.32-.69.12-1.59,1.49-1.65,2.35C7185.63,7219.82,7185.76,7222.79,7185.76,7226Zm-18.84-63.79a57.9,57.9,0,0,0-.08-6.09,2.37,2.37,0,0,0-1.62-1.64,2.3,2.3,0,0,0-1.8,1.4,61.19,61.19,0,0,0-.09,6.33Zm207.3,93.27c-.44.38-.66.47-.7.62-1.23,4-.77,8.11-.47,12.19,0,.29.73.83,1,.75.41-.14,1-.64,1-1,0-3.53,0-7.07-.16-10.6A8.35,8.35,0,0,0,7374.22,7255.53Zm-14.31.2h-.56a4.77,4.77,0,0,0-.59,1.45c-.15,3.52-.28,7.05-.28,10.58,0,.47.69.94,1.07,1.42.38-.52,1.06-1,1.08-1.56.11-2.91.12-5.82,0-8.73A16.3,16.3,0,0,0,7359.91,7255.73Zm5.88,0-.64.07a5.77,5.77,0,0,0-.42,1.37c-.18,3.46-.36,6.91-.4,10.37a2,2,0,0,0,1,1.58c1.24.29,1.2-.88,1.21-1.62.06-2.78.11-5.57,0-8.35A18.63,18.63,0,0,0,7365.79,7255.7Zm-8.85.12-.76.05a15.77,15.77,0,0,0-.59,2.83c-.08,2.9-.1,5.81,0,8.71,0,.6.71,1.17,1.1,1.76.39-.6,1.09-1.18,1.12-1.79.12-2.71.15-5.43,0-8.14A16.65,16.65,0,0,0,7356.94,7255.82Zm14.4,0-.78.09a19.64,19.64,0,0,0-.55,3c-.08,2.77-.06,5.55,0,8.32,0,.78-.25,2.07,1.15,1.81.47-.09,1-1.13,1.08-1.76.12-2.71.15-5.42,0-8.13A15.8,15.8,0,0,0,7371.34,7255.84Zm-8.53,0-.48,0c-.17.25-.47.49-.48.74-.17,3.88-.32,7.76-.39,11.64,0,.31.86,1,1.07.86.45-.2,1-.76,1-1.19.11-2.52.17-5,0-7.56A34.27,34.27,0,0,0,7362.81,7255.83Zm5.93.32-.57-.12c-.23.4-.64.79-.66,1.19-.14,3.57-.25,7.14-.25,10.71,0,.41.66.81,1,1.22.35-.49,1-1,1-1.46q.15-4.25,0-8.5A18.23,18.23,0,0,0,7368.74,7256.15Zm-233.1-30.34c-.38-3.76.68-7.63-1.08-11.38a5.09,5.09,0,0,0-1,2.64c-.1,2.46,0,4.93-.07,7.39C7133.39,7226.06,7134.11,7226.29,7135.64,7225.82Zm60.2-11.32H7195a14.91,14.91,0,0,0-.54,2.61c-.08,2.45,0,4.91-.05,7.36,0,1.55.56,1.89,2.12,1.32C7196.15,7222,7197.14,7218.18,7195.84,7214.49Zm157.46,54.45.49.34c.33-.26,1-.52,1-.79.12-4.13.66-8.3-.95-12.35A100.45,100.45,0,0,0,7353.3,7268.95Zm23.18-11.93a38.38,38.38,0,0,0-.56,11.86h.56Z" transform="translate(-6650.1 -6990.5)"/></svg>