<svg id="Calque_1" data-name="Calque 1" xmlns="http://www.w3.org/2000/svg" viewBox="0 0 366.37 313.01"><title>21</title><path d="M7260.78,7104.85c9.2-7.5,19.1-13.53,30.42-16.47a239.5,239.5,0,0,1,26.87-5c17.17-2.42,34.59-3,51.51-7.34,8.16-2.09,14.83-6.53,20.92-12,5.24-4.72,9.74-10,12.62-16.63,2.47-5.69,8.76-8.45,15.51-7.54,5.35.72,10.91,5.81,11.59,11.45a81.56,81.56,0,0,1,.51,15.43c-.53,7.53-1.56,15-2.71,22.5a149.94,149.94,0,0,1-10.68,36.31c-7.15,16.72-16.91,31.8-30.65,43.72-9.42,8.17-19.81,15.29-30.15,22.31a200,200,0,0,1-38.24,20c-3.6,1.44-7.29,2.64-11.49,4.16,4,4.76,7.55,9.3,11.39,13.61a386.47,386.47,0,0,0,42.88,40.66c20.29,16.77,41.89,31.57,65.45,43.38,7.48,3.75,15.14,7.14,22.8,10.51,6.88,3,10.8,10,9.12,17.37a14.82,14.82,0,0,1-14.72,11.4q-79-.11-158,0a14.12,14.12,0,0,1-12.53-6.66c-12.65-19.19-23-39.47-28.15-62-2.58-11.33-4.5-22.86-6-34.39-1.2-9.08-1.4-18.29-1.88-27.46-.12-2.25-.65-2.91-3.09-3.43-9.33-2-18.56-4.47-27.8-6.89-11.63-3-22.13-8.78-32.31-14.86a156.06,156.06,0,0,1-37.83-31.93,165.34,165.34,0,0,1-23.68-36.21,197.87,197.87,0,0,1-17.48-54.48c-1-6.16-1.74-12.38-2.36-18.59a14.18,14.18,0,0,1,10.48-15.29c7.28-2.1,13.94,1,17.39,7.69a53.31,53.31,0,0,0,19.07,21.28,40.36,40.36,0,0,0,18.5,5.89c10.65.84,21.34,1.08,32,1.82,11.62.8,23.55.76,34.31,5.7,8.84,4.06,17.09,9.45,25.48,14.44C7253.53,7099.57,7257,7102.27,7260.78,7104.85Z" transform="translate(-7092.46 -7039.74)"/></svg>