<svg id="Calque_1" data-name="Calque 1" xmlns="http://www.w3.org/2000/svg" viewBox="0 0 401.8 313.01"><title>22</title><path d="M7312.66,7128.26c1.58-1.89,3-3.67,4.52-5.4a61.08,61.08,0,0,1,12.19-11.1,30.2,30.2,0,0,1,18.71-5.21c4.28.23,8.55.63,12.81,1.14a59.69,59.69,0,0,0,29.15-3.7c11.2-4.36,22.4-8.73,33.65-13a330.9,330.9,0,0,1,41.48-13,73.93,73.93,0,0,1,8.89-1.16c.87-.09,2-.12,2.39.85s-.42,1.84-1.16,2.36a16.37,16.37,0,0,1-4.15,2.35c-3.85,1.23-7.8,2.14-11.67,3.3-6.67,2-13.32,4.07-20,6.17-9.34,2.94-18.64,6-27.51,10.25-1.51.72-3,1.54-4.48,2.25-6,2.8-10.44,7.23-14.08,12.62a129.22,129.22,0,0,0-11.56,22.23c-5.7,13.42-10.33,27.23-15.08,41-5.23,15.15-10.37,30.34-16.59,45.13a206.21,206.21,0,0,1-11.67,23.61,62,62,0,0,1-26.8,25.2c-5.76,2.83-11.46,5.77-17.23,8.57a14.06,14.06,0,0,0-5.24,4.36c-2.51,3.35-5,6.7-7.62,10a31.53,31.53,0,0,1-7.48,7c-4,2.58-8.2,3.39-12.74,1.54a3.55,3.55,0,0,1-2.46-3.31c-.07-1.42,0-2.84,0-4.39a4.17,4.17,0,0,0-3.26.65,12.29,12.29,0,0,0-5.11,6.29c-2.28,5.54-4.51,11.1-6.9,16.59a60.39,60.39,0,0,1-10.26,16.45,3.06,3.06,0,0,1-5.27-.72,4.25,4.25,0,0,1,0-4c.45-.88.86-1.79,1.36-2.84-.33.09-.46.09-.5.15-1.74,2.3-3.56,4.54-5.16,6.93-.9,1.35-1.34,3-2.14,4.41-3.67,6.5-9.41,9.58-16.74,9.88a27.35,27.35,0,0,1-8.92-.81c-1.2-.35-2.32-.92-3.5-1.35a61.27,61.27,0,0,0-5.89-2.08c-2-.51-4.23-.05-4.77,3,0,.24-.33.45-.51.67-.12-.32-.41-.68-.35-.95.6-2.43,1.17-4.88,1.92-7.27a219.49,219.49,0,0,1,9.26-23.42,177.68,177.68,0,0,0,13.06-45.6c.76-5,2.55-9.77,4.36-14.48a153.53,153.53,0,0,1,12.75-26.42,52.38,52.38,0,0,1,7.69-9.75c3.33-3.28,6.54-6.68,9.78-10,.73-.77,1.36-1.64,2-2.46l-.2-.23-1.61,1c-2.29,1.47-4.51,3-6.88,4.37a15.74,15.74,0,0,1-7.59,2.07,11.67,11.67,0,0,1-8.55-3.79,38.78,38.78,0,0,1-6.11-8.71c-2.26-4-4.44-8.06-6.76-12a37.69,37.69,0,0,0-7.61-9.4,1.3,1.3,0,0,0-1.57-.28c-2.15.87-3.54.63-4.58-1.25a4.76,4.76,0,0,0-1.33-1.16c-5.28-4.17-10.62-8.27-15.83-12.53a69.07,69.07,0,0,1-5.51-5.43,5.16,5.16,0,0,1-1.33-5,3.12,3.12,0,0,0-1.63-3.91c-8.43-5-15.27-11.78-21.49-19.24a87.41,87.41,0,0,1-12.62-19.41,32.11,32.11,0,0,0-7.53-10.34,37.14,37.14,0,0,1-6.69-9,11.77,11.77,0,0,1-.62-1.48,7.15,7.15,0,0,1-4.47-2.18,25.25,25.25,0,0,1-7.92-13.47c-.66-3-1.61-5.84-2.46-8.74a14.92,14.92,0,0,0-.8-1.93,2.11,2.11,0,0,0-2.24-1.47,3,3,0,0,1-3.18-2.35,28.92,28.92,0,0,1-.72-3.58,7.06,7.06,0,0,0-1.85-3.78,20,20,0,0,0-8.2-5.59,16.79,16.79,0,0,1-7.76-5.48c-2.21-2.78-1.93-4.13,1.16-5.8a16.52,16.52,0,0,1,7.34-1.81,51.21,51.21,0,0,1,17.46,2.82,129.2,129.2,0,0,1,31.36,14.4c22.14,14.25,44.4,28.32,65.91,43.53a432.88,432.88,0,0,1,41.89,33c7.06,6.42,13.41,13.52,19.82,20.56a250.69,250.69,0,0,0,20,20.21,75.16,75.16,0,0,0,6,4.52c1.87,1.33,3.72.86,5.44-.35a4.09,4.09,0,0,0,1.57-4.75,26.21,26.21,0,0,0-2.32-5.78c-3-5.15-5.48-10.47-6.18-16.42-.59-5-1.09-10.06-1.28-15.11a237.65,237.65,0,0,1,1-32.4c.41-4.12,1.19-8.2,1.81-12.3a6.89,6.89,0,0,1,.3-1.11c.7-2.12,2.12-2.72,4.13-1.7a13.47,13.47,0,0,1,4.72,4.37,64.48,64.48,0,0,1,7.13,13.11c3,7.14,5.75,14.37,8.61,21.55C7312.33,7127.31,7312.46,7127.71,7312.66,7128.26Z" transform="translate(-7074.78 -7038.74)"/></svg>