<svg id="Calque_1" data-name="Calque 1" xmlns="http://www.w3.org/2000/svg" viewBox="0 0 128.49 313.01"><title>23</title><path d="M7239.35,7147.58a46.57,46.57,0,0,0-1.68,6.24c-.62,4.68-2.08,9.2-2.27,14-.11,2.85-1.56,5.64-2.31,8.48-.79,3-1.36,6.14-2.22,9.16-.75,2.63-1.86,5.15-2.62,7.77-1.06,3.64-2,7.31-2.89,11q-1.42,6.23-2.46,12.55c-.14.85.48,1.87.89,2.75s1,1.53,1.37,2.36a4.49,4.49,0,0,1,.05,1.6,4.81,4.81,0,0,1-1.54-.35,8.16,8.16,0,0,1-3.45-4c-.06-.15-.27-.25-.49-.43-.2,3.15,2,5.27,3.14,7.8l-.46.42-2.47-.63a3.34,3.34,0,0,1,.23,1,1.77,1.77,0,0,1-.44,1.15c-.24.2-1,.23-1.11,0-1.14-1.61-3.07-2.17-4.44-3.43a8.43,8.43,0,0,1-2.92-6.3c-.09-2.8-.44-5.69.88-8.12,1.74-3.18,1.64-6.49,1.75-9.86.1-3.15.21-6.3.25-9.45,0-1.33-.19-2.65-.24-4a21.65,21.65,0,0,1,.75-6.8c.58-2,.32-4.29.82-6.35,2.81-11.5,5.78-23,8.59-34.45.72-3,.95-6,1.6-9,1.11-5.06,2.1-10.15,4.25-14.92a7.59,7.59,0,0,1,3.88-4.06c2.89-1.34,5.57-3.14,8.42-4.61,2.42-1.25,5-2.25,7.42-3.44,1-.47,2.34-1,2.68-1.78a16.08,16.08,0,0,0,.77-5c0-.4-.67-.84-1-1.27-1.11-1.35-2.2-2.72-3.34-4-.49-.57-1.14-1-1.64-1.57-1.8-2-2.52-4.67-3.68-7.06-.5-1-.3-2.44-.34-3.68,0-.62.23-1.24.23-1.85,0-2.85,1.27-4.86,3.49-6.59a6.63,6.63,0,0,0,2.39-3.44c.08-.31.7-.46,1-.71a47.58,47.58,0,0,1,4.18-3c2.33-1.33,4.78-2.47,7.2-3.65.24-.12.62,0,.92.1,1.51.41,3,.83,4.61,1.27-.15.42-.24.75-.37,1.07-.26.62-.9,1.42-.71,1.81s1.18.66,1.79,1c1.57.91,3.12,1.84,4.68,2.77.13.08.33.15.35.26.51,2.86,3.05,2.1,4.78,2.52,1.94.48,2.63,1.53,1.55,3.22,0,0-.07.07-.1.12-1,1.49.54,2.34.89,3.48s-.49,2.72,1.67,2.69c.28,0,.58.79.85,1.24a6.74,6.74,0,0,0,1.09,1.84c2,1.66,1.68,3.65-.44,5a55.48,55.48,0,0,0-6.48,5.49c-.6.54-.42,1.12.17,1.8a26.21,26.21,0,0,1,2.6,3.72c.67,1.1,1.28,2.18,2.73,2.33.15,0,.35,0,.45.09,2.56,2.28,4.62.61,6.64-.9a3.83,3.83,0,0,1,3.82-.72,3.13,3.13,0,0,0,1.7-.05c2.59-.68,5.19-1.33,7.73-2.15a22.5,22.5,0,0,0,4.85-2.11c3.51-2.16,6.9-4.52,10.34-6.78,1.39-.91,3-1.64,2.94-3.69,0-.08.1-.17.16-.26,2-3,1.48-6.07.74-9.27-.22-1,.2-2,.08-3a19.35,19.35,0,0,0-.83-3.42c-.39-1.28-.94-2.52-1.32-3.8a63.64,63.64,0,0,1-2.15-7.78c-.18-1.09-.14-1.89-1.09-2.72a5.22,5.22,0,0,0-3.65-1.19,14.27,14.27,0,0,1-8.12-2.74,1.63,1.63,0,0,1-.75-2.09,3,3,0,0,0-.47-1.84,6.1,6.1,0,0,0-1-1.18c-.93-1.11-.64-2,.48-2.78,2-1.41,3.95-2.88,5.92-4.33a1.79,1.79,0,0,1,2.37-.06c3.63,3.16,7.39,6.2,10.73,9.64,1.63,1.68,2.44,4.15,3.65,6.31,3.17-.43,3.76.1,4.76,3.41.86,2.85,2.08,5.59,3,8.42,1.49,4.56,3.72,8.88,4.42,13.72.26,1.78,1.23,3.44,1.64,5.21a15.74,15.74,0,0,1,.39,4.4,4,4,0,0,1-1.16,2.25q-5.09,5.38-10.31,10.64a133.61,133.61,0,0,1-17.41,14.31,71.72,71.72,0,0,0-6.12,5.11,4.83,4.83,0,0,0-1,2,135.62,135.62,0,0,0-5.31,21.9,144.33,144.33,0,0,0-1.93,17.35c-.24,5.27-1.46,10.5-1.84,15.77-.21,3,.38,6,.66,9a190.87,190.87,0,0,1,.93,26.42c-.22,4.85-.65,9.7-1.24,14.51-.42,3.43-1.34,6.79-1.86,10.2-.34,2.22-.24,4.5-.57,6.72-.7,4.83-1.56,9.64-2.33,14.47a29.63,29.63,0,0,0-.43,3.8c-.13,4.73-.38,9.47-.24,14.19.13,4.33.73,8.65,1.1,13,.24,2.75.5,5.51.65,8.27.26,4.92.49,9.84.65,14.76s.27,10.06.25,15.1a28.59,28.59,0,0,1-.78,4.47,1.52,1.52,0,0,0,.2.69c.51,1.3,1,2.6,1.68,4.25l-1.55-.79c-1.07,1.31-.57,2.79,1.25,3.42a38,38,0,0,0,4,.9c2.73.61,3.58,1.49,3.83,4.2a2.58,2.58,0,0,1-.71,1.77l.92,2.61c-.62.05-1,.11-1.39.11-7.83,0-15.66,0-23.49,0-1.21,0-1.66-.3-1.58-1.56.13-2,.09-4.11.14-6.16.05-2.32.17-4.65.15-7,0-.47-.53-.93-1.05-1.25-.47-5.61-.92-11.22-1.41-16.83-.59-6.73-1.34-13.44-1.77-20.17-.34-5.41-.3-10.85-.45-16.28,0-.87-.2-1.73-.22-2.59,0-2.14.15-4.29-.06-6.41-.28-2.82-1-5.6-1.25-8.42-.3-4-.28-8.07-.39-12.11-.07-2.28-.09-4.57-.2-6.85-.17-3.58-.39-7.16-.57-10.74,0-.54,0-1.08,0-1.62l-.42-.06-1.08,4.7c-1.28,5.59-2.61,11.17-3.82,16.77-.89,4.17-1.6,8.38-2.42,12.57-.9,4.58-2,9.13-2.71,13.74-.91,6-1.46,12-2.24,18.05-.73,5.61-1.61,11.2-2.36,16.81-.6,4.45-1.09,8.92-1.64,13.37-.24,1.92-.48,3.84-.75,5.93l-4.1-.36a7.3,7.3,0,0,0-.08,1.32c.48,3.55-.17,7-.59,10.51-.14,1.15.25,2.36.22,3.54a1.4,1.4,0,0,1-.94,1c-8.08.06-16.15,0-24.25,0,0-2.29-.06-4.45,0-6.61,0-1.21.83-1.86,2-2.27a6.26,6.26,0,0,0,2.35-1.54,21.5,21.5,0,0,0,3.77-4.6,15.68,15.68,0,0,0,1.6-5.88c.39-5.38.26-10.79.75-16.15.42-4.55,1.42-9,2.18-13.57,1-6,2-12,3-18.06.35-2,.89-4.06,1.22-6.11.37-2.32.62-4.66.89-7,.42-3.6.85-7.2,1.19-10.8a24.27,24.27,0,0,0-.22-2.89c-.12-4.16-.11-8.33-.35-12.49-.29-5.05-1-10.09-1.14-15.14s0-10.18.2-15.26c.16-3.77.53-7.55,1-11.3.35-2.76,1-5.48,1.59-8.21.11-.55.29-1.08.35-1.63.39-3.6,1.72-7,2.49-10.46.62-2.82.07-5.89,0-8.85,0-.46-.12-.91-.14-1.37-.21-4.76-.46-9.53-.61-14.3-.05-1.69.2-3.38.21-5.07a2.59,2.59,0,0,0-.55-1.47C7241.17,7149.61,7240.24,7148.61,7239.35,7147.58Z" transform="translate(-7211.14 -7038.74)"/></svg>