<svg id="Calque_1" data-name="Calque 1" xmlns="http://www.w3.org/2000/svg" viewBox="0 0 139.68 316.64"><title>24</title><path d="M7286.23,7048.84v20.06l.31,0,8.72-11.88.35.16c-.53,1.89-1,3.83-1.62,5.67-1.75,4.87-3.63,9.69-5.39,14.55-.5,1.37-1.14,2.79-.59,4.65a9,9,0,0,0,1.51-1.15c1.87-2.25,3.61-4.62,5.55-6.8,4.82-5.42,10.66-9.59,16.79-13.36,2.2-1.36,4.46-2.62,6.77-3.84-4.59,5.63-7.49,12.27-11.39,18.29-1.26,1.93-2.82,3.67-4.2,5.52-.77,1-1.61,2.08-1.38,3.73.48-.22.81-.35,1.11-.52a152.88,152.88,0,0,1,21.63-10.5,15.92,15.92,0,0,1,10.25-1,10.71,10.71,0,0,1,6.25,5c-5-1.71-9.26.09-13.54,1.71a34,34,0,0,0-11.66,7.11,19,19,0,0,0-5.46,8.48c-.07.25-.1.52-.18.92a33.51,33.51,0,0,1,21.75,2.7,35.38,35.38,0,0,1,3.45,2.25c-4.3.94-8.32,1.65-12.25,2.73a118.78,118.78,0,0,0-14,4.45c-6.84,2.83-11.74,8.13-16,14-.55.75-1,1.54-1.55,2.31l.25.34c1.69-.76,3.43-1.43,5.07-2.3q10.75-5.72,21.44-11.55c4.87-2.65,9.88-4.82,15.58-4.41a12.91,12.91,0,0,1,11,7.34c-.41-.24-.81-.5-1.22-.73a11.78,11.78,0,0,0-10.92-.47c-4.35,1.9-8.66,3.95-12.82,6.25a41.29,41.29,0,0,0-12,10.32c-.36.44-.67.91-1,1.38a5.35,5.35,0,0,0-.3.73c9.3-6,19.56-7.25,30.22-8l-9.67,5.3.16.52a14.76,14.76,0,0,1,9.52,1.82,48.9,48.9,0,0,1,4.11,3.16l-.13.58c-2.21.13-4.48.66-6.61.32-8.18-1.33-14.89,1.74-21.11,6.54-1.92,1.48-3.78,3.06-5.83,4.73a86.8,86.8,0,0,1,8.46-2.14,45.36,45.36,0,0,1,21.14,1.52,8.66,8.66,0,0,1,4.74,3.21c-2,.15-3.92.26-5.82.42a61.57,61.57,0,0,0-29.45,10.35,56.82,56.82,0,0,0-7,5.33,7.15,7.15,0,0,0-2.3,7.49c1.49-.38,2.92-.79,4.36-1.12,7.93-1.82,15.73-1.86,23.22,1.83a28.26,28.26,0,0,1,12.31,11.76c.11.19.18.4.38.87-2.46-.82-4.65-1.64-6.9-2.28-5.39-1.55-10.78-3.12-16.21-4.48a15.85,15.85,0,0,0-14.18,2.69l.15.62a10,10,0,0,0,1.88,0c8.08-1.57,14.56,1.7,20.5,6.68.06,0,.06.15.13.34a30.14,30.14,0,0,0-26.46,2.46c1.31.61,2.44,1.07,3.49,1.65a5.57,5.57,0,0,1,2.93,3.29c.1.35.59.67,1,.85,1.66.79,3.4,1.43,5,2.3a17.17,17.17,0,0,1,2.45,2.05,21.14,21.14,0,0,0,1.79,1.37c1,.65,2,1.23,3,1.87a2.76,2.76,0,0,1,1.32,3.52,2.06,2.06,0,0,0,1,2.76c3.18,2.13,5.93,4.7,7.32,8.41a5,5,0,0,1,.59,2.15c-.21,1.5.61,2.17,1.67,2.89a22.76,22.76,0,0,1,3,2.55c.78.77,1.1,1.65,0,2.53a5.25,5.25,0,0,0-.84,1.13c-.53.76-.32,1.24.39,1.88a53.4,53.4,0,0,1,4.4,4.55,1.68,1.68,0,0,1-.07,2.32c-1.2,1.48-1.15,2.42-.19,4.12a15,15,0,0,1,1.47,3.19,8,8,0,0,1,.11,2.74c-.14,1.85,0,3.53,1.53,4.91a4.6,4.6,0,0,1,.93,5.68,3.26,3.26,0,0,0-.13,2.11,14.86,14.86,0,0,0,1.22,2.54,5.6,5.6,0,0,1,.11,5.15c-1.29,2.85-1.36,6-1.36,9a.86.86,0,0,0,.09.41c1.84,3.23,1.06,6.37-.22,9.53a3.05,3.05,0,0,0,0,2c.94,2.75,2,5.45.25,8.29-.26.43-.05,1.11-.12,1.67-.37,3-.27,6.14-1.28,8.9-1.11,3.05-1.78,6.18-2.73,9.25a33.49,33.49,0,0,1-2.29,4.45,73.44,73.44,0,0,0-3.39,7.26c-1,2.85-2.51,5.13-5.41,6.31a7,7,0,0,0-4,3.78,14.37,14.37,0,0,1-5.53,6.12,3.49,3.49,0,0,1-1.67.71,14.65,14.65,0,0,0-6.68,2,13,13,0,0,1-7.25,1.33c-2.19-.21-4.47.53-6.72.83a21.72,21.72,0,0,1-4.06.4,22.9,22.9,0,0,0-8.11.89c-2.61.79-5.25.4-7.87.24-6.22-.4-12.45-.82-18.66-1.35a58.7,58.7,0,0,1-9.11-1.27c-1.71-.42-3.18-1.78-4.77-2.69-1.34-.77-2.72-1.5-4-2.29a4.2,4.2,0,0,1-1.26-1.09c-.85-1.19-1.66-2.41-2.41-3.66a10.31,10.31,0,0,0-4.61-4.57,9.81,9.81,0,0,1-5.75-7.59,10,10,0,0,0-3.82-6.13,7.28,7.28,0,0,1-2.69-5.07,23.84,23.84,0,0,0-2.3-7.35c-.79-1.62-.59-3.76-.65-5.68-.07-2.25.32-4.47-.4-6.73-.44-1.4-.23-3-.36-4.5-.39-4.84-.92-9.66-1.14-14.51-.14-3,.22-6,.27-9.06,0-.87-.34-1.75-.38-2.63a6.85,6.85,0,0,1,.23-2.45c.44-1.29,1.1-2.5,1.63-3.75a1.81,1.81,0,0,0-.58-2.27c-1.46-1.28-1.47-1.64-.52-3.38a49.39,49.39,0,0,0,2.82-5.51,16.55,16.55,0,0,0,.5-3.86c.19-1.47.32-3,.63-4.41a35,35,0,0,1,1.28-4.46,6.12,6.12,0,0,1,1.32-2.27c1.93-1.9,3.05-4,2.69-6.83-.23-1.78.73-3.06,2.07-4.1s2.38-2.13,2.34-4.09c0-.79.87-1.74,1.57-2.38a35.82,35.82,0,0,1,3.2-2.33c2-1.45,3.3-3.21,3.06-5.85a3.69,3.69,0,0,1,1.84-3.47c2.45-1.59,5-3,7.51-4.52,1-.58,2-1.1,2.91-1.75a5.39,5.39,0,0,0,2.6-4,4.07,4.07,0,0,1,3.45-3.79,13.11,13.11,0,0,0,2.79-1c1-.48,1.12-1.28.5-2.23-1.67-2.54-2.67-3.09-5.41-1.85-6.31,2.86-12.51,6-18.74,9a11.38,11.38,0,0,1-2.66,1.09,9.12,9.12,0,0,1,1.16-2c2.65-2.69,5.25-5.44,8.1-7.91s5.83-4.51,8.76-6.75c.25-.19.49-.39.9-.73a21.31,21.31,0,0,0-9-.94c-7.92.69-15.45,2.94-22.88,5.61l-1.19.42s-.08,0-.21-.11a30,30,0,0,1,6.86-8.17c7.54-6.41,16.42-10.08,25.84-12.64l2.59-.68s0-.07.19-.26c-.58-.47-1.16-1-1.79-1.44a29.26,29.26,0,0,1-6.65-6.08c-2.76-3.65-6.57-5.3-11-6.12a93.9,93.9,0,0,0-18.51-1.07,3.15,3.15,0,0,1-1.6-.32,23.06,23.06,0,0,1,2.41-1.68,35.34,35.34,0,0,1,12.07-3.35c4.71-.62,9.45-1,14.12-1.53-2.65-2.71-14.09-5.55-29.52-7.19.92-.88,1.51-1.88,2.35-2.18a40.06,40.06,0,0,1,7.56-2.14,86.58,86.58,0,0,1,19.81-.14c.84.07,1.7,0,3,0-8.72-11.78-19-19.64-34.76-16.86a8.45,8.45,0,0,1,4.37-4.61,17.57,17.57,0,0,1,9.41-1.34c7.57.7,14.59,3.26,21.48,6.28l1.25.55.32-.31a34.13,34.13,0,0,0-3.43-4.13c-6-5.3-12-10.48-18.08-15.71-.35-.31-.72-.6-1.08-.89V7092a35.55,35.55,0,0,1,4.33-.3c5.43.26,10.56,1.9,15.69,3.54l1.62.49c-.56-1-.94-1.83-1.38-2.58-2.78-4.75-5.85-9.26-10.12-12.85a16.64,16.64,0,0,0-10.43-3.84c-3.31-.11-6.64.27-9.82.42.77-2.48,4.24-4.79,7.87-5,4.87-.3,9.31,1.2,13.66,3.11a92,92,0,0,1,17,10.09,2.75,2.75,0,0,0,1.43.59,18.65,18.65,0,0,0-1.26-3q-6.31-9.91-12.74-19.75c-1.63-2.48-3.46-4.82-5.08-7.64a31.62,31.62,0,0,1,3.86.69,25.79,25.79,0,0,1,9.75,5.9c4.68,4.27,9.17,8.74,13.76,13.11a12.42,12.42,0,0,0,1.64,1.13l.43-.26a24.41,24.41,0,0,0-.55-3.68c-1.93-6.35-4-12.68-5.94-19a4.53,4.53,0,0,1-.06-.51c4.54,5.58,8.49,11.4,13.61,16.2l.48-.25c-.13-.8-.21-1.62-.41-2.4-.93-3.66-1.9-7.3-2.82-11a8.84,8.84,0,0,1-.24-2.25,4.14,4.14,0,0,1,.44-1.25,3.9,3.9,0,0,1,1.23.56,10.06,10.06,0,0,1,1.48,1.89c1.27,2.1,2.48,4.23,3.75,6.34a4.77,4.77,0,0,0,1.35,1.47c-.29-8.42-2.2-16.57-3.47-24.83,2.16.47,2.84,1.73,5.28,9.64l6.34-3.34c-2.34,5.88-1.23,11.47-.67,17.14l6.44-11.75Z" transform="translate(-7205.16 -7037.11)"/></svg>