<svg id="Calque_1" data-name="Calque 1" xmlns="http://www.w3.org/2000/svg" viewBox="0 0 350.5 413.25"><title>25</title><path d="M7097.45,7339.24h2.8l.26,2.86a2.47,2.47,0,0,0,.56-.05c.71-2.9,2.71-4.69,5.92-5.67a7.18,7.18,0,0,0,5.44-7.2c.11-4.69,3.39-6.64,7.89-7.88a55,55,0,0,0,6.56-2.24c3.44-1.43,4.09-4.47,5.25-7.25,1.39-3.34,3-6.6,4.57-9.88a4.83,4.83,0,0,1,4.07-2.48c4.26-.5,8.56-.78,12.84-1.14,1.73-.14,3.47-.18,5.18-.4a5.17,5.17,0,0,0,4.32-3.29,47.45,47.45,0,0,0,1.69-4.46c.71-2.28,2.44-3.69,4.77-4.69,3.49-1.51,7-2.92,10.37-4.66a10.56,10.56,0,0,0,3.53-3.39,11.34,11.34,0,0,0,1.62-4.07,5.46,5.46,0,0,0-.24-3.18c-1.11-2.59-2.58-5.06-3.7-7.65a6.87,6.87,0,0,0-3.45-3.68c-2.94-1.45-3.14-2.29-1.52-5,1.93-3.17-.84-7.37-5.49-8.18-4.83-.84-9.68-1-14.27.87a6.85,6.85,0,0,1-5.21-.15c-2.56-.93-5-2-6.53-4.24a2.24,2.24,0,0,0-1.73-.66c-2.2,1.52-4.73.63-7.08.81a56.09,56.09,0,0,1-5.93-.19c4.23-2.58,8.71.09,13.19-1.44a37.34,37.34,0,0,0-3.19-2.28c-1.53-.86-2.87-1.69-1.36-3.89,2.6,2.13,5.51,4,7.71,6.42,2.79,3,7.6,4.28,11.38,1.2a5.7,5.7,0,0,1,5-1.07c1.57.34,3.18.51,4.86.77-.23-3.76-2.08-5.09-5.8-5.37a70.65,70.65,0,0,1-8.63-1.66l-2.65-.56.22-.81,12.65,2.54c.6-3-2.14-3.77-3.3-5.56,2,0,3.25.64,3.56,2.22a9.67,9.67,0,0,0,3.26,5.14,4.6,4.6,0,0,1,1.61,2.93c0,1.87,1.45,2.21,2.78,2.6s3.15,1.11,4.4-.38a3.46,3.46,0,0,0,.45-4.13c-.65-1.23-1-2.64-1.85-3.7a19.34,19.34,0,0,0-4.36-3.94,35.41,35.41,0,0,0-6.62-3.16,5,5,0,0,0-3.29.2c-2.31,1-4.35,1.84-6.65-.14-.41-.35-2.22.15-3.07.66-4,2.38-8.54,1.59-12.87,2l-.19-.83c1.81-.33,3.61-.74,5.44-1,2.31-.31,4.66-.43,7-.77.51-.07.92-.69,1.38-1.06-.45-.38-.84-1-1.37-1.09a52,52,0,0,1-5.91-1.31l1.81-.7c-3.09-3.52-7.09-5-11.16-6.6a6.91,6.91,0,0,1,2,0c3.44,1.15,6.72,2.51,9.27,5a22.48,22.48,0,0,0,3.9,2.57c1.36.84,2.78,1.61,4.13,2.46,2,1.26,6.55.77,8-.93a1.08,1.08,0,0,0,.08-1c-1.39-2.68-2.72-5.39-4.3-8a7.69,7.69,0,0,0-2.79-2.54,3,3,0,0,0-2.45.4,10.68,10.68,0,0,1-6.63,1.87l-.24-.56,4.84-1.5.1-.56a32.3,32.3,0,0,0-5-1.7,29.78,29.78,0,0,0-5.11-.06V7212a29.84,29.84,0,0,1,5.83.08c1.88.39,3.59,1.44,5.91,2-.18-.54-.19-1.22-.58-1.58-.95-.88-2.11-1.57-3.11-2.41a2.66,2.66,0,0,1-.93-1.83l2.06.81c-.31-2.46-2-4.17-3.06-6.09l.21-.17c1.95,1.86,4.23,3.52,4.28,6.4,0,.47.64,1.07,1.17,1.36,1.57.86,3.24,1.6,4.87,2.38,1.21-2.22.73-3.83-1.31-5.54a23.58,23.58,0,0,1-3.63-4c2.3.57,2.64,3.36,5.67,3.54l-1.63-4.28.54-.12a7.34,7.34,0,0,1,1.9,7.22c-1,3.66.1,6.34,3.24,8.21,1.82-1.7,3.63-3.37,5.41-5.07,2.44-2.32,2-6.9-.67-9a6,6,0,0,1-2.24-2.88c-.48-2.12-1.89-3.36-3.79-4.51a53.09,53.09,0,0,1-4.55-3.4l.57-.56,4.23,3.38c1-1.28,2-2.43,2.85-3.61,1.23-1.64,1-3.45.75-5.28-.31-2-.52-4-.77-6l.77-.17a5.93,5.93,0,0,1,.59,1.36c.32,2,.44,4,.87,6a5.27,5.27,0,0,1-1.51,4.89c-1.63,1.78-2.44,3.43-.29,5.41,1.26,1.17,1,3.49,3.8,3.62l.72-1.5.53.08v6.47c5.47-1.54,6.91-3.28,4.22-8.32a33.9,33.9,0,0,1-3.44-7.91,10.6,10.6,0,0,1-.15-1.46l.7-.15,1.22,3.27c2.85-1.09,4.2-3.39,5.84-5.49a6.16,6.16,0,0,1-3.13,5.49c-2.94,1.92-3,2.3-.82,4.84a20.58,20.58,0,0,1,1.51,1.91c.44.65.79,1.34,1.4,2.42l.73-6.36c2.31,3.77,0,9.5-4.23,11.26-2.09.88-3.33,2-3.49,4.26a5.28,5.28,0,0,1-2.57,3.48c-2.82,1.62-3.48,4.21-3.75,6.56-.16,1.47,1.37,3.49,2.8,4.62a100.92,100.92,0,0,0,8.93,5.77l.54-.37a4.57,4.57,0,0,0,0-1.49c-1.16-3.25-.13-6.18,1.4-9.14a16.57,16.57,0,0,0,1.54-4.86c.67-4,1.21-8,1.66-12a24.25,24.25,0,0,0-.2-4.12c-.05-.87-.12-1.73-.18-2.6l.61-.12,1,2.22a2.17,2.17,0,0,0,2.16-2.7c-.15-1.14-.64-2.23-.9-3.36a9.1,9.1,0,0,1,0-1.8c2.61,1.37.06,5.11,4.65,5.33-5.51,2.22-5.34,6.13-5.38,9.95,0,2.23,0,4.47,0,6.7l1,.35a21.42,21.42,0,0,0,2.78-3c2.26-3.67,2.51-7.79,2.9-11.82.31-3.18.58-6.08,3.63-8.54,2.48-2,2.69-5.07,2.08-8-.16-.78-.23-1.57-.34-2.36l.69-.23a8.1,8.1,0,0,1,1.41,2c.59,1.8.89,3.67,1.45,5.48a3.49,3.49,0,0,1-1.41,4.11c-3.6,2.62-3.86,6.09-3.69,9.78.12,2.53,0,5.07,0,7.73,1.37.19,2.2-.3,2.45-1.38s.35-2.39.51-3.59c.44-3.16,2.61-5.48,5.14-8.21.25,2.1-1.51,2.88-2,4.13s-1.24,2.7-1.68,4.09-.63,2.82-1,4.44c4.94-.06,5.92-3.68,7.9-6.5.77,3.26-3.16,7.6-7,7.68a8.94,8.94,0,0,0-7.56,3.72c-2,2.62-4.59,4.91-6.3,7.65a12.25,12.25,0,0,0-2,6.7c.18,3.78,1.2,7.54,2,11.28a2.58,2.58,0,0,0,1.39,1.6c.32.13,1.35-.54,1.69-1,.89-1.31,1.58-2.73,2.55-4.47a6.87,6.87,0,0,0,1-1.08,14,14,0,0,1,1.17-2.09c.45-.47,1.47-1,1.91-.87.66.24,1.48,1.11,1.44,1.67-.19,2.8-.82,5.53-3,7.74-.91.91-2,1.71-2.89,2.6-1.84,1.74-2.74,3.64-2,6.14,1.3,4.7,2.26,9.47,3.5,14.18.7,2.67,2.11,4.17,4.92,5.56a34.22,34.22,0,0,0,.21-4c-.16-2.52.5-4.34,3.22-5.92,6-3.48,11.75-7.31,17.39-11.24a11.8,11.8,0,0,0,4.09-4.88,57.25,57.25,0,0,1,5.95-11.75,5.5,5.5,0,0,0-.17-7.14c-3.36-4.35-6.5-8.83-9.81-13.22-1.68-2.23-1.65-3.54.56-5.44a21.11,21.11,0,0,1,4.22-3.23c3.89-1.91,4.18-4.8,3.54-8.14-.47-2.44-.82-4.91-1.12-7.37-.26-2.18-.87-2.76-3.36-2.83-.49,0-1,0-1.46,0-2.44-.2-3.55-1.85-2.15-3.58a24.1,24.1,0,0,1,4.48-4.24,5.75,5.75,0,0,0,2.43-6c-.26-1.75-.55-3.49-.85-5.23-.46-2.66-2.7-4.27-4.67-6.05-1.58-1.43-3.17-2.86-4.58-4.41-1.82-2-3.71-2-5.32.13a8.18,8.18,0,0,0-1.52,6.59c.21,0,.38.13.46.09,1-.53,2.13-1,2.72.32.22.47-.26,1.18-.42,1.78-1.11-.25-2.75-.19-3.23-.81-1.63-2.08-1.1-4.58-.73-6.9,1.16-7.24,1.94-14.47,1.15-21.78-.21-1.93-.23-3.89-.58-5.8a14.94,14.94,0,0,0-4-8.27,8.05,8.05,0,0,1-1.76-4.1c-.3-1.52,1.08-2.14,2.6-2.2s3.66,1.28,3.56,2.27c-.11,1.17-.86,1.59-2,1l.84-1.84a8.42,8.42,0,0,0-2.72-.22c-.42.11-.84,1.16-.77,1.74.54,4.2,3.58,6.8,7.61,8.7a59.44,59.44,0,0,1,5.84,2.68c2.11,1.3,3.48.36,4.94-.75a2.51,2.51,0,0,0,.61-3.89,22.58,22.58,0,0,0-1.92-1.88,25.84,25.84,0,0,1-2.24-2.55c-.84-1.17-.29-2,1-2.72,2.24-1.21,2.4-1.69,1.38-3.83-.32-.67-.75-1.3-1.13-2a1.74,1.74,0,0,0-2.6-.65,1.82,1.82,0,0,1-2.76-.58c-2-2.81-4.1-5.61-6-8.5a1.89,1.89,0,0,1,.28-1.93c2.46-2.52,5-5,7.67-7.35,1.24-1.06,1.24-1.77.12-2.67a16.57,16.57,0,0,0-4-2.87,6.17,6.17,0,0,0-4.25,0c-1.45.69-1.61,2.29-.92,3.73l1.54-.82.52.56c-.63.43-1.28,1.21-1.9,1.2a2.53,2.53,0,0,1-1.9-1.23c-1.05-3,.79-4.91,4.43-4.88a6.94,6.94,0,0,1,6,2.72,20.74,20.74,0,0,0,1.53,1.73,2,2,0,0,0,2.88.37c3.49-2.24,7.53-2.53,11.92-2.47-.37-2.45-.64-4.89-1.12-7.3a21.08,21.08,0,0,0-1.46-4.32,2.55,2.55,0,0,0-1.55-1.34,13.74,13.74,0,0,0-3.13.09,23.45,23.45,0,0,0,.31,2.34,4.17,4.17,0,0,0,.63,1.08l-.43.48c-.83-.53-2-.91-2.4-1.63-.65-1.14.8-3,2.4-3.59s3.52,0,5,1.73a11.25,11.25,0,0,1,2.52,7.17c.23,5.51.18,5.5,6.35,5.48,1.3,0,2.59.13,3.81.19.79-2.12,1.46-4.32,2.46-6.41a4.58,4.58,0,0,1,2.35-2.13c.94-.34,2.85-.35,3.2.13a10.3,10.3,0,0,1,1.62,4.29c.06.31-1.35,1-2.18,1.2-.5.11-1.19-.46-1.8-.72l.35-.55,1.87.33c.16-.17.31-.26.32-.35.11-1.45.46-3.24-1.52-3.74-1.77-.44-2.76,1.08-3.16,2.34a65.25,65.25,0,0,0-2.69,10.22c-.54,3.83-.36,7.74-.58,11.61a1.86,1.86,0,0,1-.89,1.45c-1.52.56-1.3,1.38-.74,2.35l2.17,3.72c1.91-1.48,3.68-2.88,5.48-4.25,1.46-1.12,2.9-2.27,4.45-3.29,1.81-1.19,3-1,4,.74s1.7,2.8,4.07,1.87a2,2,0,0,1,1.52.8,8.79,8.79,0,0,1,.89,3,14.66,14.66,0,0,0,5.25,9.63,2.6,2.6,0,0,0,1.95.59c.53-.16.89-.94,1.16-1.51a3.1,3.1,0,0,0,.05-1.27c0-5.41,0-10.82,0-16.28-3.52-.64-4-1.21-4.17-4.84q-.38-7.92-.87-15.84a10.21,10.21,0,0,0-4.1-7.68c-3.21-2.57-6.2-5.35-9.21-8.1-1-.9-1.56-.88-2.71-.07a72.12,72.12,0,0,1-6.52,3.66c.09-1.32.08-2,.2-2.68,1.18-6.62,2.46-13.22,3.55-19.85.66-4,1-8.08,1.56-12.12.19-1.46.32-2.6-1.72-3.52a6.61,6.61,0,0,1-3.61-7.7c.4-1.54,3.29-3.26,5.11-3a3.12,3.12,0,0,1,2.85,3.12c0,1.39-.88,2.17-2.23,2.51a2.89,2.89,0,0,1-1.86-.4,1.1,1.1,0,0,1,0-1.21,4.5,4.5,0,0,1,1.64-.66,7.29,7.29,0,0,1,1.42.09c-.93-1.09-1.38-2.19-2.18-2.44a2.47,2.47,0,0,0-3,1.57c-1.64,3.52,2.21,8.77,6.5,8.57,4.85-.23,9.67-.85,14.51-1.18a50,50,0,0,1,6.39,0,10.23,10.23,0,0,0,6.08-1.43c2.17-1.29,4.53-2.35,6.73-3.6,1.75-1,2.82-.44,4,.83,5.66,6.13,11.94,11.85,16.18,19.58l10.93-16.23-.44-.5c-.94.17-1.87.37-2.82.5-3.16.43-6.22.37-9.11-1.1-3.38-1.73-4-6.34-1-8.35,1.17-.8,2.42-1,3.52,0a2.58,2.58,0,0,1-.22,3.79c-.38.23-1.25.37-1.47.18a18.82,18.82,0,0,1-2-2.34,4.26,4.26,0,0,0,.09,4.48,4.12,4.12,0,0,0,5,2,45.84,45.84,0,0,0,8.92-4c8.08-5.16,14.42-11.86,20.65-18.62,4-4.39,7.91-8.9,12-13.29.63-.68,2.05-1.54,2.63-1.33a3.28,3.28,0,0,1,1.72,2.36c.66,5.19,1.32,10.39,1.59,15.6.46,8.68.59,17.38.92,26.07a57,57,0,0,0,5.77,22.38c1.57,3.32,4.3,4.91,8.31,5,1.11,0,2.23.1,3.34.05,2.56-.12,4.36-2,3.7-4.11a11,11,0,0,0-2.33-3.73,2.72,2.72,0,0,0-2.23-.5c-.5.15-.68,1.1-.92,1.53l2,1c-.28.43-.56,1.21-.85,1.21a3.56,3.56,0,0,1-2.2-.57,2.6,2.6,0,0,1,.66-4.14c1.39-.89,4.16-.53,5.15,1a12.27,12.27,0,0,1,2,4.68c.46,3-2.54,4.92-6.7,4.85a25.1,25.1,0,0,1-11.32-3.3,65.53,65.53,0,0,1-8.09-5.39c-1-.74-1.69-.62-2.17.19a65,65,0,0,0-3.8,6.81c-1.52,3.37-2.61,6.88-4.17,10.23a31.3,31.3,0,0,1-3.67,5.68c-2.76,3.59-3.6,7.33-2.3,11.59s.35,8.51-1.51,12.59a12.64,12.64,0,0,0-.57,2.21l.45.4c3.12-1.37,6.35-2.58,9.33-4.15a52.33,52.33,0,0,0,15.44-12.29,10.92,10.92,0,0,1,4.26-2.75,6.13,6.13,0,0,1,7.81,2.69,8.85,8.85,0,0,1,0,9.58,4.59,4.59,0,0,1-5.55,1.61c-2.41-.82-3.33-2.12-2.75-4.24a2.42,2.42,0,0,1,1.47-1.53,3.33,3.33,0,0,1,2.15.77c.32.23.22.92.39,1.88l-2-1.24c-1,1.74-.73,2.8.76,3.49a3.06,3.06,0,0,0,4.3-1.33,9.5,9.5,0,0,0-.57-9.8,4.28,4.28,0,0,0-3.08-1.42c-4.35.08-7.55,3.31-7.32,7.15.4,6.55,1.15,13.09,1.17,19.64,0,6-1,12-1.09,18a60,60,0,0,0,3.21,19,85.51,85.51,0,0,1,3.3,12.14c.3,1.91-.69,4.18-1.74,6-1.74,3-6.49,2.56-8.22-.17-1.12-1.76-2.33-3.55-1.21-5.65a3.39,3.39,0,0,1,1.67-1.72,6.91,6.91,0,0,1,3.07.22c.3.07.7,1,.54,1.16a18.46,18.46,0,0,1-2.12,2l-.5-.45a6.08,6.08,0,0,1,.59-.76,14.65,14.65,0,0,1,1.17-.89c-1.7-.74-2.85,0-3.28.85a5,5,0,0,0,.67,5.21c.92,1.28,2.42,1.3,3.91,1.14a4.09,4.09,0,0,0,3.44-2.81c1.87-4.2.67-8.1-2-11.56-3-3.89-6.59-7.47-9.9-11.19-.75-.85-1.43-1.75-2.42-3-7.71,13.6-12.88,27.71-18.51,41.66,5.22,1.82,6.44,3.72,5.53,8.33-.46,2.32-1,4.63-1.46,7-.24,1.28-.35,2.57,1.52,3.17a2.19,2.19,0,0,1,1.53,2.83,31.47,31.47,0,0,1-1.2,5c-.59,1.62.14,2,1.75,1.89,1.87-.14,3.74-.29,5.59-.51,3.09-.36,6.54,2.07,6.65,4.77a2.32,2.32,0,0,1-.44,1.35c-1.56,2.21-3.18,4.38-4.78,6.57a18,18,0,0,0-3.11,9.51c-.56,6.9-1,13.82-1.35,20.73a9.79,9.79,0,0,0,.49,3.57,1.67,1.67,0,0,0,2.88.74c2.62-2.42,5.14-1.33,7.68-.08,2.29,1.13,4.49,2.41,6.76,3.58a4,4,0,0,1,2.49,4.27c-.11,1.09-.23,2.18-.36,3.27a4.41,4.41,0,0,0,1.58,4.29c1.62,1.32,2.88,2.82,1.86,5.19,5.3-1.34,7.87,2.95,12,3.91,5.83-5.64,8-10.11,7.1-14.69-3.7,2.43-7,.76-10.49-.82a11.5,11.5,0,0,1,2-.33,14.72,14.72,0,0,1,2.2.32,6.06,6.06,0,0,0-4.55-5.46c2-.2,3.33.33,4,1.71.5,1,.84,2,1.26,3.06.61,1.45,1.94,1.7,3.39,1.3,2.56-.71,4.37-3.7,3.55-5.91-.22-.6-1-1.07-1.58-1.53a22.67,22.67,0,0,1-2.88-2.17,1.78,1.78,0,0,0-2.4-.63c-1.59.72-2.73.06-4.11-.76s-3.08-.95-5-1.48a4.44,4.44,0,0,1,4.19-.26,33.1,33.1,0,0,0,3.35,1.44,11.77,11.77,0,0,0,2.78.1c-.08-.66-.18-1.32-.24-2a4.91,4.91,0,0,1,0-.78l.51-.11a34.46,34.46,0,0,0,1.42,3.59c.3.59,1,1,1.55,1.51.42-.5,1.11-1,1.21-1.51a38.54,38.54,0,0,0,.42-4.49c0-.22-.09-.6-.23-.64-2.73-.76-3.78-3.88-7.07-3.85-.15,0-.31-.18-.46-.27l.15-.49a15.67,15.67,0,0,1,3.82.82,13.43,13.43,0,0,1,2.79,2.45l.67-.33-1.38-5,.71-.15,2.72,9.45,2.68-3.47.65.21a9.48,9.48,0,0,1-1,2.31c-1.06,1.32-2.43,2.46-3.43,3.8a2.52,2.52,0,0,0-.27,2.19c.5,1.27,1.64,1.31,2.34.11.89-1.5,1.53-3.11,2.34-4.65a11,11,0,0,1,1.16-1.5l.54.11a10.81,10.81,0,0,0,.64,2.34c.23.45.9.72,1.38,1.08a9,9,0,0,0,.91-1.16c.54-1,1-2,1.51-3,1.06-1.85.69-2.48-1.52-3-.7-.16-1.69-.77-1.77-1.26-.3-1.93-1.7-3.12-3.19-4.31a2.33,2.33,0,0,1-.39-.57l.58-.38c1.07,1.29,2.21,2.55,3.17,3.9.67.94.84,2.26,3,2.07l-.56-3.62c1.3.89,2,2.28,1.77,5.14a33,33,0,0,1-1.28,5.48l.66.44,3.21-3.9.48.42a5.21,5.21,0,0,1-4.83,4.25,6.24,6.24,0,0,0-5.84,4c-.68,1.51-1.18,3.09-1.89,5,3.59.28,2.47-2.76,4.27-4l-.39,3.42,2.63-1.76c-.13,2.29-1.89,3-3.53,3.25-2,.34-2.49.91-2.15,2.74.25,1.32-.56,2.8-.93,4.19-.18.69-.45,1.36-.71,2.12,4.7-1.13,12.29-7.24,11.47-11.92a6.13,6.13,0,0,1,3-6.75,5.84,5.84,0,0,1-.74,1.66c-1,1.09-.56,1.61.8,1.9s2.57.58,3.85.88l-.16.68-5.83-1v6.15l5.72-2.11c-.45,1-1.26,2.25-1,2.42a30.91,30.91,0,0,0,4.11,2.28c.17.09.37.14,1.09.4-1.77.68-2.92.59-4-.37-.53-.48-.86-1.2-1.48-1.51-.78-.39-2-.9-2.61-.62a20.33,20.33,0,0,0-4.46,3c-.81.71-.58,1.59.78,1.88a33.85,33.85,0,0,1,6.23,1.79l-2.83.35c-.26,2.55.77,4.66,3.36,6.55a5.27,5.27,0,0,1-3.79-3.54,4.24,4.24,0,0,0-.14-.72c-.3-.67-.64-1.33-1-2-.31.64-.64,1.26-.92,1.91a8.74,8.74,0,0,1-1.24,2.28,36.18,36.18,0,0,0,.31-4c0-.56-.5-1.53-.88-1.57a2.64,2.64,0,0,0-2.08.7c-1.65,2.81-4.27,4.05-7.76,4.49-.9.11-1.73,1.37-2.36,2.23a7.48,7.48,0,0,0-.62,2.09c-.37,1.11,0,1.64,1.27,2.22,4.18,2,8.23,4.15,12.37,6.18a6.57,6.57,0,0,1,3.86,6.33c.07,2.62.1,5.23.15,7.85,0,1.08.4,1.68,1.88,1.9,4.68.7,9.32,1.6,14,2.47,3.16.59,6.33,1.18,9.44,2a5.18,5.18,0,0,1,4.23,4,56,56,0,0,0,1.31,5.52c.78,2.53,2.25,3.27,5.13,2.63,1.67-.38,3.29-.94,4.92-1.46a4.2,4.2,0,0,1,4.41.75c1.65,1.54,3.06,3,3,5.47-.1,21.92-.06,43.84-.06,65.76,0,3.22.06,6.44.08,9.66h-350.5Q7097.45,7370.49,7097.45,7339.24Z" transform="translate(-7097.45 -6988.5)"/><path d="M7146.3,7203c-3.91-4-5.52-3.73-10.08-.83a58.93,58.93,0,0,1-5.47,3.24c.31-2.64,3.89-2.54,5.31-4.45l-4.12-1.09.07-.47c.48,0,1-.1,1.45-.11l6.32-.12c.54,0,1.08-.16,1.6-.12,2.18.14,2.44-.1,1.72-2-.34-.91-.9-1.76-1.24-2.68a2.36,2.36,0,0,1,.07-1.6c2.54,3,1.38,7.29,4.57,10.06Z" transform="translate(-7097.45 -6988.5)"/><path d="M7137,7233.63a47.73,47.73,0,0,1-5.51-.75,3.42,3.42,0,0,1-2.22-1.64c-.71-2.36-2.51-3.64-4.87-4.57a1.87,1.87,0,0,1-1.09-1.19,4.71,4.71,0,0,1,1.42.15c2.1,1,4,2.12,4.86,4.19a2.53,2.53,0,0,0,2.61,1.66C7133.95,7231.55,7135.69,7231.88,7137,7233.63Z" transform="translate(-7097.45 -6988.5)"/><path d="M7185.39,7225.61c1.92,2.18.79,4.62,1.23,7l-4.49-5.66,2.86,1.79Z" transform="translate(-7097.45 -6988.5)"/></svg>