<svg id="Calque_1" data-name="Calque 1" xmlns="http://www.w3.org/2000/svg" viewBox="0 0 237.44 314.28"><title>26</title><path d="M7236,7280.55l-14.53,26.75c3.54,2.69,6.76,5.31,10.16,7.67,2.88,2,6,3.69,9,5.54,5.4,3.34,9.13,7.66,9.66,14.41.41,5.29-1.83,11.34-6.21,13.34a56.16,56.16,0,0,1-12.6,4.21c-4,.76-8.13.44-12.21.51-3.91.06-7.83,0-11.74,0a42,42,0,0,1-20-5.41c-4.37-2.37-6.57-6.33-7-11.23a65.72,65.72,0,0,1-.36-8.77c.42-8.29,2.38-16.17,7.46-22.94a10.1,10.1,0,0,1,4.13-2.8,7.47,7.47,0,0,0,3.82-3.18c4-6.6,7.85-13.33,12.38-19.56,2.94-4,7-7.24,10.49-10.91,1.86-2,3.5-4.14,5.26-6.24a25.65,25.65,0,0,1-4.35-15.69,3,3,0,0,1,2.05-3,65.15,65.15,0,0,0,7.43-4,3,3,0,0,0,.89-2.28c-.1-3.84,0-7.7,2-11,1.77-2.92,4.06-5.54,6.18-8.38-.46-1.55-1.09-3.44-1.58-5.37-.4-1.6,1.26-3.46,3.38-3.54,5.61-.21,10.69-2.1,15.54-4.71,2.07-1.11,4-2.48,6-3.76-5.47-1.43-10.69-2.69-15.85-4.17-3.6-1-7.09-2.45-10.68-3.54s-5.47-3.95-6.48-7.22-1.38-6.49-2.14-10.21c-.88-.39-2.29-1-3.73-1.64a2.09,2.09,0,0,0-1.07,0c-1.91.31-3.82.6-5.71,1-1.15.25-2.24.78-3.39,1a85.54,85.54,0,0,1-9.36,2c-7.69.87-15.48,1.09-22.91,3.59-4.63,1.56-9.15,3.45-13.81,4.91-3.75,1.17-6.48.38-8.37-2.81-.48-.81-1.8-1.07-2.49-1.82-1.64-1.79-1.74-4-1.12-6.22.43-1.56.84-2.87-.13-4.66-1.37-2.53-.63-5.33,1.26-7.58a28.47,28.47,0,0,1,8.64-6.73c6.32-3.36,12.69-6.65,18.93-10.14a14.78,14.78,0,0,0,3.73-3.59c1.25-1.49.89-3.15.06-4.78a56.33,56.33,0,0,1-3.11-6.43c-1.73-4.82-1-11.07,4.15-14.22,3-1.84,8.25-1.72,9.72,2.64,1,3,1.88,6,2.63,9a11.56,11.56,0,0,0,5.18,7.5c3.7,2.38,7,5.3,10.5,8,.58.46.89,1.25,1.45,1.73a22.21,22.21,0,0,0,2.6,1.86c1.24.79,2.88,1.25,3.71,2.34,1.86,2.45,4.84,2.73,7.17,4.22.24.15.87,0,1.17-.28,3-2.3,5.67-1.34,8.49.39,5.25,3.21,10.59,6.27,15.88,9.4a2.22,2.22,0,0,0,2.55.06,7.59,7.59,0,0,1,7.21,0c5.49,2.77,10.87,6,17.1,6.72a54.6,54.6,0,0,0,8.69,0c2.88-.11,5.76-.36,8.62-.55-.53-1.69-1.73-3.76-1.71-5.81,0-4.08-2.4-6.53-4.72-9.3-3.77-4.5-5.37-10-6.51-15.65a2.34,2.34,0,0,0-1.13-1.37,23.07,23.07,0,0,1-12.16-14.48c-.81-2.84.55-5.34,2.62-7.31,2.33-2.21,4.81-4.26,7.15-6.45a5.69,5.69,0,0,0,1.58-2.33c1.88-6.26,3.69-12.56,7.77-17.83,1.12-1.45,1-2.5.19-4a23.21,23.21,0,0,1-2.49-10.55c-.16-4.82,0-9.65-.07-14.47,0-1.44.07-2.56,2.18-2.49-2.3-1.56-1.75-3.69-1.76-5.68,0-3,0-5.9,0-8.85,0-1.31-.15-2.62-.27-4.68a43.79,43.79,0,0,1,4.58,4,39.93,39.93,0,0,1,8.49,16,50.69,50.69,0,0,1,1.45,14.69c0,.32,0,.64,0,1.37,2.17-1.7,4.12-3.21,6-4.75,5.55-4.47,11.68-7.88,18.68-9.33,4.71-1,9.44-1.92,14.4-.71a16.08,16.08,0,0,1,9.73,7c4.81,7,9.48,14.05,14.36,21,1.26,1.78,3.18,3.08,4.58,4.78,2,2.38,3.68,4.94,5.55,7.39a4.14,4.14,0,0,0,1.49,1.2c4.46,2.05,8.4,4.52,9.28,9.94a13.94,13.94,0,0,1-.82,7.41,4.22,4.22,0,0,0-.2,2.05c.62,4.1,1.77,8.17,1.85,12.27a30.6,30.6,0,0,1-3,14.07c-1.7,3.46-3.77,6.73-7.11,8.93s-4.84,1.51-5.58-2.23a27.18,27.18,0,0,0-1.4-3.81c-3,5.52-8.3,8.3-13.18,12.24,3.56,1.72,6.84,3.38,10.19,4.91,2.44,1.12,5,2,7.43,3.12,2.17,1,2.94,3.47,2.18,6s-2.81,4.11-5.27,3.84a24.08,24.08,0,0,1-3.4-.66c-3.64-.94-7.26-1.92-11-2.93-.35,3.53-1.65,6.51-4.42,8.56a23.43,23.43,0,0,1-10.46,4c-3.23.52-6.5.87-9.77,1.15-1.92.16-3.87,0-5.8.05a23.92,23.92,0,0,0-2.76.42,11.36,11.36,0,0,0,6.42,4.05c2.62.53,3.45,2.17,4,4.37a3.78,3.78,0,0,0,1.21,1.9,18.74,18.74,0,0,0,3.78,2.46c1.43.66,2.83,1.29,4.68.74,2.92-.87,6.17,1.73,6.83,5.06.2,1,.2,2,.43,3,.27,1.17.39,2.34,1.72,3.1,2.17,1.24,4.17,2.79,6.24,4.22.1.07.2.21.3.22,2.57,0,5.14.08,7.72.07.36,0,.71-.34,1.07-.33,4.39,0,5.83-3,6.79-6.55.08-.3.17-.6.28-.89,1.8-4.9,5-4.56,8.53-1.7,5.16,4.23,4.33,10.93.88,14.89-3.77,4.33-3.76,9-2.3,14s3.14,9.79,4.41,14.75a20.31,20.31,0,0,1,.13,6.15,19,19,0,0,1-.89,5.18c-.45,1.27-1.6,2.27-2.35,3.45a28.7,28.7,0,0,0-1.38,2.64c-1.28,2.55-3.6,4.14-6,3.83-2.6-.34-4-2.11-4.82-4.49-2.67-7.34-6.16-14.23-12-19.61a19.08,19.08,0,0,1-5.65-9.61,5.55,5.55,0,0,0-.94-1.63c-.29-.42-.89-.74-1-1.16-.58-3.92-4-5-6.65-6.88-1.89-1.33-3.27-.64-5,.11a30.13,30.13,0,0,1-7.61,2.39c-2.36.32-4.62-.86-6.7-2.13a59,59,0,0,1-12.47-10.18c-.43-.46-.81-1-1.55-1.86-.95,7.09-1.59,13.51.17,20a3.71,3.71,0,0,1-.88,3.07c-1.28,1.22-3.06.84-4.52.13-2-1-3.8-2.17-5.86-3.37a34.09,34.09,0,0,0-2.07,4.72c-.19.67.43,1.69.91,2.41,3.07,4.63,7.45,7.81,12,10.88,2,1.38,2.21,2.55,1.09,4.65-.63,1.18-.56,1.89.63,2.66,3.81,2.46,7.66,4.88,11.28,7.6,4.62,3.46,9.09,7.14,13.52,10.84,2.34,2,4.47,4.18,6.71,6.27a3,3,0,0,0,.91.66c6.41,2.37,9.71,7.86,13,13.23a62.29,62.29,0,0,1,7.84,19.42c.95,4.38,1.85,8.81.27,13.26a7.6,7.6,0,0,1-3.79,4.51,55.49,55.49,0,0,1-18.13,5.38,51.93,51.93,0,0,1-8.88.71,130.78,130.78,0,0,1-15.07-1.52,64,64,0,0,1-12-3.13c-7.81-2.93-9.81-10.13-6.33-17.55,2-4.33,5.12-8.19,8-12.1,3.1-4.28,6.32-8.46,8.28-13.42a2.36,2.36,0,0,0-.3-2.07c-5.5-5.49-11.09-10.88-16.62-16.34a7.9,7.9,0,0,0-4.63-2.55c-1.71-.27-3.31-1.79-4.74-3-1-.9-1.67-1.29-3.18-.66a56.76,56.76,0,0,1-9.8,3.08c-2.23.48-4.75.18-6.16-2-.81-1.23-.93-2.92-1.31-4.41-.12-.49,0-1-.16-1.51-1.52-5.49-1.55-5.16-7.21-5.57s-9.73,1.61-12.75,6.18a4.86,4.86,0,0,0-.66,1.54c-.92,3.89-3.31,4.24-6.55,4.24-1.48,0-3-.58-4.45-.62-.53,0-1.29.67-1.6,1.23C7240.9,7279.34,7239.27,7281.09,7236,7280.55Z" transform="translate(-7153.37 -7038.74)"/></svg>