<svg id="Calque_1" data-name="Calque 1" xmlns="http://www.w3.org/2000/svg" viewBox="0 0 928.87 342.26"><title>27</title><path d="M6832.4,7328.32h6.12v-46.58h24.05v33.93H6868v-27.22h10.25v25.43l.92.1c1.46-2.36.19-5.24.92-8h5.35v-53.47h36.12c.06,1.13.17,2.19.17,3.25,0,11.91,0,23.83.07,35.74,0,1.22.85,2.42,1.3,3.64l.81-.19.21,4.08h3.82v-84.92l3.16-.64.22-4.45c2.52.14,2.8-1.39,2.71-3.45a64.4,64.4,0,0,1,0-9.08c.47-4.9,1.28-9.76,1.95-14.64.48-3.52.9-7.05,1.52-10.55.19-1.06,1.06-2,1.4-3.05s.26-2.12.56-3.13c.49-1.64,1.11-3.24,1.72-4.84.28-.72.79-1.36,1-2.1.8-2.86,1.64-5.72,2.24-8.62a57.49,57.49,0,0,1,2.24-9.44l3.28,21.09c3.43,2.4,1.15,6.4,2.61,9.52,1.24,2.66,1.09,6.07,1.1,9.15,0,2.33.52,4.14,2.43,5.46,2.12,1.47,2.7,3.45,2.59,6-.19,4.84-.12,9.69,0,14.54a4.72,4.72,0,0,0,1.09,3.22c2,1.69,2.1,3.77,2.4,6.15,3.57,28.56.71,57.24,1.65,85.85,0,.39.1.79.19,1.41h4q0-2.81,0-5.62c0-5.76-.07-11.51.07-17.26,0-.92,1-1.79,1.43-2.74a11.16,11.16,0,0,0,.94-3.18c.26-2.83,1.61-4.21,4.57-4v-10.88l5.66-.36V7230h17.81v34.23h4.09v-34.18h20c0,1,.14,2.11.14,3.17,0,9.09-.13,18.18.07,27.26.08,3.58.93,7.14,1.45,10.86l5.68.44.65,11.34h5.68l.35,5H7040v-84.85h14.5v55.38h11.3v-65.74h12v31.79h13.29l.39,4.72,5.07.32V7233c0,16.15.05,32.31-.05,48.46a6.83,6.83,0,0,0,2.43,5.79c2.09,1.8,4,3.84,6.57,6.42v-68.77h17.17v63.17l3.93.19c0-2-.06-3.78,0-5.55s.1-3.47,1.89-4.79c.74-.55.76-2.36.76-3.6q.06-52.71.06-105.41c0-1.63-.83-3.61,1.49-4.68.37-.17.27-1.5.27-2.29,0-5.76,0-11.51.07-17.26,0-.83.89-1.63,1.33-2.47a6.18,6.18,0,0,0,1-2.14c.14-1.89,0-3.79,0-5.82l3.37-.63.37-4,2.92-.62.38-4.05,4.05-.42c0-1.16,0-2.33,0-3.5q0-10.6,0-21.2c0-5.7.38-6.26,6-8.31v-10.37h1.1c0,2.71,0,5.41,0,8.12,0,1.58,0,2.86,1.95,3.49,2.13.68,2.52,2.64,2.5,4.7,0,5.86,0,11.71,0,17.57a26.47,26.47,0,0,0,.12,5.43,22.57,22.57,0,0,0,2.11,4.62l2.2-.12.35,4.58,3.12.48.34,3.21,2.89.69v8.72l3.13.36v21.59l3.12.73v133l.77.19a6.23,6.23,0,0,0,.78-1.88c.56-10.3,1.25-20.6,1.53-30.91.25-9.27.05-18.55.05-28.25H7193v-10.74h16.84v21.62h13.44v27.13h7.62c0-5.15-.05-10.27,0-15.38,0-1.48-1-3.6,1.84-4,.24,0,.44-1.22.46-1.88.06-2.11,0-4.22,0-6.57h20.82c0,1.07,0,2.23,0,3.39q0,24.69,0,49.37c0,1.79-.23,3.7,2.93,2.86.7-7.79-1.7-16.33,4.47-23.39,1.8,3.2,4,6.13,3.86,10.3-.25,5.83-.06,11.67-.06,17.71H7269v-13l4.27-.36.6-12.36h6.53v-20.53h5.73l.35,3.52h5.38l.31-4.69h7l.47,3.13h15.44l.32-4.31h5.32v22.9c2.83-.44,6.05,0,7.48-1.42,1.63-1.59,1.65-4.82,2.63-8.22l2.39,9.3,1.21-.13v-24.39l4.06-.4v-12h29.06v60.62l1.17.31a8,8,0,0,0,.87-2.32c.11-2.52.13-5.05,0-7.57-.58-13.88,3.29-27.19,5.12-40.76,0-.23.3-.43.75-1,1.36,8.32,3,16.18,3.86,24.13.87,8.4.91,16.88,1.42,25.32.06,1,.82,1.89,1.25,2.83.51-1,1.38-1.92,1.46-2.94.21-2.49.07-5,.07-7.74h3.57l.37,3.23.51-.4a35.75,35.75,0,0,0,2.66,3,3.2,3.2,0,0,0,1.87.64c1.48.09,3,0,4.58,0l.45,4h3.65v-23h8.14v-28.76h21.49l.3,5.45,3,.49v12.09l5.12-1.06c-.09-2.43,1.56-2.58,3.7-2.51,4.51.15,9,0,13.9,0,0-3.78-.18-7.19,0-10.58.52-8.3,1.23-16.59,1.88-25.17h10.32v18.56l5.85.44v61.12h5.55c0-2.23-.16-4.43,0-6.61.18-1.89-1.33-4.57,2.12-5.31.31-.07.41-1.64.41-2.51,0-7,0-13.93.09-20.9,0-.89,1-1.75,1.46-2.66.37-.73,1-1.58.89-2.25-1.44-7.22,2.05-12.32,7-16.84a5.81,5.81,0,0,0,.82-1.4l5.29,4.19V7088.15c4,0,7.76.05,11.47,0,.7,0,1.39-.65,2.08-1a7,7,0,0,0-2.16-.9c-2.32-.12-4.7.26-6.94-.17-1.27-.24-2.31-1.69-3.45-2.59,1.19-.8,2.32-2.14,3.59-2.3a77.21,77.21,0,0,1,9-.11l1.55-56.53h.49l1.3,56.56c2.87,0,5.37-.08,7.86,0a6.37,6.37,0,0,1,3.1.83c2,1.29,1.81,3.16-.45,3.68-2.5.57-5.18.33-7.76.6a9.16,9.16,0,0,0-2.42,1c.81.49,1.59,1.36,2.43,1.41,3,.17,6,.07,9.36.07v178.16l8.5-1.09c0-1.09,0-2.18,0-3.27-.06-29.18-.09-58.36-.24-87.54a6.29,6.29,0,0,1,2.68-5.58c6.17-4.86,12.19-9.92,18.56-15.14,5.57,5.65,11.08,11.1,16.39,16.75.8.85.92,2.57.92,3.89q.07,51.49,0,103v3.84c1.86-.54,3.53-.91,5.08-1.54a2.76,2.76,0,0,0,1.29-1.66,8.67,8.67,0,0,0,.06-2.41q0-56.49,0-113v-3.87h23.7v150.3c1.56,0,2.83.28,3.87-.09.86-.3,2-1.34,2.06-2.1q.83-16.26,1.33-32.54c.17-6,0-11.91,0-17.87,0-1,0-2,0-3.15h18.84c0,1,0,2.1,0,3.16q0,22.26,0,44.53c0,2.59-.38,5.2,2.22,7.08.88.64,1.19,2.05,1.88,3.32l2.83-.31v6.79c3.17.31,6,.46,8.74.88a22.18,22.18,0,0,1,12.8,6.32,8.84,8.84,0,0,0,2.48,1.64c10.65,5.06,18.22,12.82,21.72,25.16l4.4-8.05c-4.72.77-4.57-2.16-4.66-5.19l4.13-.44.34-4.1,2.67-.46a2.55,2.55,0,0,0,.36-.8c.52-9.23,1.21-18.46,1.43-27.7.09-3.85.35-8.55-1.61-11.36-2.39-3.4-1.12-6.08-1-9.13,0-.7.36-1.4.32-2.09-.08-1.75-.25-3.51-.45-5.25-.16-1.38-.51-2.75-.61-4.13a11.85,11.85,0,0,0-1.46-5.89c-1.11-1.84-.64-4.9-.26-7.32.72-4.58,2.05-9.05,2.77-13.63.33-2.08,1.57-4.42-1.32-6.33-1.28-.84-1.76-3.41-1.94-5.25a12.28,12.28,0,0,1,1.23-5.38c-2-4.2-.79-5.6,5.93-12.54-3,4.07.48,7.68.73,11.57l-3.75,1.24c3.32.66,5.56,1.63,4.13,5.19l-2.48.45c.42,3.41.85,6.59,1.21,9.78s.66,6.55,1,10l3.26.56-.89-3.79c3.68,2.29,3.68,2.29,6.35-1.65l.7,3.7,4.28-1.92-2,3.07,4.63.45-3.19,2.46,2.82,1.31-3.07.71-3,8c1.13,1.67,2.2,4.39,5.91,3.8.62-.1,1.68.91,2.11,1.65,1.46,2.52,2.74,5.15,4.28,8.12l4.71-3.55,4.89,6.06c-2.12,2.56-4.35,4.92-6.15,7.57a8.91,8.91,0,0,0-1.46,4.84,45.82,45.82,0,0,0,1,9.61c.93,4-1.19,6.31-3.94,8.44a20.92,20.92,0,0,1-4.07,2.6c-1.22,1.63-.72,2.48,1.48,2.95,5,1.05,6.76,3.51,6.76,8.6a12.51,12.51,0,0,1,0,1.82c-.42,2.82.35,4.57,3.78,4l.38,3.89,3.73.2v4.45l-2.66.72c8.66,5,12.48,12.43,12.4,22.55H6808.83v-62.25h23.57Z" transform="translate(-6808.83 -7024.5)"/></svg>