<svg id="Calque_1" data-name="Calque 1" xmlns="http://www.w3.org/2000/svg" viewBox="0 0 467.61 313.01"><title>28</title><path d="M7216.21,7234.15c-6.32-2.38-13.18-4.57-19.72-7.5-20.4-9.16-37-23.13-50.29-41-4.48-6-13.83-7.92-21-4-4.66,2.54-9.54,4.07-14.88,3.52-8.49-.87-15.23-4.81-19.37-12.33-4-7.31-7.91-14.66-13-21.35-9.48-12.56-20.36-23.64-33.68-32.18-1.2-.77-2.36-1.59-3.52-2.42a2.4,2.4,0,0,1-.89-3.35,2,2,0,0,1,3.05-.88q4.73,2.67,9.44,5.38a123.76,123.76,0,0,0,42.49,15.17c6.83,1.08,13.78,1.36,20.67,2.09,13,1.36,23.14,13.93,21.6,26.86-1.12,9.38,6.28,17.25,13.34,18.71a121.07,121.07,0,0,1,44,18.91,140,140,0,0,1,27.05,24.35c.35.41.71.8,1.18,1.33,7.25-5.05,14.59-5,21.78-.25,8.94-7.5,17.64-15.12,26.69-22.31,12.69-10.08,25.58-19.9,38.49-29.71,4.93-3.75,10.16-7.11,15.21-10.71,3.28-2.34,6.41-4.89,9.73-7.16,3-2.07,6.25-3.84,9.31-5.86,2.55-1.69,4.91-3.66,7.46-5.34q9.87-6.5,19.84-12.83c4.53-2.88,9-5.85,13.74-8.38,5.63-3,10.58-6.95,15.73-10.62,2.9-2.07,5.74-4.23,8.63-6.31,5.11-3.68,10.32-7.23,15.35-11,6.51-4.91,12.86-10,19.33-15,1.32-1,2.91-1.66,4.26-2.63,3.5-2.5,7-5,10.41-7.64,2.7-2.06,5.27-4.3,7.95-6.4,1.35-1.06,2.83-2,4.25-2.93,3.9-2.67,7.81-5.32,11.68-8,.81-.57,1.39-1.48,2.18-2.08,3.93-3,7.78-6,11.89-8.74a78.87,78.87,0,0,1,9.11-4.71c.28-.13,1.06.29,1.28.66a1.54,1.54,0,0,1-.06,1.42,12.13,12.13,0,0,1-2.36,2.4c-3,2.18-6.2,4.19-9.2,6.42-2.74,2-5.3,4.31-8,6.41s-5.34,3.88-7.88,6c-5.84,4.8-12.26,8.8-18.25,13.39-2.22,1.71-4.18,3.77-6.42,5.45-2.63,2-5.53,3.57-8.16,5.53q-24.69,18.31-49.28,36.76a67.32,67.32,0,0,0-10.07,9c-7,8-15.55,14.17-23.63,20.9-4.64,3.87-9,8.09-13.7,11.84-6.42,5.1-13.09,9.89-19.62,14.86-3.36,2.55-6.6,5.25-10,7.78-2.73,2-5.59,3.92-8.37,5.89-9.5,6.72-18.89,13.6-28.52,20.12-10.41,7-21,13.8-31.6,20.59a2,2,0,0,0-1.06,2.73,17.51,17.51,0,0,1-5.5,17.94c-6.49,5.21-13.88,5.7-20.45,1.63a3,3,0,0,0-3.73.08,147.7,147.7,0,0,0-24.37,20.14,214.78,214.78,0,0,1-41.89,32.05c-4.21,2.51-8.54,4.82-12.81,7.22-2.66,1.49-3,2.37-2.1,5.45a23.26,23.26,0,0,1-1.67,18.36,22.47,22.47,0,0,1-39.17,1c-8.37-13.57-1.48-31.22,13.7-35,6.6-1.64,12.69-.19,18.26,3.54,2.63,1.77,3.66,1.75,5.87-.57a252.92,252.92,0,0,1,59.66-45.82c7.15-4,13.35-9.71,19.95-14.69a2.21,2.21,0,0,0,.64-1.7C7217,7241.17,7216.6,7237.81,7216.21,7234.15Zm-103.75-52.62a21.64,21.64,0,0,0,21.25-21.51c0-10.14-8.12-22.91-24-21.3-8.91.9-18.45,8.39-18.57,21.55A21.12,21.12,0,0,0,7112.46,7181.54Z" transform="translate(-7039.57 -7036.74)"/></svg>