<svg id="Calque_1" data-name="Calque 1" xmlns="http://www.w3.org/2000/svg" viewBox="0 0 306.64 313.01"><title>29</title><path d="M7237.47,7267.67c10.44,12.2,20.38,24.06,30.64,35.65,3,3.43,3,5.3-.64,8.25-10.92,8.91-21.6,18.13-32.19,27.43-2.76,2.43-4.61,2.38-6.79-.43-2.31-3-4.79-5.87-7.56-9.25l21.07-18-8.3-9.76c-6.13,5.21-12,9.89-17.45,14.93-2.94,2.7-4.75,2.32-7.17-.61-9-11-8.13-7.81,1-16,4-3.58,8.16-7,12.7-10.89l-4.31-5.27-17.23,14.63c-6.35,5.38-12,6-18.16.54a37.26,37.26,0,0,1-8.76-11.94c-2.51-5.31-1.07-10.23,3.79-14.35q63.5-53.88,126.79-108c4.77-4.07,9.5-8.19,14.33-12.19,3.59-3,5.51-6.22,7-11.1,1.4-4.7,7.73-8.23,12.44-11.49,2.15-1.48,7-.05,8.21-1.7,4-5.54,7-11.82,10.05-18,.38-.76-1-2.74-2-3.77-14.62-15.74-17.5-36.61-7.51-55,9.61-17.65,29-26.62,49.53-22.79,9.69,1.81,17.77,6.78,24.95,13.94,8.77-7.82,18.72-11.4,30.3-9.26a32.71,32.71,0,0,1,19.92,11.57c12,14.77,9.72,32.26-6.29,49.11,5.35,7.48,9.08,15.68,10,25.16a46.5,46.5,0,0,1-24,44.72c-16.32,8.73-37.25,6.81-51-4.79-2.64-2.24-5.41-4.6-7.23-7.46-2.34-3.68-5.34-4.35-8.84-3.1a105.61,105.61,0,0,0-14.75,6.33c-1.49.8-2.47,3.49-2.72,5.44-.47,3.64-1.32,6.41-5.57,6.95a3.68,3.68,0,0,0-2.43,2c-1.63,4.24-4.68,5.37-8.75,4.27-2.86-.77-4.29.11-6.4,2.46-3.78,4.2-8.82,7.25-13.19,10.94-2.47,2.09-4.55,4.64-7,6.74q-41.27,35.28-82.61,70.49C7240.19,7265.15,7239.07,7266.22,7237.47,7267.67Zm169.63-133.94c2.69,9.05,13.19,15.7,23.76,15.3a26.22,26.22,0,0,0,24.51-21.11c2-10.13-3-21.57-11-25.35C7439.89,7122.4,7427.42,7132.82,7407.1,7133.73Zm3.27-71.5c-4.2-9.88-15.16-15.66-26.19-14.14-11.52,1.59-20.34,11-22.09,22.42-1.32,8.63,4.44,22.13,11.23,23.51C7377.43,7074.15,7389.6,7063.44,7410.37,7062.22Zm12.06,35.93a13.44,13.44,0,0,0-13.75-13.77,13.82,13.82,0,0,0-13.46,13.16,13.62,13.62,0,0,0,13.62,14A13.33,13.33,0,0,0,7422.43,7098.15Zm23.3-45c-7.21.12-12.78,6.17-12.59,13.69a13,13,0,1,0,12.59-13.69Zm-82.27,84.31c5.14-2,9.73-3.93,14.38-5.64,2.91-1.07,6.57-.64,5.93-5.9-.6-4.86-3.28-6.68-7.39-7.18a4.41,4.41,0,0,0-3.54,1.73C7369.67,7125.79,7366.8,7131.3,7363.46,7137.44Z" transform="translate(-7173.1 -7027.74)"/></svg>