<svg id="Calque_1" data-name="Calque 1" xmlns="http://www.w3.org/2000/svg" viewBox="0 0 187.24 313.01"><title>3</title><path d="M7193.5,7354.77a12.5,12.5,0,0,1-7.91-3.21c-2.48-2.4-4.43-5.37-3.21-9.18a5.72,5.72,0,0,0-.85-5.27,60.24,60.24,0,0,1-5.67-10.94c-2.08-5,.13-9.08,4.88-11.22,1.54-.69,3-1.52,4.55-2.21a6.54,6.54,0,0,1,2.5-.73,3,3,0,0,0,3-2c1.47-2.91,3.27-5.66,4.85-8.53a65.7,65.7,0,0,0,6.22-18.12,19.57,19.57,0,0,1,4.27-9.09c2.18-2.5,4.24-5.12,6.55-7.48a11.64,11.64,0,0,0,3.09-7.52c.8-8.23,1.71-16.45,2.62-24.67.22-2,.63-4,.94-6a2.21,2.21,0,0,0,0-.84c-1-4,.1-7.93.19-11.9,0-2.18.42-4.35.36-6.52a6.33,6.33,0,0,0-1.12-3.08c-1.47-2.26-3.33-4.28-4.64-6.62a67.49,67.49,0,0,1-3.66-8.17,29,29,0,0,1-1.71-16.62,41,41,0,0,1,2.67-7.64,158.13,158.13,0,0,1,6.5-14.57,27.4,27.4,0,0,0,3.09-8.86c1-6.3,4-12,6.23-17.9.81-2.15,1.7-4.27,2.51-6.42a7.22,7.22,0,0,0,.43-1.76,2.26,2.26,0,0,0-2.16-2.78c-.76-.11-1.53-.11-2.29-.21-2.83-.34-5.68-.62-8.5-1.07a8.08,8.08,0,0,0-4.5.4c-4,1.62-8,3.11-11.89,4.79a20.7,20.7,0,0,0-3.61,2.31,22.57,22.57,0,0,1-3,2.26c-3.69,1.75-6.58,4.51-9.44,7.3-3.76,3.67-7.46,7.41-11.12,11.18a6.28,6.28,0,0,0-1.15,2.21c-.27.73-.66,1.25-1.47,1.16-1.58-.18-2.89.55-4.29,1.08a28.11,28.11,0,0,1-4.36,1.37c-1.38.27-2-.49-1.58-1.85a4.42,4.42,0,0,0-.32-3.25c-.71-1.6-1.12-3.33-1.69-5-.17-.49-.5-.93-.64-1.42a1.75,1.75,0,0,1,0-1.2,1.19,1.19,0,0,1,1-.28,3.78,3.78,0,0,0,3.89-1.37,4.6,4.6,0,0,1,1.72-1.28,4,4,0,0,0,2.45-2.32,13,13,0,0,1,1.59-2.1,8.68,8.68,0,0,0,1.63-2.34,16.86,16.86,0,0,1,5.41-7.75c2.81-2.49,5.81-4.76,8.64-7.22A47.7,47.7,0,0,0,7189,7106a41.46,41.46,0,0,1,10.21-8.84c1-.59,2.38-.61,3.55-1,1.68-.53,3.35-1.1,5-1.73,5.91-2.26,11.84-4.46,17.68-6.89a65.37,65.37,0,0,0,8.14-4.23,19.53,19.53,0,0,1,8.27-2.42c3.49-.35,6.78.41,10.18.88,3.61.5,7.33.23,11,.26,1.25,0,2.5-.08,3.75-.13,2.75-.12,4.13-1.78,3.62-4.47-.24-1.3-.7-2.56-1-3.85-.23-1-.32-2-.55-3a20.73,20.73,0,0,0-1-3.94c-1.75-3.86-1.78-7.64.53-11.21A39.92,39.92,0,0,1,7274,7048a17.89,17.89,0,0,1,11.32-5.17,10.58,10.58,0,0,0,3.08-.61,9.1,9.1,0,0,1,6.15.13,10.27,10.27,0,0,1,7.22,6.84c.72,2.11,1.21,3.92.34,6.1-.37.93.17,2.2.19,3.32a9.68,9.68,0,0,1-.19,3.55,19.18,19.18,0,0,0-1.2,6.86,15.87,15.87,0,0,1-.91,4.31c-.76,2.46-1.73,4.85-2.44,7.32a5.92,5.92,0,0,1-2.77,3.91c-1.09.61-2,1.45-3.06,2.17a2.18,2.18,0,0,0-.95,2.73A13.54,13.54,0,0,0,7298,7098a55.41,55.41,0,0,1,11.06,7.34,6.46,6.46,0,0,1,1.54,1.53,16,16,0,0,0,4.23,4.61,5.37,5.37,0,0,1,1.35,2,6.5,6.5,0,0,0,2.87,3,20.4,20.4,0,0,1,2.41,1.82c1.46,1.09,2.27.85,2.82-.88.79-2.49,1.16-5.18,2.33-7.48,2.2-4.31,1.8-9,2.71-13.52.54-2.67,1.1-5.35,1.51-8a4.27,4.27,0,0,0-.3-2.65,20.21,20.21,0,0,0-3.18-4.09,6.79,6.79,0,0,1-2.34-5.22,10.74,10.74,0,0,0-.43-2.61c-.32-1.34-.09-1.83,1.26-2a3.57,3.57,0,0,0,3.12-2.8,6.25,6.25,0,0,1,6.22-3.91,12.26,12.26,0,0,0,2.76-.13,4.73,4.73,0,0,1,4.39,1.46,22.08,22.08,0,0,1,2.31,2.94,4.72,4.72,0,0,1,.41,4.27,83.9,83.9,0,0,0-2.56,8.91,28.78,28.78,0,0,0-.28,5.28c-.05,1.65,0,3.31-.11,4.95a6.75,6.75,0,0,0,.8,4.31,3.68,3.68,0,0,1,.36,3.35,29,29,0,0,0-1.07,7.63c-.34,4.74-1,9.45-1.52,14.18a37.81,37.81,0,0,0-.27,4.59c.08,4.7-1.8,8.79-3.91,12.8-.37.71-.91,1.34-1.28,2.05-1.2,2.33-3.28,2.92-5.68,3.27-4.74.68-8.84-1.29-13-2.84-3.7-1.37-7.36-2.86-11-4.26-2.56-1-5.15-1.86-7.71-2.82-2.91-1.1-4.7-.44-6.06,2.31-5,10.1-9.83,20.26-14.92,30.29-2.06,4.06-4.7,7.82-6.88,11.83a89.62,89.62,0,0,0-4,8.55c-.83,2-.46,2.67,1.14,4.11s3.23,3.15,4.79,4.79c2.57,2.69,5.06,5.45,7.66,8.11a10.34,10.34,0,0,1,3,5.81,3.88,3.88,0,0,0,.26,1.05c1,2.18.46,4.2-.67,6.11-1.75,3-3.46,6-5.42,8.87q-6.2,9-12.66,17.91c-4.34,5.94-9,11.68-13.21,17.67a67.92,67.92,0,0,0-10.23,23.11,2.8,2.8,0,0,0,1.09,3.21,15.76,15.76,0,0,1,2.16,2.12c.86.94.91,1.68-.12,2.34-1.88,1.2-2.18,3-2.48,5a37.64,37.64,0,0,1-1.5,6.59c-1.09,3.14-.47,6,.71,8.94.62,1.53,1.3,3,2,4.51a4.27,4.27,0,0,1,.21,3.84c-.67,1.56-1.27,3.14-2,4.69s-1.66,1.91-3.24,1.35a38.56,38.56,0,0,1-13.59-8,14.77,14.77,0,0,1-5-10.3,54.33,54.33,0,0,0-.77-7.22,14,14,0,0,0-1.7-4.21c-.67-1.17-1.69-1.22-2.6-.2a49.94,49.94,0,0,0-3.19,4.11c-1.79,2.49-3.43,5.08-5.3,7.51-2.65,3.43-5.28,6.84-7,10.89-.54,1.31-.68,2.43.34,3.57a2.31,2.31,0,0,1,.29,2.72c-1.21,2.38-1.36,4.93-1.48,7.53a41.55,41.55,0,0,1-.81,6.2c-.42,2.11-.31,2.77,1.51,4a3.66,3.66,0,0,1,1.81,3.45c0,1,0,1.94,0,2.91,0,1.65-.5,2.37-2.11,2.8S7195,7354.47,7193.5,7354.77Z" transform="translate(-7158.15 -7041.75)"/></svg>