<svg id="Calque_1" data-name="Calque 1" xmlns="http://www.w3.org/2000/svg" viewBox="0 0 177.79 313.01"><title>30</title><path d="M7143.26,7255c-7.14,11.81-15.33,21.86-19.84,34.13a113.38,113.38,0,0,1-5.74,13.26c-1.39,2.67-3.65,4.87-5.44,7.33-2.48,3.42-4.82,6.94-7.33,10.34-3.45,4.66-6.83,9.4-10.58,13.81-2.07,2.43-6.64,2.58-9.31.75-11.93-8.17-23.87-16.33-35.69-24.65-4.59-3.23-4.71-3.87-2.56-9.34,1.43-3.65,3.3-7.12,5-10.65.93-1.89,2.4-2,4.13-1.08,5.14,2.91,10.32,5.76,15.42,8.75,3.44,2,4.53,1.63,6.3-1.91,2.55-5.1,5.13-10.2,8.12-15a16.1,16.1,0,0,1,5.63-5.38,19,19,0,0,0,10-13.28c1.59-7,4.51-13.72,6.37-20.69,2.34-8.76,4.17-17.65,6.26-26.47,1.38-5.81,2.82-11.61,4.27-17.4.46-1.84-.27-2.81-1.94-3.55-7.83-3.45-7.87-3.51-3.37-10.81,3.44-5.57,7.75-10.66,9.08-17.33.83-4.18,1.84-8.33,2.45-12.54.2-1.41-.6-3-.95-4.46a24.47,24.47,0,0,0-3.95,2.36c-1.72,1.5-3.15,3.33-4.77,4.94-2.18,2.15-4,1.85-6-.53-2.78-3.23-6-6.09-9.26-9.37a9.61,9.61,0,0,1-9.65,4.22c-.82-.09-2.09,1.07-2.64,2-1.49,2.41-2.67,5-4,7.5-.5.91-1.17,1.73-2.27,3.32-1.71-4.89,2.11-7.69,2.08-11.55-5.73,1.72-9.06,6.64-13.73,10.84l-7.15-6.55c3.25-5.56,5.16-11.88,11.85-14A66.24,66.24,0,0,1,7084,7140a7.84,7.84,0,0,0,5.85-3.36c1.41-1.94,4.48-2.73,6.9-3.86,1.17-.55,2.61-.52,3.75-1.09.85-.43,2.09-1.58,2-2.11-.23-.92-1.34-2.22-2.17-2.28-7.76-.57-15.53-1-23.31-1.24a10,10,0,0,0-4.93,1.61c-2.66,1.56-3.06-.07-3.26-2-.27-2.7.56-6.29-.88-7.88s-5-.91-7.68-1.21c-3.38-.38-6.75-.91-10.14-1a51.53,51.53,0,0,0-6.79.65c-2.44.24-4.88.6-7.33.62a12.13,12.13,0,0,1-10-4.68c-1.13-1.37-2.88-2.23-4.74-3.61l6.26-5.52c-.89-.68-1.85-1.33-2.72-2.09a10.51,10.51,0,0,1-1.24-1.59c.64-.43,1.39-1.34,1.89-1.22a46.16,46.16,0,0,1,5.8,2c1.41.55,2.71,1.58,4.15,1.79,4.74.69,9.52,1,14.27,1.64,3.34.45,6.63,1.29,10,1.81,2.12.33,4.21.77,5.65-1.9.5-.94,2.66-1.43,4-1.38,7.78.29,15.56.86,23.34,1.23,6,.29,12.08.94,18,.45,3.73-.31,7.32-2.43,11-3.73a70.2,70.2,0,0,1,8.47-2.9c3-.64,6.12-.5,9.14-1,2.62-.41,5-1.33,3.9-5.22,1.41-.15,2.72,0,3.65-.47,1.23-.68,2.83-1.75,3.1-2.92,1.1-4.78.49-5.18-4.4-4.61a12.64,12.64,0,0,1-5.44-.4c-2.22-.77-3.14-2.14-1.63-4.84.95-1.68.44-4.2.52-6.34.06-1.51,0-3,0-4.9-.42-.22-1.2-.55-1.92-1q-3.67-2.31-.52-5.14c2.28-2,3.71-4.15,2-7.41-.47-.88,0-2.61.62-3.65,2.64-4.66,5.37-9.18,6-14.75.12-1,3.21-2.44,4.94-2.45a41.6,41.6,0,0,1,9.88,1.44,51.37,51.37,0,0,1,7.26,2.81c4.25,1.76,8.56,3.42,12.67,5.47,1,.5,1.81,2.32,1.86,3.56.09,2.14-.72,4.31-.74,6.48,0,5-.71,9.78-3.26,14.22a12.51,12.51,0,0,0-1.43,4.67c-.26,2.18-.62,3.81-3.08,4.76-1.07.41-1.46,2.58-2.16,4l4.46.9-.24,1.77-4,1.06c1,1.93,1.7,4.16,3.13,5.7,1.27,1.36,3.46,1.82,5.06,2.93a18.89,18.89,0,0,1,8.63,16.44c0,5.94-.31,11.89.07,17.8.52,8.06-1.33,15.75-3.38,23.32a59.86,59.86,0,0,0-1.53,20.51c.42,5.54,1.6,11,2,16.57a42.61,42.61,0,0,1-.62,10.13c-.52,3.07-.62,5.67,1.63,8.24s1.52,3.94-1.9,4.56c-6.85,1.25-7.28,1.21-7.92,8.08-.51,5.47.24,11.06.35,16.6.07,3.73.69,7.63-.13,11.17-1.87,8,.06,15.47,2.6,22.83,4.74,13.73,9.69,27.39,14.7,41,.52,1.41,2,2.5,3.05,3.67,1.34,1.44,3.2,2.68.95,4.88-.35.35,0,1.35-.14,2-.29,1.06-.53,2.78-1.17,3-2.4.74-2.14,2.31-2,4.13s-.22,3.59.19,5.26c.87,3.57-.91,5-4,5.56-11.7,2.25-23.39,4.54-35.11,6.67-3.11.56-6.32.52-9.47.85a3.78,3.78,0,0,1-4.46-3,80.16,80.16,0,0,1-2.33-10.23,4.35,4.35,0,0,1,3.48-5.19c4.66-1.13,9.35-2.19,14-3.39.81-.21,2-.88,2.08-1.43a2.75,2.75,0,0,0-1.29-2.31c-3.32-1-3.12-3.6-2.91-6.12s.8-5,1-7.5c.31-4.24.51-8.31-1.63-12.46-5.36-10.41-8.12-21.66-9.54-33.26A35.19,35.19,0,0,0,7143.26,7255Zm18-207.56c-3.18.54-2.47-1.48-2.29-3l-2.63-.68.77-.42-1.88-5.66-.8.37-1.6,3.53c3,.74,2,2.72,1.25,4.53l3.11,1-.93,2.91,3.82,1.45Z" transform="translate(-7021.32 -7031.93)"/></svg>