<svg id="Calque_1" data-name="Calque 1" xmlns="http://www.w3.org/2000/svg" viewBox="0 0 260.34 313.01"><title>31</title><path d="M7128.85,7133a13.49,13.49,0,0,0-2.82,5.19c-1.27,4.29-1.14,8.47,1.17,12.42a8.65,8.65,0,0,0,4.62,3.88,128.56,128.56,0,0,0,19.68,5.14,39.18,39.18,0,0,1,10.75,3.25,22.81,22.81,0,0,1,12.6,17.8q2.28,15.61,4.14,31.27c1.07,8.89,2,17.81,2.82,26.73a39.62,39.62,0,0,1-.62,13.53c-.58,2.31-1.53,4.52-2.26,6.8s-1.44,4.55-2.07,6.85a4,4,0,0,0,0,1.88c.37,1.6.77,3.19,1.28,4.75a14.57,14.57,0,0,0,10.7,10.05c2.55.68,5.15,1.17,7.75,1.61a79.45,79.45,0,0,1,10.22,2.34c4.32,1.33,8.8,2.16,13.2,3.24a47.27,47.27,0,0,1,10.19,3.64,18.58,18.58,0,0,1,10.52,14.16,34.61,34.61,0,0,1,.41,10.8,23.79,23.79,0,0,1-1.73,4.93,1.15,1.15,0,0,1-.78.5c-7.59,1.47-15.16,3.07-22.78,4.34-8.86,1.48-17.76,2.77-26.66,3.94-7.39,1-14.81,1.83-22.24,2.42-12.15,1-24.31,1.83-36.48,2.45-15.26.79-30.55,1-45.83.64-9.93-.21-19.87-.47-29.79-1-9.59-.47-19.17-1.17-28.74-1.93-7.74-.61-15.46-1.41-23.18-2.21-4.93-.51-9.84-1.11-14.75-1.74-4.1-.53-6.29-2.84-6.9-7.15a33.72,33.72,0,0,1,.73-11.27c.31-1.58.47-3.19.86-4.75a7.75,7.75,0,0,1,1.18-2.62,31.12,31.12,0,0,1,7.21-7,8.23,8.23,0,0,1,3.86-1.21,60,60,0,0,0,17.47-5.67,67.71,67.71,0,0,1,10-3.66c4-1.18,7.78-2.82,11.68-4.23,1.93-.7,3.88-1.36,5.83-2a9.54,9.54,0,0,1,1.14-.24c.84-.17,1.7-.29,2.52-.54,4.32-1.32,5.75-4.59,3.56-8.57a48.26,48.26,0,0,1-4-8.68c-.4-1.27-.82-2.54-1.27-3.8A16,16,0,0,0,7039,7254a13.72,13.72,0,0,1-3.25-8.31,66.76,66.76,0,0,1,.34-12.25c.49-5.21,1.06-10.41,1.68-15.6.2-1.68.71-3.32,1-5,.5-2.87,1-5.75,1.37-8.64.53-4.42.85-8.86,1.39-13.28.43-3.5,1-7,1.6-10.47a18.59,18.59,0,0,1,2.56-6.66,8.23,8.23,0,0,1,5-3.7c6.56-1.75,12.7-4.58,18.8-7.51q8.13-3.9,16.29-7.71a31.22,31.22,0,0,1,4.12-1.59,8,8,0,0,0,5.61-7.76,21.93,21.93,0,0,0-1.64-8.3c-1.61-4.15-3.36-8.24-5.08-12.34a2.89,2.89,0,0,0-1.12-1.15c0,.34,0,.69,0,1,.11,5.23.27,10.46.29,15.69a24.91,24.91,0,0,1-.64,4.53c-.07.35-.44.65-.68,1a7.49,7.49,0,0,1-.94-.72,5.84,5.84,0,0,1-1.54-4,49.76,49.76,0,0,1,.05-5.75,36.16,36.16,0,0,0-1.92-15c-1.14-3.36-1.77-6.89-2.69-10.32a55.78,55.78,0,0,0-1.82-5.72c-1-2.6.69-4.81,2.83-4.76a1.08,1.08,0,0,0,1.16-1.08,18,18,0,0,0,.21-2.49c0-4.54-.15-9.07-.12-13.61a19.25,19.25,0,0,1,3.11-11,17.54,17.54,0,0,1,6.1-5.22c.6-.34,1.2-.72,1.83-1,2.74-1.24,4.33-3.52,5.5-6.13a57.18,57.18,0,0,0,3.05-7.4c2.44-8.41,4.68-16.88,7-25.33.15-.55.32-1.09.48-1.64l.24,0a5,5,0,0,1,.37.75c1.46,4.84,3,9.67,4.33,14.54s2.28,9.58,3.57,14.33a34,34,0,0,0,2.39,6,10.2,10.2,0,0,0,5.18,4.75,22,22,0,0,1,9.63,8.61,16.82,16.82,0,0,1,2.33,9.59c-.11,4-.31,8.06-.43,12.1,0,1.42.05,2.84.08,4.26,0,.56.23.83.83.69a2.22,2.22,0,0,1,.42,0c1.37-.07,1.92.41,1.87,1.8a17.45,17.45,0,0,1-.39,3.39c-1,4.16-2,8.33-3.14,12.45a66.82,66.82,0,0,0-2.29,15.06c-.19,4.05-.51,8.1-.82,12.15a4.15,4.15,0,0,1-.63,1.31c-.5-.29-1.18-.47-1.48-.9a12.17,12.17,0,0,1-1.72-6.11c-.16-1.83-.23-3.67-.35-5.5C7128.92,7133.69,7128.88,7133.37,7128.85,7133Zm-61.33,73.7c-.16.6-.3,1-.38,1.39-2.29,11.06-4.61,22.11-6.83,33.18-1.08,5.37-.89,5.95,1.9,10.65l0,.07q4.53,7.06,9.06,14.12a6.61,6.61,0,0,0,.84,1c.49.5,1,.43,1.26-.19a8.49,8.49,0,0,0,.74-1.94q2.13-10.63,4.19-21.28a29.47,29.47,0,0,0-2.24-17.76c-1.45-3.31-2.55-6.77-4-10.09-1.19-2.81-2.61-5.52-3.94-8.26A7,7,0,0,0,7067.52,7206.74Z" transform="translate(-6981.1 -7024.74)"/></svg>