<svg id="Calque_1" data-name="Calque 1" xmlns="http://www.w3.org/2000/svg" viewBox="0 0 206.74 313.01"><title>32</title><path d="M7038.09,7137l1.3,2.34.29-.08v-2.78l.31,0,.43,2.75.39,0-.72.9c1.52,1.91,2.71,4.06,5.26,5.08l-.14-2.72.48-.22,1.45,2.15a9.1,9.1,0,0,1,7.66,1.78,9.71,9.71,0,0,1,3.61,7.31,8.73,8.73,0,0,1,1.32.4c.26.12.44.42.65.63-.26.16-.52.42-.8.46a5.44,5.44,0,0,1-1.22-.09,1.39,1.39,0,0,0-.19.22c-.86,1.66-.33,2.86,1.18,3.76a2.14,2.14,0,0,1,.84.75,6.39,6.39,0,0,1,.36,1.42c-.5,0-1.1.11-1.47-.13a24.48,24.48,0,0,1-2.38-2l-2.29,2.15,1.12,2.88-.59.35a7.54,7.54,0,0,1-1.23-1.51c-.47-1-1-1.12-1.86-.42-.06,1,.93,2.52-1.2,2.89v13l7-.71,1.21-4.25-1.84,1.38a3,3,0,0,1,2.24-2.29,4.83,4.83,0,0,0,1.37-.42,4.29,4.29,0,0,1,4.77.26l-1.3.76,1.06,1.71-3.64-1.31,2.15,3.82-.39.24c-1.52-1-1.67-3.5-3.94-3.92-.32,1.39-.72,2.77-.89,4.18,0,.36.61.81.95,1.23l.83,1-1.18.32-.76.25c.47,1.08.94,2.07,1.33,3.09a1.22,1.22,0,0,1-.16.9c-.07.13-.57.2-.63.12a2.75,2.75,0,0,1-.3-.85c-.11-.4-.1-.93-.35-1.19a15.48,15.48,0,0,0-2.72-2.24c.24,2.11,1.36,4.06.43,6.29-1.24-2.44-.94-5.4-3-7.82-.95,2.41-2.64,4.16-2.65,6.77,0,7.9-.06,15.81-.3,23.71-.29,9.75-.76,19.5-1.21,29.24-.39,8.4-.62,16.82-1.35,25.19-.91,10.39-2,20.79-3.52,31.1-1.31,8.75-3.43,17.37-5.09,26.07-1,5.25-1.8,10.54-2.64,15.82-.12.77-.34,1.12-1.17,1.06-1.09-.07-2.18,0-3.36,0,.7-3.94,1.39-7.8,2.07-11.67,2.29-13,4.64-25.9,6.84-38.86a213.75,213.75,0,0,0,3.16-27.16c.24-6,.7-12,1-18.06.46-10,.86-19.94,1.27-29.91q.47-11.58.88-23.16c0-.94,0-1.88,0-2.81a.79.79,0,0,0-.27-.54c-.93-.69-1.88-1.34-2.83-2l-.24.24c.36.57.73,1.14,1.08,1.71.8,1.31,1.32,2.66.55,4.2-.11.21.08.57,0,.82a10.66,10.66,0,0,1-.5,1.26c-.28-.14-.8-.33-.79-.41a4.24,4.24,0,0,1,.48-1.09c.05-.1.18-.15.36-.29l-1.91-5.36-.4,0c-.07,2.7-.29,5.34-2.53,7.37l1.8-9.18-.36-.2-7.29,4.92-.21-.31c1.63-2.5,4.23-3.66,6.93-4.68l-.07-.34h-4.33a4.26,4.26,0,0,1,4.5-.83c1.21.49,2.44.94,3.63,1.46.72.31,1.41.71,2.21,1.12,0-.38.07-.74.07-1.09,0-3.15,0-6.29,0-9.44,0-1.93-.31-3.85-.33-5.78,0-1.46.23-2.92.35-4.37,0-.61.07-1.18-.74-1.37s-1.31-.92-2,.05c-.19.28-.59.41-1.21.82a9.79,9.79,0,0,0,.33-1.6,6.52,6.52,0,0,0-.23-1.26c-.39.08-.88,0-1.14.26-.79.7-1.42,1.58-2.24,2.22-.4.31-1.09.25-1.65.36a4.25,4.25,0,0,1,.36-1.65,16.23,16.23,0,0,1,2.13-2.16,1.43,1.43,0,0,0,.17-2.35c-1,1.21-2.07.41-3.24,0,.14-1.8,1.87-1.32,2.82-2v-3.43l-9.74-2-1.47,3.94-.45-.15.44-1.52-.92.31c-1,.3-2,.62-2.95.87-.13,0-.33-.24-.5-.38.2-.14.43-.42.61-.4a3,3,0,0,0,2.93-1.46l-3.57-.43,0-.52h4l.07-.55-3.22-.83c0-.11.45-.24,3-.57l-1.93-2.31.25-.26,3.19,3v-1.92l.16-.05.67,1.82c1.4,0,2.76.61,4.32-.08.9-.39,2.21.16,3.33.31s2,.29,3.22.48c-1.15-1.7-1.42-3.55-3-4.7A20.72,20.72,0,0,1,7036,7141l1-.67-1.53-1.36,2.6.83.13-.24-1.46-1.74.13-.16.88.36Z" transform="translate(-7007.8 -7024.74)"/><path d="M7156.59,7162.39c-2.93-1.91-3.7-4.88-4.11-8l-.42-.06-1.59,5a14.65,14.65,0,0,1,1.43,1.18c.05.06-.23.65-.41.68a6,6,0,0,1-1.34-.05c0-1.2,0-2.16,0-3.12,0-2,.2-3.81,2.06-5a2.9,2.9,0,0,0,.78-1.11c1.25-2.35,2.74-4.38,5.56-4.92.35-.07.63-.46,1-.51a2.28,2.28,0,0,1,1.14.25.71.71,0,0,1,.06.63c-.3.25-.84.66-1,.55-1.69-1.07-2.38.43-3.35,1.23l-1.83,1.47.37.5c.39-.14.78-.27,1.17-.42a20.31,20.31,0,0,1,3.29-1.25,9.66,9.66,0,0,1,2.67.23,5.12,5.12,0,0,1,2.54.55c-.11.29-.18.8-.35.84-.43.1-1.22.14-1.31-.06-.42-.92-1-.62-1.65-.44-1.7.46-3.42.88-5.12,1.33a1.32,1.32,0,0,0-.79.58,21.16,21.16,0,0,1,3.5.48,16,16,0,0,1,3.49,1.63c.74.44,1.17,1.48,2.33.91.12-.06.62.39.72.69a.9.9,0,0,1-.48.74c-.4,0-1.16-.08-1.2-.26-.21-1-1-.94-1.63-1.12-2.78-.81-5.56-1.6-8.23-2.37-.86.66-.75,1.31-.37,2.14C7154.57,7157.58,7155.56,7160,7156.59,7162.39Z" transform="translate(-7007.8 -7024.74)"/><path d="M7204.66,7040.52c-2-1.42-3-3.14-2.67-5.58a12.32,12.32,0,0,0-.36-3.21,5.94,5.94,0,0,1,1.47-5.14l-.52,5.27.37.11,1.05-2.16c.86-1.75,1.61-3.61,3.95-3.82.18,0,.27-.5.49-.62a4.13,4.13,0,0,1,1.29-.45c.09,0,.42.61.36.67-.32.34-.83.91-1.09.82-.89-.28-1.21.24-1.6.82-.66,1-1.37,1.93-2,2.93a2.83,2.83,0,0,0-.18,1c.33,0,.72.06,1-.09a8.55,8.55,0,0,1,5.86-1.51c.23,0,.51-.45.81-.56a8.33,8.33,0,0,1,1.34-.27c0,.35.23.88.08,1a2.57,2.57,0,0,1-1.23.46c-.44.07-1-.13-1.35,0q-3.7,1.61-7.34,3.36a13.07,13.07,0,0,0-1.78,1.3l9.26,4.53c.21-.26.36-.6.58-.67a5.48,5.48,0,0,1,1.26-.12c0,.35.17.86,0,1a1.7,1.7,0,0,1-1.17.41c-.74-.07-1.46-.38-2.2-.46a10.86,10.86,0,0,1-6.06-2.87c-.31-.27-.64-.51-1-.76l-.34.18Z" transform="translate(-7007.8 -7024.74)"/><path d="M7088.59,7107.27,7086,7117a16,16,0,0,0,2.14-.59q3.69-1.63,7.33-3.37c.37-.18.57-.7.9-1a2.54,2.54,0,0,1,1.15-.69c.21,0,.49.52.74.81a12.13,12.13,0,0,1-1.15.75c-.3.15-.82.09-.95.3-1.52,2.55-4,3.27-6.66,3.85l-.73.14s-.06.05-.29.25a7.09,7.09,0,0,0,1,.3c1.88.21,3.76.43,5.64.54.41,0,.84-.43,1.28-.6a3.91,3.91,0,0,1,1.33-.33c.15,0,.3.5.45.77a12,12,0,0,1-1.25.6c-.25.09-.65-.07-.82.07-1.62,1.37-3.38,1-5.15.49-.84-.22-1.67-.48-2.5-.72l-.21.35,4.21,3.05a4.61,4.61,0,0,1-3.74-1.33c-.67-.57-1.21-1.28-1.84-1.9a25.79,25.79,0,0,0-2.08-1.93c-1.63-1.28-1.93-3.09-2.06-5,0-.41-.14-.82-.13-1.22a11.89,11.89,0,0,1,.19-1.38l1.33.37c-.27.39-.53.79-.81,1.17-.06.08-.21.1-.5.22l2.5,5.15.42,0C7085.64,7112.79,7085.9,7109.63,7088.59,7107.27Z" transform="translate(-7007.8 -7024.74)"/><path d="M7030.1,7180.78l-2.28-3.25a2.43,2.43,0,0,0-1-.93,16.46,16.46,0,0,1,.28,2.83,40.1,40.1,0,0,1-.7,5.49c-.15.72-.87,1.31-1.33,2h0c.17-1.06.39-2.12.51-3.19.26-2.43.47-4.87.7-7.3l-.31-.3a24.45,24.45,0,0,0-2.59,1.63c-2,1.61-3.89,3.3-6,5.14a6.71,6.71,0,0,1,2.53-4.22c1.19-1,2.53-1.72,3.81-2.57l-.06-.33-7,1,0,0c.18-1.42,1.35-1.81,2.41-2a21.59,21.59,0,0,1,3.72-.11h1.35l.14-.33-4.88-2.26c-.2.37-.28.76-.51.91a2.69,2.69,0,0,1-1.21.39c-.11,0-.43-.56-.36-.67.23-.35.57-.83.91-.86,2.61-.23,5.06.1,7,2.22a6.7,6.7,0,0,0,2,1.36c2.23,1.12,2.72,3.15,2.88,5.38Z" transform="translate(-7007.8 -7024.74)"/><path d="M7137.43,7067.68c-.56,1.44-1.88,1.62-3.11,1.72a29.19,29.19,0,0,1-3.62-.16c-.37,0-.75,0-1.12,0l-.05.33,5.36,2.28c.1-.27.11-.47.21-.54a6.57,6.57,0,0,1,1.36-.74c.08,0,.35.53.54.81a3.35,3.35,0,0,1-2.79.61,7.17,7.17,0,0,1-5.27-2,8.42,8.42,0,0,0-2.27-1.41,6.12,6.12,0,0,1-3.66-5.3l0,0,3.26,3.84.29-.14a9.92,9.92,0,0,0-.14-1.17,9.56,9.56,0,0,1,1-7.83.86.86,0,0,0,.13-.68c-.33-.77,0-1.19.7-1.26.34,0,.71.37,1.07.57-.37.33-.72.67-1.11,1-.11.09-.31.08-.5.13-.12,1.77-.24,3.5-.34,5.23a35,35,0,0,0,0,5.34l8.62-6.12c-.6,3.23-3.34,4.18-5.74,5.5l.12.4,7-.56Z" transform="translate(-7007.8 -7024.74)"/><path d="M7127.21,7114A10.15,10.15,0,0,1,7126,7117a20.46,20.46,0,0,1-3.39,2.78,12,12,0,0,1-1.22.74l.14.38,7-1.37c.17-.43.23-1,.52-1.22a2,2,0,0,1,1.23-.26c.12,0,.39.56.32.68a2.62,2.62,0,0,1-.85.78c-.22.14-.66.05-.78.22-1.68,2.44-4.21,2.07-6.62,2.09-.45,0-.91,0-1.36-.07l-.12.36,5.35,1.82c-2.16.71-4-.06-5.71-1.11a14.57,14.57,0,0,0-2.73-1.47c-2.38-.8-3.18-2.76-3.78-4.93l3.54,3.81.35-.15c-.71-3-1.66-6.07,0-9h.42v9.79c2.13-.31,3-1.88,4.29-2.88,1.58-1.26,3-2.68,4.53-4Z" transform="translate(-7007.8 -7024.74)"/><path d="M7028.72,7123.53c1.85,1.88,1.79,4.26,1.66,6.64a21.17,21.17,0,0,0-.2,3.34c1-1.49,2.1-3,3.1-4.49.06-.09-.36-.43-.45-.69a8.65,8.65,0,0,1-.27-1.16c.42-.06.89-.27,1.22-.13s.28.74.21,1.1c-.11.55-.44,1.06-.59,1.61-.61,2.25-1.37,4.27-4,4.9-.74.18-1.26,1.19-1.94,1.74a7.12,7.12,0,0,1-4.87,1.86l-.16-.33,4.68-2.27-.11-.36a21.77,21.77,0,0,1-3.37.23,14.05,14.05,0,0,1-3.35-.79c-.34-.12-.54-.69-.8-1.06l0,0,7.76.63c-2.94-1.51-5.92-2.85-6.75-6.5l0,0c2.1,1.59,4.2,3.19,6.32,4.76a5.76,5.76,0,0,0,1.3.54l.16-.37,1,1.19.32-.11-.69-10.37Z" transform="translate(-7007.8 -7024.74)"/><path d="M7018.33,7138.92a7.76,7.76,0,0,1,1.36,6.71c-.07.36.17.77.14,1.15a14.54,14.54,0,0,1-.39,3.31,5.16,5.16,0,0,1-1.75,2.19l1.33-4.42-.25-.19c-2.1,2.17-4.18,4.38-7.8,4.65l8.21-5.55a5.32,5.32,0,0,0-1.18-.77q-3.76-1-7.54-2c-.39-.1-.85.12-1.28.1a11.61,11.61,0,0,1-1.38-.21,5.55,5.55,0,0,1,.18-.86,7.29,7.29,0,0,1,1.37.25c.09,0,.14.19.27.39,2.59-1.29,5-.18,7.43.79l.18-.27a8.53,8.53,0,0,0-.69-1c-.7-.79-1.44-1.54-2.16-2.32-.53-.56-1-1.31-1.95-.73-.16.09-.69-.15-.81-.37a.88.88,0,0,1,.21-.85,1.51,1.51,0,0,1,1.06,0,5.58,5.58,0,0,1,1.69.74,21.3,21.3,0,0,1,2.73,2.32,12,12,0,0,1,1.31,2l.36-.14c-.21-1.09-.44-2.18-.61-3.27a11.58,11.58,0,0,1,0-1.6Z" transform="translate(-7007.8 -7024.74)"/><path d="M7191.84,7080.28l1.64,4a4.32,4.32,0,0,1-2.42-3.74c-.06-1.39-.16-2.78-.26-4.16a4.75,4.75,0,0,1,1.24-4.09l-.34,3.95.27.13c.18-.27.38-.52.55-.8a32,32,0,0,1,1.76-2.93,5.81,5.81,0,0,1,1.54-1c.32-.21.61-.47.95-.65a3.26,3.26,0,0,1,1.07-.4c.1,0,.41.6.36.65a3.39,3.39,0,0,1-1,.73c-.16.07-.44-.13-.67-.21l-3.56,5.15.17.24c.35-.2.73-.37,1.06-.61,1.69-1.18,3.45-2.11,5.62-1.8.29,0,.62-.39,1-.53a2.07,2.07,0,0,1,1-.22c.12,0,.34.62.26.71a2.13,2.13,0,0,1-1,.6,15.42,15.42,0,0,0-2.1.36c-1.71.7-3.39,1.49-5,2.31a24,24,0,0,0-2.23,1.45l8.08,4c.2-.23.33-.51.53-.58a5.31,5.31,0,0,1,1.11-.15c0,.3.15.79,0,.87a2.12,2.12,0,0,1-1.17.34c-.45,0-.88-.33-1.33-.35a8.58,8.58,0,0,1-5.28-2.13c-.47-.4-.93-.82-1.4-1.24Z" transform="translate(-7007.8 -7024.74)"/><path d="M7021.25,7159.71l-5.28-2.3c-.24.22-.45.53-.73.62a2.06,2.06,0,0,1-1-.05c-.09,0-.2-.45-.13-.52a1.92,1.92,0,0,1,.88-.6,6,6,0,0,1,2.25-.11,22.54,22.54,0,0,1,3.36,1.23,7.8,7.8,0,0,1,1.2.77l.27-.26-2-3.53c1.82.49,2.44,1.79,2.92,3.22.4,1.17.82,2.33,1.22,3.49.58,1.67,0,3.15-.82,4.93v-4.75c-1.51,2.57-2.84,5.23-5.79,6.53l5.46-7.21-.14-.38c-2.39.35-4.79.67-7.18,1.07-1,.17-2.09.09-2.81,1.13-.14.2-.8,0-1.23,0l-.09-.47c.34-.27.83-.83,1-.75,1.13.57,1.71-.39,2.47-.78a10.38,10.38,0,0,1,6.11-.92Z" transform="translate(-7007.8 -7024.74)"/><path d="M7168.42,7056.35l-.53,4.3.4.11c.36-.72.71-1.44,1.08-2.15a4.32,4.32,0,0,1,2.62-2.41c.31-.09.52-.51.82-.69a1.47,1.47,0,0,1,.88-.19c.13,0,.35.5.29.6-.19.28-.62.73-.76.67-1-.42-1.22.37-1.6.92a23.47,23.47,0,0,0-2.28,3.76,6.34,6.34,0,0,0,1-.49,7.08,7.08,0,0,1,4.88-1.67c.4,0,.81-.41,1.25-.55a2,2,0,0,1,.93,0c.09,0,.22.43.15.54-.17.26-.5.66-.68.62-2-.5-3.43,1-5.09,1.66a37.8,37.8,0,0,0-3.87,2c2.36,1.54,4.88,2.37,7.43,3.85-3.1.24-5.06-1.31-7-3l-.25.2,1.43,3.54a3.83,3.83,0,0,1-2.15-3c-.15-1.55-.22-3.1-.29-4.65a4.5,4.5,0,0,1,1.36-3.92Z" transform="translate(-7007.8 -7024.74)"/><path d="M7180.69,7127.51l.32,4.08.37.14c1-2.46,2.13-4.73,4.86-5.63-1.29,1.67-2.59,3.32-3.84,5a1.62,1.62,0,0,0-.35,1.27c.12.27.79.43,1.21.41,2.39-.11,4.77-.29,7.19-.29-1.9,1.78-4.23,1.5-6.56,1.16l-.09.36c.47.27.93.55,1.41.8a24.3,24.3,0,0,0,2.74,1.28,5.64,5.64,0,0,0,1.57,0,4,4,0,0,1,1.14.18c.09,0,.12.61.07.63a3.61,3.61,0,0,1-1.11.24c-.17,0-.4-.33-.53-.28-2.5.83-4.11-.88-5.91-2.06a2.72,2.72,0,0,0-.57-.08l2.28,3.41-.25.28a8.31,8.31,0,0,1-1.88-1.78,34.59,34.59,0,0,1-2.76-6c-.27-.87.44-2.06.7-3.11Z" transform="translate(-7007.8 -7024.74)"/><path d="M7078.28,7175.56c-1.88-1.34-3.74-2.71-5.66-4a10.11,10.11,0,0,0-2.11-.77l1,8.41c-2-2.4-1.72-5.15-1.54-8.06l-.85,1.19-1.76,2.45h0c.43-2,.87-4,3.25-4.82.63-.21,1-1.07,1.58-1.59a5.37,5.37,0,0,1,4.24-1.68l-3.95,2.32.11.32,2.85-.4a2.94,2.94,0,0,1,3.39,1.48l0,0h-6.24c2.48,1.23,5.11,2.13,5.68,5.19Z" transform="translate(-7007.8 -7024.74)"/><path d="M7116.1,7157.18l2,2.13-.23.3c-.73-.56-1.75-1-2.15-1.7-1.26-2.29-4.19-3.85-3.17-7.36l1.19,3.52c.76-2.08,1.07-4.34,3.35-5.85l-2.79,6.5c2.73.39,5-1.12,7.46-1.41-.68,1.2-.68,1.2-5.84,2.38a13.57,13.57,0,0,0,1.28.51c1,.26,2,.47,2.93.74.6.16,1.17.48,1.65-.28.09-.15.6-.1.89,0,.11,0,.22.54.15.6a2.16,2.16,0,0,1-.84.37,3.88,3.88,0,0,1-1.14.11c-1.06-.09-2.12-.19-3.16-.37a7,7,0,0,1-1.35-.52Z" transform="translate(-7007.8 -7024.74)"/><path d="M7177.65,7110a18,18,0,0,1-3.52.11c-1.12-.19-2.18-.76-3.46-.94l1.64,1.87-.09.17a6,6,0,0,1-1.51-.93,36.61,36.61,0,0,1-3.35-4.23,8,8,0,0,1-.59-2.66l.45-.11.94,2.9.32.08c.44-2,1.31-3.63,3.3-4.41l-3.29,5.14c1,0,1.79,0,2.54,0,1.34-.09,2.69-.17,4-.37a21.25,21.25,0,0,0,2-.65,2.45,2.45,0,0,1,1.06,0c.08,0,.1.35.15.54a7.48,7.48,0,0,1-.92.22c-.24,0-.58-.15-.73,0-1.59,1.18-3.42,1-5.22,1,0,0-.09.11-.28.36,1.53.55,3,1.16,4.47,1.54C7176.14,7109.77,7176.8,7108.73,7177.65,7110Z" transform="translate(-7007.8 -7024.74)"/><path d="M7045.23,7127c.11,1.65.11,1.65-1.93,5.54l2.61-1.17c-1.8,2.37-5.85,2.88-9.51,1.14l1.53-1-1.39-2.73c.53.15,1.15.31,1.15.33-.31,1.29.92,1.31,1.5,1.83a7,7,0,0,0,1.25.73l.25-.21a9.52,9.52,0,0,1-.49-1c-.29-.83-.54-1.68-.8-2.52-.14-.44-.28-.89-.39-1.34,0-.19-.12-.45,0-.57a.57.57,0,0,1,.54-.17.76.76,0,0,1,.36.57c-.28,1.88,1.17,3.13,1.71,4.7,0,.12.49.09.78.13l.2,1.07.29.08Z" transform="translate(-7007.8 -7024.74)"/><path d="M7140,7092.22l.88,3.17.3.06a8.77,8.77,0,0,1,2.51-5.11l.31.15-2.53,5.3c2.55.75,4.62-.73,7.07-.84-1.49,1.76-3.42,1.77-5.35,2,1.74.32,3.15,1.94,5.13,1.07a1.29,1.29,0,0,1,.82,0c.08,0,.14.47.07.52a2.36,2.36,0,0,1-.77.3,6.33,6.33,0,0,1-5.4-1.12l-.19.38,2,2.19C7142.5,7100.21,7139.22,7094.78,7140,7092.22Z" transform="translate(-7007.8 -7024.74)"/><path d="M7145.3,7041.1l-2.38-3.66.42-.28c.59.85,1.15,1.71,1.77,2.53a6.52,6.52,0,0,0,1,.86c.34-.41.86-.78,1-1.25.32-1.4.45-2.84.72-4.26,0-.24.41-.41.63-.61l.25.19-.76,5.47c.8-1.18,2.35-1.41,2.24-3.07,0-.15.48-.33,1-.66l-.91,2.84h1.26c-.59,2.26-6,3.27-8.43,1.48Z" transform="translate(-7007.8 -7024.74)"/><path d="M7073,7162.1c-1.85-.65-2.39-2.31-3.34-3.88l-.3,2.71c-.5-1.37-.94-2.7.3-4,.39-.41.34-1.22.63-1.77a20.59,20.59,0,0,1,1.36-2l.35.24-1.24,2c.55-.21.89-.24,1.09-.43,1.15-1.14,2.63-.79,4-.9.15,0,.32.29.48.45-.25.15-.59.48-.74.41-1.84-.85-2.74.92-4.12,1.33,3.69.11,3.95.66,4.74,1.47-1.56-.19-2.9-.41-4.24-.5a2,2,0,0,0-1.34.44c-.14.12.07.82.27,1.16C7071.59,7160,7072.33,7161,7073,7162.1Z" transform="translate(-7007.8 -7024.74)"/><path d="M7210.84,7134.16l-3.21,3.75a7.06,7.06,0,0,0,1.83.54c1.48,0,3-.19,4.44-.26.21,0,.42.17.63.26-.15.16-.28.44-.44.47a38.87,38.87,0,0,0-4.62.75l2.53,1.77-1.26.22-.29,1.14a8.28,8.28,0,0,1-1-.55,4.34,4.34,0,0,1-1.92-3.25,2.56,2.56,0,0,0-.44-1,2.49,2.49,0,0,1,.26-2.93v2.25l3.16-3.44Z" transform="translate(-7007.8 -7024.74)"/><path d="M7109,7134a5.83,5.83,0,0,1-.6.88c-1.44,1.42-2.86,2.87-4.38,4.19a1.74,1.74,0,0,1-1.61.26c-.7-.5-.31-1.21.21-1.72,1.46-1.4,2.91-2.81,4.42-4.15a2,2,0,0,1,1.37-.37C7108.62,7133.11,7108.79,7133.66,7109,7134Z" transform="translate(-7007.8 -7024.74)"/><path d="M7187.79,7040a7.51,7.51,0,0,1-.91,1.15c-1.49,1.24-3,2.5-4.54,3.62a1.82,1.82,0,0,1-1.7.13c-.7-.68-.05-1.29.52-1.75,1.51-1.21,3-2.46,4.56-3.59a2.49,2.49,0,0,1,1.48-.18C7187.38,7039.35,7187.55,7039.7,7187.79,7040Z" transform="translate(-7007.8 -7024.74)"/><path d="M7032.89,7170.5l4.34-1.18-2.18-1.16c1.41.09,2.59.17,3.29,1.5.21.4.87.54,1.15.93a13.52,13.52,0,0,1,1.41,2.42c.13.3-.13.77-.22,1.17l-.86-1-.68,1.42h-.31l-.41-3.18-.31-.12c-.29,2.11-1.76,3.32-3.12,4.65,1.09-1.9,2.46-3.64,2.71-6.21L7033,7171Z" transform="translate(-7007.8 -7024.74)"/><path d="M7115,7078.73c.25.15.76.3.81.55a1.31,1.31,0,0,1-.35,1.1,7.6,7.6,0,0,1-1.75.93c-1.42.61-2.84,1.26-4.31,1.74a1.72,1.72,0,0,1-1.55-.36c-.5-.69.16-1.17.74-1.43,1.88-.82,3.78-1.58,5.68-2.36A5.75,5.75,0,0,1,7115,7078.73Z" transform="translate(-7007.8 -7024.74)"/><path d="M7031.75,7162.29h-4.34v-.36c1.33-.62,2.71-.17,4.09,0l.23-.29-1.65-1.2a2.24,2.24,0,0,1,2.43,1.55c.24.61.73,1.13.93,1.75a12.73,12.73,0,0,1,.53,2.63c0,.3-.31.63-.48.95l-.65-1-1.31,1.22.63-3.44-3,2.58-.26-.27,3.07-3.77Z" transform="translate(-7007.8 -7024.74)"/><path d="M7134,7145.66a19.36,19.36,0,0,1,2.89,0c.45.07.84.6,1.26.92-.42.32-.85.91-1.27.9-2.08,0-4.17-.14-6.25-.32-.38,0-.74-.45-1.1-.69.4-.37.77-1,1.22-1.06a22.55,22.55,0,0,1,3.26-.05Z" transform="translate(-7007.8 -7024.74)"/><path d="M7065.12,7128l-1-.69c.32-.43.58-1.15,1-1.23,2.12-.46,4.27-.78,6.42-1.08.35,0,.75.31,1.12.48a4.06,4.06,0,0,1-.72,1.06,2.84,2.84,0,0,1-1.17.37C7069,7127.26,7067.19,7127.59,7065.12,7128Z" transform="translate(-7007.8 -7024.74)"/><path d="M7177.63,7083c.28.15.73.25.81.48a1.16,1.16,0,0,1-.2,1c-1.54,1.3-3.12,2.56-4.74,3.77a1.08,1.08,0,0,1-1.06-.2,1.11,1.11,0,0,1,.08-1.09c1.5-1.29,3.06-2.5,4.61-3.73A3.05,3.05,0,0,1,7177.63,7083Z" transform="translate(-7007.8 -7024.74)"/><path d="M7173.95,7030.76l-2.45.25c.21,1.55,1.31.53,2.24.73-.7.92-1.43.32-1.93.22-1.67-.33-3.94-3.08-4-4.71l1,1.32,1.09-3.36.37.11-.87,3.82a17.76,17.76,0,0,0,2.29-.4,20.12,20.12,0,0,0,2.16-.95l.21.36-3,1.79,2.9.46Z" transform="translate(-7007.8 -7024.74)"/><path d="M7167,7135.82c-2-.37-3.74-.65-5.45-1-.33-.07-.57-.55-.85-.84.39-.25.8-.76,1.15-.71,1.82.24,3.63.58,5.42,1,.33.07.56.59.84.91Z" transform="translate(-7007.8 -7024.74)"/><path d="M7150.46,7072c-.17-.14-.49-.28-.58-.51a.87.87,0,0,1,.12-.79c1.48-1.24,3-2.46,4.52-3.63.2-.15.73,0,1,.16a.86.86,0,0,1,0,.79c-1.56,1.32-3.16,2.6-4.76,3.88C7150.74,7071.94,7150.64,7071.94,7150.46,7072Z" transform="translate(-7007.8 -7024.74)"/><path d="M7201.17,7034.91l-11.95,3.83A20.33,20.33,0,0,1,7201.17,7034.91Z" transform="translate(-7007.8 -7024.74)"/><path d="M7074.62,7124.53l10.26-6.38A19.14,19.14,0,0,1,7074.62,7124.53Z" transform="translate(-7007.8 -7024.74)"/><path d="M7100.57,7159a15.11,15.11,0,0,1,2.14,0c.33,0,.61.42.91.65-.25.25-.49.68-.76.71a42.27,42.27,0,0,1-4.51.22c-.37,0-.73-.5-1.1-.77a4,4,0,0,1,1.19-.68,13.25,13.25,0,0,1,2.14,0Z" transform="translate(-7007.8 -7024.74)"/><path d="M7126.31,7069.56a21.68,21.68,0,0,1-7.6,7.88l-.32-.34Z" transform="translate(-7007.8 -7024.74)"/><path d="M7151.82,7108c1.76.21,3.21.35,4.66.59.33.05.6.46.89.7-.37.18-.74.51-1.1.5a37.25,37.25,0,0,1-4.24-.4c-.43-.07-.8-.55-1.19-.84Z" transform="translate(-7007.8 -7024.74)"/><path d="M7131.57,7100.36a5.42,5.42,0,0,1-1.54.61,32.53,32.53,0,0,1-3.74-.11c-.3,0-.58-.36-.87-.56.19-.25.39-.72.58-.72,1.69,0,3.38.12,5.08.21C7131.16,7099.8,7131.24,7100,7131.57,7100.36Z" transform="translate(-7007.8 -7024.74)"/><path d="M7190.43,7079.33l-10,3.23C7181.73,7081,7184.89,7079.95,7190.43,7079.33Z" transform="translate(-7007.8 -7024.74)"/><path d="M7179.83,7133.17a18.16,18.16,0,0,1-10.32,1.81Z" transform="translate(-7007.8 -7024.74)"/><path d="M7157.53,7066.43a13.47,13.47,0,0,1,8.46-2.7Z" transform="translate(-7007.8 -7024.74)"/><path d="M7194.43,7138c1-.83,3.85-.14,4.6,1C7198.13,7139.63,7195.74,7139.11,7194.43,7138Z" transform="translate(-7007.8 -7024.74)"/><path d="M7145.47,7050.22c-.49.85-.9,1.67-1.42,2.42a8,8,0,0,1-1.19,1.14,12.75,12.75,0,0,1,.45-1.74,10,10,0,0,1,1-1.87,1.45,1.45,0,0,1,.83-.4C7145.22,7049.76,7145.37,7050.07,7145.47,7050.22Z" transform="translate(-7007.8 -7024.74)"/><path d="M7140.19,7097.48l-6.4,2.56-.2-.5,6.45-2.5Z" transform="translate(-7007.8 -7024.74)"/><path d="M7158.77,7034.93c.58-1.25,3-1.71,4.32-.81Z" transform="translate(-7007.8 -7024.74)"/><path d="M7123,7063.31a3.09,3.09,0,0,0-.48-.71c-.56-.47-.61-1,0-1.32.34-.18.89,0,1.34.05-.14.41-.26.83-.43,1.23a6.52,6.52,0,0,1-.46.77Z" transform="translate(-7007.8 -7024.74)"/><path d="M7016.66,7176.78c0,.25.08.58,0,.73a9.22,9.22,0,0,1-1.1,1l-.66-.89a13.57,13.57,0,0,1,1.24-.89c.13-.07.39.08.59.13Z" transform="translate(-7007.8 -7024.74)"/><path d="M7205,7041a12.47,12.47,0,0,1,1.68-.06c.08,0,.26.7.14.83-.27.3-.79.68-1.06.59s-.63-.66-.93-1Z" transform="translate(-7007.8 -7024.74)"/><path d="M7122.95,7115.41c-.41-.52-.89-1-.82-1.07a2.55,2.55,0,0,1,1-1c.14-.07.83.57.78.68A7,7,0,0,1,7122.95,7115.41Z" transform="translate(-7007.8 -7024.74)"/><path d="M7025.08,7186.88c.13.21.41.46.37.61a3.25,3.25,0,0,1-.67,1.27c-.09.09-.66-.28-1-.43a8.08,8.08,0,0,1,.65-1.19c.13-.16.45-.17.68-.25Z" transform="translate(-7007.8 -7024.74)"/><path d="M7030.07,7180.81c.19.32.52.62.54,1a1.9,1.9,0,0,1-.33,1.28c-.16.19-.74,0-1.12,0a8.2,8.2,0,0,1,.3-1.32,5,5,0,0,1,.64-.93Z" transform="translate(-7007.8 -7024.74)"/><path d="M7118.67,7110.93c-.36-.58-.76-1-.68-1.14a2,2,0,0,1,1-.86c.2-.06.56.44.84.69Z" transform="translate(-7007.8 -7024.74)"/><path d="M7160.86,7157.58c-.7.32-1.12.66-1.51.63s-.51-.56-.77-.86c.37-.24.73-.62,1.13-.66S7160.29,7157.12,7160.86,7157.58Z" transform="translate(-7007.8 -7024.74)"/><path d="M7092.15,7110.44l1,1.13c-.35.29-.67.72-1.06.82-.24.06-.89-.48-.86-.6A5.68,5.68,0,0,1,7092.15,7110.44Z" transform="translate(-7007.8 -7024.74)"/><path d="M7019.45,7133.67c-.21,0-.47.17-.61.08a11.71,11.71,0,0,1-1.16-.84c.32-.26.78-.81.93-.74a3,3,0,0,1,.9,1c.07.1-.05.32-.08.48Z" transform="translate(-7007.8 -7024.74)"/><path d="M7127.25,7114c0-.36-.16-.84,0-1a1.84,1.84,0,0,1,1.13-.53c.19,0,.66.49.61.59a1.87,1.87,0,0,1-.74.87,2.66,2.66,0,0,1-1.05.08Z" transform="translate(-7007.8 -7024.74)"/><path d="M7145.48,7048.29l.82-5.59.4.06-.79,5.6Z" transform="translate(-7007.8 -7024.74)"/><path d="M7137.34,7067.58c.21-.47.32-1.08.68-1.35s.83.18,1.27.29c-.21.34-.35.79-.65,1a3.19,3.19,0,0,1-1.21.18Z" transform="translate(-7007.8 -7024.74)"/><path d="M7095.55,7121.83c-.73.42-1.11.79-1.53.83s-.59-.42-.88-.65c.33-.31.62-.79,1-.88S7094.85,7121.45,7095.55,7121.83Z" transform="translate(-7007.8 -7024.74)"/><path d="M7028.76,7123.49c-.25,0-.56,0-.72-.12a6.47,6.47,0,0,1-.81-.92l1-.72a6.52,6.52,0,0,1,.71,1.1c.07.17-.16.46-.25.69Z" transform="translate(-7007.8 -7024.74)"/><path d="M7020.44,7127.82c-.2,0-.46.13-.6,0a9.72,9.72,0,0,1-1-.79l1-.83a8.82,8.82,0,0,1,.78,1c.06.11-.13.37-.2.57Z" transform="translate(-7007.8 -7024.74)"/><path d="M7022.7,7182.85c-.68.4-1,.75-1.46.8-.22,0-.51-.47-.76-.72a4,4,0,0,1,1.07-.88C7021.74,7182,7022.12,7182.43,7022.7,7182.85Z" transform="translate(-7007.8 -7024.74)"/><path d="M7159,7163.31c-.65.39-1,.78-1.43.79s-.55-.53-.83-.83c.36-.26.7-.64,1.1-.72S7158.45,7162.91,7159,7163.31Z" transform="translate(-7007.8 -7024.74)"/><path d="M7137.14,7062.26c-.38-.52-.81-.89-.74-1.07a1.45,1.45,0,0,1,.85-.84c.25-.05.61.39.92.61Z" transform="translate(-7007.8 -7024.74)"/><path d="M7024.73,7126.41c.36.59.72.94.73,1.29s-.57.66-.82.61-.62-.48-.93-.75Z" transform="translate(-7007.8 -7024.74)"/><path d="M7115.33,7115.06c-.62.44-1,.84-1.38.92-.23,0-.56-.43-.85-.68.32-.33.58-.8,1-.95C7114.29,7114.28,7114.71,7114.7,7115.33,7115.06Z" transform="translate(-7007.8 -7024.74)"/><path d="M7127.7,7124.54c-.38-.46-.86-.88-.8-1a1.75,1.75,0,0,1,1-.88c.25-.05.61.45.92.7Z" transform="translate(-7007.8 -7024.74)"/><path d="M7088.81,7107.25c-.33-1.32-.12-1.92.79-1.87.3,0,.57.45.86.7Z" transform="translate(-7007.8 -7024.74)"/><path d="M7209.23,7033.78a7.52,7.52,0,0,1,1.55-.89c.18,0,.49.39.74.61a4.48,4.48,0,0,1-1.07,1C7210.25,7034.55,7209.84,7034.14,7209.23,7033.78Z" transform="translate(-7007.8 -7024.74)"/><path d="M7203.32,7026.28c-.15-.93.14-1.52,1-1.55.23,0,.7.54.66.78C7204.85,7026.55,7204.05,7026.31,7203.32,7026.28Z" transform="translate(-7007.8 -7024.74)"/><path d="M7020.89,7138.67c-.42-.57-.91-1-.84-1.21a1.25,1.25,0,0,1,.95-.73,1.16,1.16,0,0,1,.81.81C7021.83,7137.83,7021.34,7138.15,7020.89,7138.67Z" transform="translate(-7007.8 -7024.74)"/><path d="M7200.37,7139.09l5.65-.57,0,.4-5.66.51Z" transform="translate(-7007.8 -7024.74)"/><path d="M7017.81,7153.25c-.65.39-1,.77-1.36.77s-.53-.48-.79-.75c.32-.26.61-.66,1-.72S7017.22,7152.89,7017.81,7153.25Z" transform="translate(-7007.8 -7024.74)"/><path d="M7131.63,7062.7c-.7-.84-.62-1.44.14-1.69.35-.11.84.25,1.27.4Z" transform="translate(-7007.8 -7024.74)"/><path d="M7018.34,7138.92a4.3,4.3,0,0,1-1.19.32,1.29,1.29,0,0,1-.9-.45.88.88,0,0,1,.28-.79,1.43,1.43,0,0,1,1.09,0c.31.17.48.58.71.89Z" transform="translate(-7007.8 -7024.74)"/><path d="M7017.28,7182.54c.31,1.28,0,1.88-.86,1.91-.24,0-.51-.48-.76-.74Z" transform="translate(-7007.8 -7024.74)"/><path d="M7009.89,7153.44c-.38-.47-.81-.78-.79-1.05s.46-.57.71-.85c.3.28.73.52.85.87C7010.72,7152.59,7010.26,7153,7009.89,7153.44Z" transform="translate(-7007.8 -7024.74)"/><path d="M7011.68,7145.89l.82.88c-.31.28-.58.67-.94.8-.15.05-.71-.48-.69-.72S7011.32,7146.3,7011.68,7145.89Z" transform="translate(-7007.8 -7024.74)"/><path d="M7067.32,7174.79a6.64,6.64,0,0,1,.7.88,3.39,3.39,0,0,1,.23.85,5,5,0,0,1-1.11.24,1.31,1.31,0,0,1-.21-.8,6.19,6.19,0,0,1,.38-1.16Z" transform="translate(-7007.8 -7024.74)"/><path d="M7192,7071.16l1.4-.7a6.32,6.32,0,0,1,.35.78,14.26,14.26,0,0,1-1.39.69Z" transform="translate(-7007.8 -7024.74)"/><path d="M7195.86,7085c-.57.48-.86.86-1.22,1-.17,0-.48-.45-.73-.71.26-.24.49-.59.79-.68S7195.26,7084.72,7195.86,7085Z" transform="translate(-7007.8 -7024.74)"/><path d="M7038.3,7188c.27.55.57.9.49,1a4.67,4.67,0,0,1-.87.9c-.2-.25-.62-.57-.57-.73A5.28,5.28,0,0,1,7038.3,7188Z" transform="translate(-7007.8 -7024.74)"/><path d="M7199.83,7078.13a5.62,5.62,0,0,1-1.28.84c-.18.05-.47-.33-.71-.52a4.47,4.47,0,0,1,1-.86C7198.94,7077.52,7199.3,7077.84,7199.83,7078.13Z" transform="translate(-7007.8 -7024.74)"/><path d="M7017.32,7164a15.16,15.16,0,0,1-1.43.71,5.89,5.89,0,0,1-.41-.75l1.47-.68Z" transform="translate(-7007.8 -7024.74)"/><path d="M7180.69,7127.52c-.08-.37-.29-.78-.19-1.1a1.08,1.08,0,0,1,.83-.52c.24,0,.51.31.76.49a5.58,5.58,0,0,1-.66.77,3.42,3.42,0,0,1-.74.35A0,0,0,0,1,7180.69,7127.52Z" transform="translate(-7007.8 -7024.74)"/><path d="M7036,7182.65l-1.35.79a4.64,4.64,0,0,1-.37-.72,14.08,14.08,0,0,1,1.31-.82Z" transform="translate(-7007.8 -7024.74)"/><path d="M7078.25,7175.59a11.87,11.87,0,0,1,1.32.16s.06.62-.08.72-.79.29-.86.19a3.89,3.89,0,0,1-.36-1.11Z" transform="translate(-7007.8 -7024.74)"/><path d="M7189,7130.37c-.57.33-.9.66-1.14.61s-.57-.44-.85-.68c.28-.19.56-.52.86-.54S7188.48,7130.05,7189,7130.37Z" transform="translate(-7007.8 -7024.74)"/><path d="M7187.44,7138.65c-.56.31-.9.66-1.16.6s-.55-.48-.83-.74c.29-.18.58-.51.87-.51S7186.91,7138.32,7187.44,7138.65Z" transform="translate(-7007.8 -7024.74)"/><path d="M7018.77,7155.88l-.73-.79a4.33,4.33,0,0,1,1-.8c.14-.06.47.33.71.52Z" transform="translate(-7007.8 -7024.74)"/><path d="M7017.28,7169.28a5.34,5.34,0,0,1-1.28.8c-.14,0-.42-.45-.63-.7a4.31,4.31,0,0,1,1-.7C7016.53,7168.63,7016.83,7169,7017.28,7169.28Z" transform="translate(-7007.8 -7024.74)"/><path d="M7190.88,7132.26c.46-.78,1-.84,1.59-.36a.75.75,0,0,1,0,.72C7191.82,7133.25,7191.34,7132.89,7190.88,7132.26Z" transform="translate(-7007.8 -7024.74)"/><path d="M7040.18,7192.53a6.11,6.11,0,0,1-.67,1.2c-.08.09-.54-.15-.83-.24l.77-1.4Z" transform="translate(-7007.8 -7024.74)"/><path d="M7033,7188c.8.84.76,1.36.05,1.66-.23.1-.61-.14-.93-.23Z" transform="translate(-7007.8 -7024.74)"/><path d="M7170.89,7068c.27.41.62.77.56.89a1.94,1.94,0,0,1-.85.75c-.1,0-.64-.51-.59-.63A4.62,4.62,0,0,1,7170.89,7068Z" transform="translate(-7007.8 -7024.74)"/><path d="M7077.4,7166.28c.33.39.74.67.71.9s-.48.7-.69.67-.57-.44-.84-.69Z" transform="translate(-7007.8 -7024.74)"/><path d="M7071.79,7179.37l1.12,1-.89.67-.74-1.21Z" transform="translate(-7007.8 -7024.74)"/><path d="M7168.46,7056.39c0-.17-.07-.41,0-.49a11.44,11.44,0,0,1,1-.74l.44.69c-.39.22-.77.45-1.17.64-.08,0-.23-.08-.34-.13Z" transform="translate(-7007.8 -7024.74)"/><path d="M7023.72,7167.24a6.25,6.25,0,0,1-1.33.92c-.17.05-.46-.31-.7-.49a4.84,4.84,0,0,1,.92-.81C7022.77,7166.77,7023.1,7167,7023.72,7167.24Z" transform="translate(-7007.8 -7024.74)"/><path d="M7174.47,7061.54c.33.35.76.71.72.77a6.51,6.51,0,0,1-.86.95c-.21-.22-.63-.49-.59-.64A4.19,4.19,0,0,1,7174.47,7061.54Z" transform="translate(-7007.8 -7024.74)"/><path d="M7074.63,7176.64c-.2-.26-.58-.56-.55-.78s.49-.67.69-.63a1.15,1.15,0,0,1,.76.71c.06.29-.24.67-.38,1Z" transform="translate(-7007.8 -7024.74)"/><path d="M7164.34,7032.92l3.41-2.09.18.3-3.43,2.07Z" transform="translate(-7007.8 -7024.74)"/><path d="M7078.78,7170.42c.12,0,.27-.09.36-.05.4.16.78.36,1.17.54l-.72.75c-.28-.34-.56-.68-.82-1,0,0,0-.16,0-.24Z" transform="translate(-7007.8 -7024.74)"/><path d="M7188.63,7125.41c-.62.35-.91.66-1.17.64s-.56-.35-.84-.55c.26-.22.5-.57.78-.62S7188,7125.11,7188.63,7125.41Z" transform="translate(-7007.8 -7024.74)"/><path d="M7054.16,7185.32c-.42.31-.7.67-1,.65a.91.91,0,0,1-.55-.72,1,1,0,0,1,.72-.62C7053.54,7184.59,7053.8,7185,7054.16,7185.32Z" transform="translate(-7007.8 -7024.74)"/><path d="M7055.89,7186.79c.35.45.71.71.67.9s-.37.55-.57.82c-.23-.19-.63-.38-.65-.58S7055.62,7187.33,7055.89,7186.79Z" transform="translate(-7007.8 -7024.74)"/></svg>