<svg id="Calque_1" data-name="Calque 1" xmlns="http://www.w3.org/2000/svg" viewBox="0 0 366.71 313.01"><title>33</title><path d="M7172.27,7032a5.86,5.86,0,0,1,.16,2,70.48,70.48,0,0,1-2.29,7.2c-2.73,6.82-5.59,13.59-8.4,20.38a13.26,13.26,0,0,0-.51,1.28c-2.23,7.52-1.42,7.93,4,11.25,16.11,9.87,32.4,19.46,48.38,29.54a151.12,151.12,0,0,1,36.75,32.65c14.34,17.63,24.9,37.43,32.56,58.71,5.25,14.59,9.62,29.5,14.43,44.25a18,18,0,0,0,1.54,2.59,2.59,2.59,0,0,1,.45,1.56c-.08.31-1,.76-1.26.62a2,2,0,0,1-.84-1.38,10.78,10.78,0,0,0-3.43-7.4c-6.59-6.37-14.55-10.65-22.72-14.51a338.19,338.19,0,0,0-42.37-17c-9.49-3-19.06-5.71-29.08-6.27-.91-.05-1.84-.05-2.75,0-2.15.07-2.86,1.14-2.36,3.27a6.29,6.29,0,0,1-.18,2l-1.45-.21a6.66,6.66,0,0,1,.42-1.92c1-1.73,1.09-3.4-.58-4.63-4.42-3.27-8.75-6.73-13.44-9.55-17.95-10.8-37.13-19.09-56.37-27.25-.34-.14-.7-.23-1.28-.41-.42,1-.83,1.84-1.2,2.74q-22.2,53.69-44.36,107.4c-.59,1.43-.6,3.09-1,4.6-.16.57-.73,1-1.07,1.55-.7,1.1-1.36,2.22-2.22,3.64l3.25.89-.71,2.27-2.94-1.61-3,7.08c2.29,2,2.2,4.38-.08,7.64a18,18,0,0,0-1.91,3.32c-4.57,11-9,21.94-13.64,32.88a22,22,0,1,1-35.45-24.43c2.25-2.09,4.53-2.29,6.29-.57s1.55,4.19-.68,6.43c-5,5-5.83,12.11-2.08,17.83a13.92,13.92,0,0,0,16.81,5.19,13.46,13.46,0,0,0,7.61-7.56q7.17-17.17,14.23-34.38a44.53,44.53,0,0,0,1.6-5.42c.54-2,1.5-3.18,3.95-1.92l53.31-128.93c-.86-.4-1.46-.71-2.08-1-18-7.21-36-14.35-54.77-19.23-6.41-1.67-13-2.58-19.57-3.64-2.25-.36-3.37.84-3.9,3.11a2.78,2.78,0,0,1-1.18,1.36c-.11.08-1.08-.67-1-.85a2.61,2.61,0,0,1,1-1.44c2.16-1.23,2.4-2.39.68-4.17-5.66-5.85-12.51-10.05-19.53-14a316.79,316.79,0,0,0-55.14-23.77,68.07,68.07,0,0,0-20.22-3.84c-3-.05-5.82.64-8,3a1.52,1.52,0,0,1-1.4.29,1.45,1.45,0,0,1-.57-1.29c.1-.39.86-1,1.09-.9,1.86.75,3-.61,4.35-1.35,21.85-12.05,43.92-23.58,67.81-31.21a184.38,184.38,0,0,1,38.75-8,155.2,155.2,0,0,1,49.87,3.44c17.58,4.07,35.07,8.55,52.62,12.76,6.22,1.49,7.54,1.92,10.92-5.48,3.81-8.35,7.15-16.92,10.79-25.35a29,29,0,0,1,2.61-4.08Z" transform="translate(-6932.66 -7031.74)"/></svg>