<svg id="Calque_1" data-name="Calque 1" xmlns="http://www.w3.org/2000/svg" viewBox="0 0 394.51 313.01"><title>34</title><path d="M7091.26,7325.17c8.53,4.13,13.91,10.26,13.46,20.58l-111.2-.86c.3-5.91,2.36-10.61,6.62-14.37a37,37,0,0,1,15.4-7.77c.34-.09.67-.23,1-.35l0-.4c-1.89-.34-3.79-.67-5.68-1-12.4-2.29-24.53-5.44-36-11a73.77,73.77,0,0,1-26.66-21.35c-4.94-6.36-10-12.65-14.65-19.23a81.92,81.92,0,0,1-12.34-28.1c-1.11-4.54-1.75-9.2-2.49-13.83a23.5,23.5,0,0,1-.46-6.22,84.61,84.61,0,0,1,2.08-12.16,46.28,46.28,0,0,1,7.43-15.87,33.77,33.77,0,0,1,15-11.54,61.21,61.21,0,0,1,9.51-2.8,19.32,19.32,0,0,1,9.5.53,28.53,28.53,0,0,1,16,11.3c1.61,2.31,2.4,5.28,3.2,8.06,1.52,5.26,1.57,10.53-1.13,15.5a42.13,42.13,0,0,1-2.9,4.22c-1.11,1.56-2.89,1.46-4.4,1.34a28.07,28.07,0,0,1-15-6,25.77,25.77,0,0,1-10-15.8c-.08-.39-.22-.76-.42-1.42-.71.42-1.36.73-1.94,1.15a21.92,21.92,0,0,0-8.37,12.73c-2.86,11-1.83,21.84,2.31,32.4a68.58,68.58,0,0,0,8.08,14.07,2.92,2.92,0,0,0,.64.52c2.68-3.09,5.21-6.2,8-9.12a91.66,91.66,0,0,1,23.58-18.27,12.3,12.3,0,0,0,5.25-6c1.31-2.84,2.89-4.34,6.07-3.67a1.77,1.77,0,0,0,.53-.08v-7.48c1.66,0,3.42-.08,5.17,0,7.18.38,10.23-3,12.84-8.61a36.1,36.1,0,0,1,4.42-7.5c2.78-3.43,6.95-4.71,11.07-5.69a71.4,71.4,0,0,1,7.78-1c0-.26.09-.75.1-1.23.08-2.07.09-2.21,2.05-2,2.25.21,3.08-1.65,4.46-2.69,2.7-2,5-4.83,9.15-4.34-.34-.6-.54-1-.81-1.42-3.45-4.92-3.3-10.35-2-15.8,1.16-4.74,3.68-8.9,6.44-12.89.71-1,1.32-2.12,2.09-3.36a23.61,23.61,0,0,0,1.58,3.07c2.93,4.08,6,8.06,7.57,12.94,1.82,5.77,1.51,11.31-1.95,16.47a2.64,2.64,0,0,0-.32.66,2.13,2.13,0,0,0,0,.6,20.6,20.6,0,0,0,2.81,0,2.8,2.8,0,0,1,2.82,1.33c1.27,1.68,2.54,3.35,3.9,5a2.59,2.59,0,0,0,1.52.69,18.54,18.54,0,0,0,2.54,0,19.57,19.57,0,0,1,0,2.22c-.16,1.31.35,1.68,1.67,1.8a39.55,39.55,0,0,1,7.7,1.2c6,1.76,9.81,5.87,11.89,11.69.47,1.32,1,2.61,1.59,3.91,1.31,3.15,3.85,4.5,7.1,4.71a40.72,40.72,0,0,0,4.48,0c1,0,1.45.26,1.42,1.36-.07,2.11,0,4.23,0,6.58,2.71.09,5.26.23,7.81.25,1.06,0,1.39.22,1.69,1.42a11.13,11.13,0,0,0,3.87,6.55c3.58,2.75,7.77,4.16,11.81,5.9a39.9,39.9,0,0,1,10.88,7.18c2.09,1.88,3.72,4.26,5.62,6.35a1.69,1.69,0,0,0,1.41.41c11.45-3.06,22.27-7.51,31.55-15.09a37.07,37.07,0,0,0,8.46-9.34,4.1,4.1,0,0,0,.52-2.39,15.47,15.47,0,0,1,1.48-8.62,8.28,8.28,0,0,1,6.4-4.69,21.26,21.26,0,0,1,13.66,1.71,85.75,85.75,0,0,1,8.07,4.72c3.64,2.38,7.17,4.94,10.77,7.4a2.13,2.13,0,0,0,1.11.3c4.24.1,8.49.36,12.72.18,3-.13,4.89,1.45,6.72,3.36a16.51,16.51,0,0,1,1.3,1.79c-3.05,1.41-6,2.8-9,4.12a69.61,69.61,0,0,0-14.63,9,106,106,0,0,0-12.93,11.56c-4.28,4.68-8.47,9.44-12.62,14.22a178.37,178.37,0,0,1-16.75,17,174.8,174.8,0,0,1-20.23,15.46c-7.85,5.11-16,9.73-24.88,12.87-7.38,2.61-14.75,5.35-22.31,7.31-7,1.81-14.19,2.71-21.32,3.93-3.3.56-6.64.91-10,1.35Z" transform="translate(-6918.21 -7032.74)"/><path d="M7185.51,7032.74c7.88,1.56,15.78,2.43,23.77,1.11a56,56,0,0,1,32.3,4.16c6.92,3,14,5.84,20.63,9.43a36.29,36.29,0,0,1,12.88,12.4c3.73,5.73,2.27,9.93-4.28,11.93-7.3,2.23-14.77,4-22.43,4.2-11.26.24-22.52,0-33.78,0-3.83,0-7.67.37-11.5.64-9.32.66-18.67,1.11-28,2.11a75.19,75.19,0,0,0-30.68,10.2c-7.3,4.34-11.67,10.49-12.93,19-.76,5.11-.56,10,1.69,14.64,2.6,5.4,7.11,8.67,12.48,10.93,5.74,2.42,11.82,3.32,17.93,4.21,10.95,1.59,21.89.8,32.83.08,13.72-.9,27.41-2.18,41.19-1.93,10.15.19,19.43,2.74,27.6,9,4.34,3.31,9.46,5.17,14.5,7.14s10.35,3.86,14.87,7.09c9.2,6.58,15.29,15.28,17.53,26.49a28.45,28.45,0,0,1,.54,3.68c.25,3.77-.9,7.3-2.1,10.79-1.29,3.76-2.89,7.39-5.77,10.28-3.92,4-8.54,6.57-14.18,6.88-7.12.38-14.1-.86-21.06-2.22-3.94-.77-7.86-1.74-11.84-2.23-4.75-.58-9.26.76-13.64,2.54a14.16,14.16,0,0,1-3,.7c-1.24.2-1.66-.57-1.56-1.62a5.64,5.64,0,0,1,.62-2c1.43-2.77,2.92-5.51,4.39-8.26,1.67-3.11,5.8-5.09,9.73-4.68,4.2.44,8,2,11.94,3.44a52.55,52.55,0,0,0,21.34,3.33,14.72,14.72,0,0,0,13.19-11.32c.63-3.09-.77-5.72-2.41-8.18-2.17-3.26-5.48-5.23-8.53-7.52a51.27,51.27,0,0,1-7.42-6.51c-1.64-1.83-2.55-4.29-3.85-6.43a29.09,29.09,0,0,0-22-14.27c-6.92-.92-13.87-1.67-20.83-2.1-6.29-.39-12.63-.45-18.93-.26-4.65.14-9.29.88-13.92,1.41-6,.69-12.11,1.28-18.11,2.21s-12.08,2.1-18.06,3.41c-5.39,1.18-10.72,2.71-16.27,2.85a40.93,40.93,0,0,1-17.8-3.38,72,72,0,0,1-14.55-8.2,41.17,41.17,0,0,1-10.07-11.69c-1.33-2.18-2.6-4.4-3.73-6.69a9.13,9.13,0,0,1,.25-8.41c1.63-3.21,3.64-6.23,5.49-9.33,2.18-3.66,4.34-7.33,6.53-11,3.16-5.25,6.14-10.62,9.57-15.69,4-6,9.92-9.56,16.78-11.49,4.37-1.23,8.8-2.35,13.26-3.17s8.71-1.2,13.08-1.68c12-1.33,24-.9,36-.87,6.1,0,12.2.58,18.29.47,6.73-.13,13.47-.58,20.18-1.23a20.56,20.56,0,0,0,7.12-2.25c2.13-1.08,3.16-3,1.38-5.55a17.08,17.08,0,0,0-5.08-4.85,62.1,62.1,0,0,0-25.91-8.76c-5.4-.55-10.82-.89-16.2-1.59a23.57,23.57,0,0,1-6-2c-3.86-1.65-7.68-3.41-11.48-5.2a7.22,7.22,0,0,1-2-1.59C7184.7,7034.44,7184.74,7033.87,7185.51,7032.74Z" transform="translate(-6918.21 -7032.74)"/></svg>