<svg id="Calque_1" data-name="Calque 1" xmlns="http://www.w3.org/2000/svg" viewBox="0 0 247.7 313.01"><title>35</title><path d="M6998.46,7151.61a107.59,107.59,0,0,1,31.39-16.64,263,263,0,0,1,29.62-8.22c5.67-1.19,11.75-.43,17.63-.73a4.08,4.08,0,0,0,2.86-1.64c12.25-20.24,29.57-35.26,49.17-47.94a182.7,182.7,0,0,1,36-18.33c6.14-2.26,12.6-3.66,18.95-5.35a101.83,101.83,0,0,1,9.94-2.25c6.78-1.1,13.62-1.62,20.42-.24,2,.4,3.75,1.63,5.68,2.27a2.6,2.6,0,0,0,2.28-.4c4.43-5.25,8.75-10.58,13.06-15.93.54-.67.76-1.58,1.26-2.29a3.34,3.34,0,0,1,1.44-1.18c.22-.08,1.09.68,1,.89a3.92,3.92,0,0,1-1,1.54c-.54.58-1.29,1-1.77,1.6q-5.89,7.61-11.71,15.28c-.55.72-1,1.53-1.6,2.51a31.54,31.54,0,0,1,7,13.9,88.08,88.08,0,0,1,2.21,21.48c0,3.38,0,6.76-.29,10.13a159.73,159.73,0,0,1-5.65,31.4c-6.82,24.16-17,46.67-32.86,66.33-2.89,3.58-6.14,6.87-9.09,10.41a3.31,3.31,0,0,0-.59,2.77,54.61,54.61,0,0,1,3.82,20.16c.21,17.74-1.38,35.26-6.94,52.23-1,3.12-2.3,6.15-3.62,9.64-14.4-11.86-28.25-23.76-42.26-35.83l-3.28,3-7.7-6-3.8,4.59-18.44-14.61-9.73,14.72-5.44-4.21c-2.14,1.19-2.8,2.52-1.42,4.83a11,11,0,0,1,1.61,5.22c.11,8.21.5,16.46-.24,24.61-1.11,12.12-7.92,20.63-18.54,26.48a288.5,288.5,0,0,1-40.78,18c-10.94,4-22,7.55-33,11.3-.72.24-1.46.43-2.55.74.28-4,.42-7.8.85-11.57,1.42-12.56,2.7-25.15,4.51-37.65,1.89-13.12,4.09-26.22,9.11-38.62,3.79-9.37,11.2-14.61,20.37-18,9.66-3.54,19.54-3.93,29.62-2.75a3.13,3.13,0,0,0,2.13-1.07,14.44,14.44,0,0,0,1.63-2.64l-6.76-6.07,11.67-12.92-20.3-15.91,3.69-4.77-6.77-5.44L7043,7185Z" transform="translate(-6991.51 -7032.74)"/></svg>