<svg id="Calque_1" data-name="Calque 1" xmlns="http://www.w3.org/2000/svg" viewBox="0 0 150.52 313.01"><title>36</title><path d="M7116.25,7079.46c.76-2.09,1.44-4.21,2.3-6.25a42,42,0,0,1,18.71-21.12,33.71,33.71,0,0,1,20.1-4.37,34.1,34.1,0,0,1,21.36,10.25,41.4,41.4,0,0,1,11.66,22.33,46.79,46.79,0,0,1-6.37,33c-4.69,7.8-10.72,14-18.83,18.22a33.41,33.41,0,0,1-13.68,3.58c-.55,0-1.09,0-1.65,0-.35,1.91-.71,3.69-1,5.48a47.28,47.28,0,0,1-4.6,13,18.38,18.38,0,0,0-1.43,3.9c-1,4.29-1.86,8.62-2.81,12.92-.2.91-.08,1.56.83,2,.35.15.64.43,1,.58,2.94,1.32,3.84,3.81,3.74,6.76a4.13,4.13,0,0,1-1,2.36c-1.08,1.24-2.36,2.3-3.78,3.65l3.55,1.32c1.69.62,1.86.95,1.93,2.69a2.14,2.14,0,0,1-1.66,2.37l-4.8,1.63c1.7,1.84,3.91,2.11,6,2.81l-.58,2.11a12.43,12.43,0,0,1-5.79-2.52c-1.2-1-.54-4.34.93-5,.77-.33,1.61-.51,2.42-.78.58-.19,1.15-.43,1.72-.65l0-.33c-.88-.27-1.75-.6-2.64-.81-1.43-.34-1.91-1.34-2.13-2.66s-.25-2.26.89-3.19c1.47-1.19,2.78-2.59,4.15-3.91a4.08,4.08,0,0,0,.4-.67l-5.82-4.45c-.45,2.07-.87,3.9-1.25,5.74-2.77,13.37-5.6,26.72-8.27,40.11-2.25,11.31-4.33,22.66-6.43,34-1.54,8.34-3,16.7-4.47,25-.73,4-2.31,7.9-2.38,12.07,0,1.78-.18,3.56-.19,5.35q0,21.93,0,43.86,0,4.38,0,8.76c-.9.24-1.27,0-1.27-.87,0-2.63,0-5.27,0-7.9,0-15.56.15-31.11,0-46.67a63.76,63.76,0,0,0-1.54-10.93c-1.94-10.38-4-20.74-6-31.1-1.47-7.53-3-15.05-4.45-22.59q-3.81-19.85-7.52-39.72c-1.36-7.37-2.55-14.78-3.87-22.16a4.67,4.67,0,0,0-.91-1.91,53.87,53.87,0,0,1-10.65-24.34,40.12,40.12,0,0,1-.46-11.42c.07-.54.07-1.09.11-1.78-1.11-.17-2.2-.28-3.26-.51a33.79,33.79,0,0,1-14.56-7.49,57.79,57.79,0,0,1-17.65-24.19c-5.18-13.59-5.34-27.17,1.89-40.08,6.86-12.25,17.39-19.36,31.76-19.26,9.51.07,17.72,4,24.51,10.66,8.09,7.9,12.26,17.66,13.17,28.88.11,1.38.23,2.76.35,4.13Zm10.46,144c-.61.11-1.14.38-1.52.24a20.6,20.6,0,0,1-7.17-4,3.25,3.25,0,0,1-1-1.53c-.52-2.61.45-4.3,2.9-5.25.55-.22,1.13-.35,1.69-.55s1.2-.49,2.16-.89c-1.4-.82-2.46-1.41-3.5-2-1.45-.89-3-1.74-3.6-3.45-1-3-1.15-5.88,1.55-8.29,1.67-1.5,3.1-3.25,4.68-4.85.6-.61.53-1.06-.05-1.58-1-.91-1.94-1.92-3-2.74-2.9-2.19-3.47-5.64-4.79-8.72a1.55,1.55,0,0,1,.72.71c1.62,3.2,4.31,5.4,7,7.62a3.36,3.36,0,0,1,1.1,1.79c.56,2.91.51,5.68-2.27,7.63a9.33,9.33,0,0,0-1.68,1.55c-1,1.15-1.92,2.36-2.87,3.56a1.31,1.31,0,0,0,.38,2.13c.31.22.59.5.91.69,1.7,1,3.45,2,5.1,3.11a2.86,2.86,0,0,1,1.23,1.64c.43,2.79-.12,3.58-2.82,4.53-.88.31-1.77.58-2.64.92a11.26,11.26,0,0,0-1.29.7c1.22,2,6.72,5,9.24,5.21l.46-2.22q2.63-12.7,5.27-25.4c1.38-6.69,2.49-13.44,4.18-20,.78-3-.33-5.48-.77-8.23-.25.09-.35.09-.4.15-.27.27-.52.56-.78.84-3.33,3.72-6.84,7.31-11.41,9.44a101.47,101.47,0,0,1-10.06,3.54c0,1.28.07,2.53,0,3.76-.06.77-.52,1.53-.51,2.29.14,7.26.35,14.53.53,21.79.24,9.9.44,19.79.72,29.69.2,7.22.49,14.43.76,21.64q.37,10,.8,20a5,5,0,0,0,.18.85l.25,0Zm-13.88,51.87.48,0c0-.65,0-1.29,0-1.94-.57-17.2-1.19-34.39-1.72-51.59-.36-11.85-.6-23.7-.88-35.55,0-1,.14-2-.78-2.68a.9.9,0,0,1-.14-.82c.48-1.22,1-2.41,1.68-3.92-7-1-12.36-4.7-17.12-9.5C7100.8,7204.68,7107.87,7239.83,7112.84,7275.34Z" transform="translate(-7040.58 -7035.74)"/></svg>