<svg id="Calque_1" data-name="Calque 1" xmlns="http://www.w3.org/2000/svg" viewBox="0 0 305.91 313.01"><title>4</title><path d="M7299.8,7121.92a61.15,61.15,0,0,1,1.14,7.63,84.07,84.07,0,0,1-.35,12.27,36,36,0,0,1-7,18.15c-.64.82-1.41,1.54-2.08,2.33a3.14,3.14,0,0,0-.36.83,2.42,2.42,0,0,0,.91.11c1.69-.5,3.38-1,5.06-1.59,2.95-1,5.9-1.94,8.83-3,5.72-2,11.43-4.06,17.16-6a1.3,1.3,0,0,0,.91-1,15.38,15.38,0,0,1,6.88-9.33,42.64,42.64,0,0,1,4.32-1.84,3,3,0,0,0,1.4-.94,47.18,47.18,0,0,1,11.27-13.18c2.74-2.32,5.5-4.62,8.23-6.95a4.18,4.18,0,0,0,1.52-3.46c0-2.32-.13-4.65,0-7a16.33,16.33,0,0,1,1-4.56c1.06-2.8,3.45-3.9,6.24-4.06a12.41,12.41,0,0,1,12.6,9.21,19.81,19.81,0,0,1,.76,3.59,13.84,13.84,0,0,1-2.74,9.12c-.87,1.26-1.81,2.49-2.7,3.74a2.2,2.2,0,0,0-.26,2.62c1.53,2.51,2.93,5.11,4.61,7.51,4.33,6.23,9.72,11.54,15,16.94,4,4.13,8.14,8.23,11.16,13.2a49.12,49.12,0,0,1,2.59,5.83,12,12,0,0,0,1,2c1.52,2.19,2.75,4.48,2.43,7.26-.42,3.72-2.17,6.79-6.3,7.74-.75.17-1.52.23-2.27.39a2.33,2.33,0,0,0-1,.41,8.33,8.33,0,0,1-5,1.8,40.66,40.66,0,0,1-10.66-1.28c-4.16-.91-8.31-1.85-12.45-2.85-8.53-2.06-16.94-4.46-24.35-9.42-.92-.62-1.76-1.36-2.7-1.93a2.33,2.33,0,0,0-1.54-.34,14.79,14.79,0,0,1-10.27-1.27s-.07,0-.09,0c-1.62-1.61-3.43-.95-5.26-.48s-3.84.89-5.76,1.36c-2.27.55-4.54,1.12-6.81,1.69-2.85.71-5.71,1.41-8.56,2.15-2.65.68-5.3,1.4-7.94,2.11-3,.8-6,1.59-9,2.42-3.47,1-6.93,2-10.39,3-2.83.8-5.66,1.58-8.48,2.41s-5.49,1.67-8.23,2.52c-2.58.8-5.17,1.58-7.74,2.42a2.64,2.64,0,0,0-1.19.82,43.25,43.25,0,0,0-6.37,11,100.49,100.49,0,0,0-3.79,11.51,71.74,71.74,0,0,0-1.65,10.28,88.29,88.29,0,0,0-.52,10.45,77.7,77.7,0,0,0,.86,10.11c.46,3.13,1.28,6.21,2,9.3a2.14,2.14,0,0,0,.92,1.22,49.75,49.75,0,0,0,11.57,5,37.24,37.24,0,0,0,13.88,1.13,50.61,50.61,0,0,0,17.92-5.78c7.12-3.68,13.61-8.31,20.06-13,7.32-5.33,14.55-10.8,22.36-15.43a76.31,76.31,0,0,1,15.26-7.11,56.87,56.87,0,0,1,12.14-2.53,46.11,46.11,0,0,1,10.44.24,56,56,0,0,1,18.91,6.12c2.75,1.45,5.37,3.11,8.05,4.69a1.7,1.7,0,0,1,.68.73l-4.56-2.55a69.12,69.12,0,0,0-14.85-6.14,50.44,50.44,0,0,0-17.62-1.78,52,52,0,0,0-14.06,3.18c-9.47,3.49-17.8,9-25.89,14.83-6.44,4.68-12.81,9.46-19.28,14.1a84,84,0,0,1-17,9.67,37.42,37.42,0,0,1-11.67,3.18,70.56,70.56,0,0,1-10.35.21,40.84,40.84,0,0,1-14.37-4.2c-.19-.09-.4-.14-.84-.3.67,1.7,1.22,3.18,1.83,4.65a135.87,135.87,0,0,0,9.39,18.32,1.79,1.79,0,0,0,1.13.76c4.39.62,8.43,2,11.58,5.29a1.56,1.56,0,0,0,.67.39c5.22,1.52,10.42,3.09,15.66,4.51,3.46.94,7,1.72,10.48,2.45,6.63,1.36,13.35,2.32,19.77,4.58,5.58,2,10.56,4.86,14,9.87a19.16,19.16,0,0,1,3.33,13.94c-1.26,9-6.52,15.17-14.17,19.51a51,51,0,0,1-14.94,5.44,62.34,62.34,0,0,1-11.44,1.5c-2.71.05-5.42.32-8.12.2a73.37,73.37,0,0,1-8.68-.94c-3.1-.51-6.19-1.14-9.22-2a53.45,53.45,0,0,1-19.53-9.64,38.32,38.32,0,0,1-11.69-14.8,31.36,31.36,0,0,1-2.53-9.78,29.26,29.26,0,0,1,5.11-19.45c.54-.81.57-1.94,1.07-2.79a2.45,2.45,0,0,0-.09-2.73c-2-3.57-3.95-7.16-5.9-10.76a1.09,1.09,0,0,0-1.18-.65c-2.72.07-5.46.19-8.17,0a31.28,31.28,0,0,1-13.48-4.16c-1.14-.65-1.17-1.89-1.75-2.83-.18-.29-.53-.66-.81-.67-1.64-.06-3.28,0-5.11,0,.5,1.32,1,2.55,1.43,3.77.84,2.15,1.67,4.3,2.56,6.42a1.57,1.57,0,0,0,.95.81,13.33,13.33,0,0,1,5.41,2.57,4.8,4.8,0,0,0,2,.66c7.66,1.6,12.69,6.1,15,13.6a30.68,30.68,0,0,1,.76,13.27,42,42,0,0,1-7.62,19.15,41.18,41.18,0,0,1-17.59,13.86,51,51,0,0,1-11.14,3.32,69.91,69.91,0,0,1-7.28.88,63.47,63.47,0,0,1-7.65.21,96,96,0,0,1-10.4-1,76.53,76.53,0,0,1-10.37-2.31,40.41,40.41,0,0,1-19.52-12.42,20.75,20.75,0,0,1-4.82-10.38c-1.21-7.89,2.12-15.26,9.49-19.81,4.28-2.64,9-3.67,13.94-4.22,6.44-.73,12.88-1.44,19.29-2.36a38.94,38.94,0,0,0,10.71-3,3.58,3.58,0,0,0,1.13-1.12c.22-.28.26-.71.49-1,1.14-1.36.64-2.61,0-4-2.93-6.31-5.79-12.65-8.65-19a2,2,0,0,0-1.55-1.2,42.4,42.4,0,0,1-11.17-3.8,11.67,11.67,0,0,1-2.38-2,2,2,0,0,1-.31-2.35,46.42,46.42,0,0,0,2.91-10.92c.59-3.94,1.18-7.89,1.93-11.8a47.53,47.53,0,0,1,1.55-5,8.85,8.85,0,0,0,.63-2.49,40.33,40.33,0,0,1,2.39-13.2A58.78,58.78,0,0,1,7183,7203a83.86,83.86,0,0,1,16-16.51,85.79,85.79,0,0,1,12-8c.26-.14.5-.31.84-.52-1.55-2-3-4-4.55-6q-8.31-10.78-16.63-21.55-8.08-10.45-16.18-20.88c-.74-1-1.46-1.93-2.15-2.92a1.4,1.4,0,0,0-1.34-.64,10.21,10.21,0,0,1-6.81-2c-.08-.06-.19-.11-.24-.19-.81-1.46-2.16-1.4-3.56-1.35-4.63.17-8.86-1.36-12.95-3.27-4.41-2.06-8.72-4.32-13.09-6.48a120.79,120.79,0,0,0-16.32-6.28,90.2,90.2,0,0,1-9.52-3.5c-2.81-1.28-4.16-3.8-4.34-6.9a4.48,4.48,0,0,0-.25-1.17,8.92,8.92,0,0,1,3-10,15.08,15.08,0,0,1,9.16-3.45c2.37-.13,4.75,0,7.12-.07a28.09,28.09,0,0,0,3.21-.7,41.25,41.25,0,0,1,5.86-.84q10.44-.24,20.88-.2c4.94,0,9.87.2,14.8.39,1.48.06,3,.38,4.56.6-.07-.71-.15-1.29-.17-1.87a12.61,12.61,0,0,1,6-11.36,20,20,0,0,1,13.45-3.31,11.29,11.29,0,0,1,7.18,2.92c2.93,2.87,3.52,6.25,1.3,9.69a76.26,76.26,0,0,1-5.24,6.55,8.54,8.54,0,0,1-.78.79,5.92,5.92,0,0,0-1.79,5.84,24.42,24.42,0,0,1,.17,9.78,17.89,17.89,0,0,1-3.53,7.49,1.85,1.85,0,0,0-.39,1.74,9.19,9.19,0,0,1-.77,5.89,1.12,1.12,0,0,0,.15,1.35q6.81,9.07,13.6,18.16c.36.48.77.93,1.23,1.47,1-1.32,2.21-2.37,2.25-4.35a33.61,33.61,0,0,1,2.57-11.79,49.13,49.13,0,0,1,13.15-18.44c.5-.45,1-.87,1.54-1.31l1.63-1.37a6.44,6.44,0,0,0-1-.3c-5.71-.49-10.09-3.31-13.57-7.7a24.61,24.61,0,0,1-4.81-10.93,28.21,28.21,0,0,1,.24-11.59c2-9,7.14-15.75,14.59-20.92a35.61,35.61,0,0,1,9.91-4.53,28.19,28.19,0,0,1,9.71-.88c9.7.41,19.13,6.16,22.7,15.8a24.67,24.67,0,0,1,1.41,11.67,28.32,28.32,0,0,1-8.07,16.4c-.76.79-1.55,1.55-2.44,2.42,12.93,0,24.55,3.18,34.2,12.21,0-.27,0-.51.06-.75a77.22,77.22,0,0,1,.48-9.24,27.4,27.4,0,0,1,7.16-14.25,27,27,0,0,1,13.17-8.12,24.56,24.56,0,0,1,9.65-.6,26.73,26.73,0,0,1,11.83,4.63,23.05,23.05,0,0,1,8,10.25,32.89,32.89,0,0,1,2.17,17c-1.21,10-5.52,18.31-14.43,23.67a23.33,23.33,0,0,1-15.17,3.16,21.78,21.78,0,0,1-9.33-3.46C7300.3,7122.21,7300.07,7122.08,7299.8,7121.92Z" transform="translate(-7103.5 -7041.5)"/></svg>