<svg id="Calque_1" data-name="Calque 1" xmlns="http://www.w3.org/2000/svg" viewBox="0 0 397.11 313.01"><title>5</title><path d="M7454.5,7355.51H7057.43v-9.73c0-12.44-.17-24.88.14-37.31a11.46,11.46,0,0,1,3.15-7.11c3.25-3.25,5.81-6.4,6.82-11.15.54-2.51,3.37-4.6,5.34-6.73,2.95-3.19,6.78-5.81,8.93-9.44,5-8.37,9.22-17.17,13.64-25.86,4.18-8.21,7.7-16.8,12.48-24.64,3.64-6,7.94-12.47,15.89-13.12,5.38-.44,8.83-2.26,10.62-7.35a6.33,6.33,0,0,1,2.33-3.14c10.73-6.61,13-17.5,14.25-28.66,1.07-9.21,1.45-18.5,2.13-27.75.32-4.35-.36-9.07,1.16-12.94,1.67-4.27,5.32-7.77,8.15-11.57.87-1.16,2.13-2.07,2.84-3.31,4.9-8.57,9.2-17.53,14.69-25.7a86.88,86.88,0,0,0,10.73-21.64c1.32-4,2.9-8.56,8.61-7.89,3.68.43,6.28,4.94,6.9,10.42,1,8.82-4.38,15.69-6.87,23.43-1.94,6-4.23,11.9-6.71,18.8,5.68-.46,9.75-.81,13.81-1.12,5.6-.43,8.84,1.47,10.84,6.57,1.88,4.78,3.64,9.6,5.35,14.44s2.33,9.84-.06,15a10.56,10.56,0,0,0-.24,7.18c3,8.72,2.21,12.88-9.7,19a76.57,76.57,0,0,1-8,3.08c-1.13,5.1-1.83,10.22-3.46,15-1.57,4.62-4.12,8.9-7,14.93,10.38-1,19.81-1.62,29.13-3s14.92-9.09,21.67-14.74a26.43,26.43,0,0,1,8.33-4.84c4.84-1.61,5.68-6.1,7.87-9.59a16,16,0,0,0,1.93-5.77,5.43,5.43,0,0,0-.94-3.45c-1.21-1.88-2.92-3.46-4.09-5.36-4.88-7.94-3.13-16.19,2.23-24,3.89-5.64,5.62-12.85,7.87-19.52,1.65-4.89,1.46-10.71,4-14.92,7-11.37,15-22.08,22.62-33.07,2.32-3.36,4.77-6.65,6.81-10.17,5.93-10.24,16-13.65,26.54-15.44,15.14-2.57,29.37.69,42.63,8.54,2.61,1.55,5.82,2.14,8.81,3,10.62,3,17.37,10.67,24.37,18.55,10.6,12,18.72,25.46,26.91,39,3.49,5.78,2.75,14.2-3.5,17.16a6.79,6.79,0,0,1-3.18,1c-4.24-.41-6.54,1.45-7.55,5.48-.25,1-1.26,1.84-2,2.71-2.3,2.77-4.62,5.52-6.93,8.28-2.58,3.08-5.32,6-7.69,9.28a29,29,0,0,0-4.27,7.65c-1.68,5-2.87,9.92-8,13.07-2.6,1.59-4,5.16-5.88,7.87-7,10.15-14.57,20-20.86,30.6-3.73,6.29-6.72,12.77-13,17-.77.52-1,3-.45,4.13,4.19,9.12,9.45,16.36,19.89,20.47,13.92,5.48,26.78,13.66,40.08,20.71,6.14,3.25,12.23,6.6,18.35,9.88a19,19,0,0,1,9.75,12c1.94,7.18,3.41,14.48,5.19,21.71a54.81,54.81,0,0,0,2.49,7.91C7446.9,7337.94,7450.6,7346.42,7454.5,7355.51Z" transform="translate(-7057.38 -7042.5)"/></svg>