<svg id="Calque_1" data-name="Calque 1" xmlns="http://www.w3.org/2000/svg" viewBox="0 0 280.75 313.01"><title>6</title><path d="M7302.24,7034.38q-63.1,23.48-85.75,85.8c-10.39,28.49-10.91,57.78-1.77,86.74,13.68,43.35,41.89,73.79,84.37,90s83.49,11,122.59-11.31c-34,46.82-106.42,79.35-179.92,51.31a155.72,155.72,0,0,1-97.83-176.18C7159.79,7080.79,7229.64,7032.46,7302.24,7034.38Z" transform="translate(-7140.93 -7034.32)"/><path d="M7356.36,7234c2.22-.35,4.07-.78,6-.91a3.09,3.09,0,0,0,3-2.25c.7-1.83,1.64-3.56,2.61-5.64,1.07,2.25,2.1,4.16,2.89,6.15a2.44,2.44,0,0,0,2.25,1.67c2,.26,4,.58,6.56,1-1.61,1.65-2.9,3.1-4.33,4.38a3.37,3.37,0,0,0-1.21,3.77c.49,1.9.64,3.89,1,6.2-2.19-1.19-4.09-2.16-5.93-3.25a2.12,2.12,0,0,0-2.46,0c-1.8,1.06-3.66,2-5.9,3.23.39-2.5.65-4.67,1.09-6.79a2.59,2.59,0,0,0-.83-2.71C7359.52,7237.33,7358.08,7235.74,7356.36,7234Z" transform="translate(-7140.93 -7034.32)"/><path d="M7154.8,7294.75c1.11,2.35,2,4.39,3,6.33a2.81,2.81,0,0,0,1.67,1.25c2.08.46,4.21.73,6.32,1.07l.36.57c-1.59,1.45-3.25,2.83-4.74,4.38a3,3,0,0,0-.71,2.16c.22,2.2.65,4.38,1,6.93a28.68,28.68,0,0,1-4.05-2.21c-2.08-1.62-3.92-1.47-6,0a34.26,34.26,0,0,1-4,2.19c.38-2.34.63-4.36,1.05-6.34a2.83,2.83,0,0,0-1-3.16c-1.53-1.25-2.95-2.62-4.42-3.94l.36-.62c2.1-.34,4.21-.61,6.28-1.07a2.81,2.81,0,0,0,1.68-1.24C7152.8,7299.14,7153.69,7297.1,7154.8,7294.75Z" transform="translate(-7140.93 -7034.32)"/><path d="M7396.82,7117c1.11,2.27,2.17,4.15,3,6.14a2.08,2.08,0,0,0,1.93,1.49c2,.27,4,.63,6.37,1-1.65,1.78-3.18,3.31-4.56,5a3.23,3.23,0,0,0-.67,2.15c.21,2.19.62,4.36,1,6.88-2.12-1.14-3.95-2.23-5.87-3.11a3,3,0,0,0-2.25,0c-1.84.84-3.57,1.88-5.8,3.09.37-2.46.55-4.52,1-6.5a2.51,2.51,0,0,0-.82-2.68c-1.47-1.47-2.84-3-4.45-4.78,2.3-.39,4.4-.67,6.45-1.15a3.07,3.07,0,0,0,1.81-1.34C7395,7121.31,7395.77,7119.31,7396.82,7117Z" transform="translate(-7140.93 -7034.32)"/></svg>