<svg id="Calque_1" data-name="Calque 1" xmlns="http://www.w3.org/2000/svg" viewBox="0 0 229.6 313.01"><title>7</title><path d="M7236.47,7074.46l-3.26-9.63.59-.36,5,5.22c.94-4.33,1.92-8.44,7.19-8.76l-4.26,7,.62.65c3.5-5.34,8.09-8,14.32-6.48-1.39.92-3.52,1.58-3.94,2.82s.94,3,1.44,4.36c1.88-1.69,3.54-3.69,5.65-4.92s4.6-1.63,7-2.18c-1.68,1.86-5,2.1-5.14,5,3.1-.88,6.13-2.1,9.27-2.54a12.24,12.24,0,0,1,9.61,3.06,3.7,3.7,0,0,0,3.22.83c4.34-.4,8.48.24,11.29,4.2a1,1,0,0,0,.31.26c1.78-.76,3.43-1.56,5.15-2.18,2.75-1,5.31-.18,7.7,1.18,5.64,3.21,8.68,2.54,12.48-2.88a1.32,1.32,0,0,1,.28-.23c-1,6.57-4.24,10.72-11,9-1.91-.5-3.87-.82-5.8-1.23-3-.64-4.79.56-5.42,3.88a35.73,35.73,0,0,1,4.18-1.08c4.19-.57,7.05,1.62,9.5,4.7a16.3,16.3,0,0,0,3,3c1.49,1.09,2.84.34,2.81-1.51,0-1.5-.28-3-.43-4.41,1.86.61,4.16,4.33,3.9,6.57s-1.54,3.31-4.45,3.71c-2,.27-4,.25-5.9.35,1.28.57,2.83,1.19,4.31,1.93,5,2.53,7.83,6.48,7.7,12.27,0,1.17.1,2.36,0,3.52-.21,2,.9,2.91,2.59,3.49a42.42,42.42,0,0,1,6.2,2.33c2.16,1.14,3,5.12,1.75,7.17-1.07,1.8-3.09,2.32-6,1.42a6.67,6.67,0,0,0,1.27-.55c.57-.42,1.54-1,1.5-1.37-.08-.78-.62-2-1.21-2.15a62.81,62.81,0,0,0-7.1-1.34,1.11,1.11,0,0,0-.87.61,9.37,9.37,0,0,0,1.26,8.61c1.69,2.41,4.17,4.21,7.23,3.53,2-.43,3.7-2,5.38-2.89.65,3.93-2.69,7.51-9,8.77,4.62,5.13,2.86,9.94-.7,14.54,1.61,3,4.94,1.61,6.07-1.2a22.83,22.83,0,0,0,1-4.85,11.51,11.51,0,0,1,.22-1.85c2.21,3.12,2.19,6.47,1,9.91-.8,2.27-1.78,4.26-4.55,4.84a4.86,4.86,0,0,1-4.55-1.26c-1.26-1.13-2.3-2.54-3.65-3.53a24.92,24.92,0,0,0-4.1-2l-.44.75a12.73,12.73,0,0,0,1.59,1.31c3.23,1.91,4.18,4.61,3.16,8.2-.54,1.91.55,3.54,2.47,4.23,3.13,1.12,4.29,3.06,3.8,6.36-.34,2.27-2.87,4.13-5.72,4.17a4.2,4.2,0,0,1-2.07-.42c.92-.45,1.82-.94,2.76-1.34a2.34,2.34,0,0,0,1.4-3.17,4.07,4.07,0,0,0-2.72-2,12.86,12.86,0,0,0-4.55.49c-3.67.84-4.79.08-5.13-3.68,0-.19,0-.39,0-.59-.4-2.67-1.57-3.3-4.24-2.85-3,.51-6.16.86-8.87-1.56-.19,2.67-.41,5.21-.55,7.75a28,28,0,0,0,0,4.13c.37,4,3.24,5.65,6.51,3.3.07,0,.24,0,.36.07-.66,3-2.75,3.62-8,2.3.7,2.65,1.19,5.21.12,7.87-1.31,3.26-4.07,4.22-6.78,2.48,1.25-1.31,2.9-2.47,3.75-4.07,1.43-2.69.26-5.33-1.57-7.39s-4.23-2.39-6.9-1.93c-3.58.62-7.19,1-9.87-2.57,1,2.58,1.83,5.23,3,7.73a56.7,56.7,0,0,0,10.87,16.43c3.44,3.49,7.84,5.47,12.15,7.62a40.91,40.91,0,0,1,18.67,18c1.16,2.25,2,4.67,3,7.1,2.62-1,5.09-2.28,7.7-3,9.86-2.86,18.72-1,26.3,6.09,5.95,5.58,8.46,12.72,9.64,20.6,1,6.81-.18,13.28-2,19.76-1,3.64-1.48,7.31.71,10.78.11.18,0,.49,0,.77-2.71-.72-3.72-2.55-3.93-6.89-5.49,5.81-7.06,11.71-3.71,18.7,1.4,2.93,2.93,5.78,3,9.2.12,4.6-2.08,7.82-5.56,10.41-7.3,5.43-5.26,14,1,17.6,5.12,3,9.95.11,12.28-5.56.44-1.08.81-2.19,1.3-3.56,2.09,8.77-1.3,15.43-9.69,16.3,3.09,2.84,7.6,2.92,11.64.36a22.55,22.55,0,0,0,8.33-10l.5.19a59.07,59.07,0,0,1-2.5,7.29c-2.15,4.39-5.33,8-10.28,9.1a20.12,20.12,0,0,1-7.74.2,9.47,9.47,0,0,0-5.15.12,6.69,6.69,0,0,1-7-1.44c-2.19-2.19-4.82-2.45-7.39-3.22-6.12-1.83-9.06-4.77-9.89-10.76-.2-1.42.53-3,.87-4.47s.77-3.17,1-4.78c-2.7,3.33-7,3.88-8.6,1,.82,0,1.62-.06,2.4-.14,2-.22,2.75-1.25,2-3.16a38.47,38.47,0,0,0-2.73-5.45,18.33,18.33,0,0,1-2.6-12.26,30.48,30.48,0,0,1,3.58-10.64c-3.8-6.09-3.45-12-.09-18-3.6.75-4.85,3.4-4.51,9.53-5.47-4.4-4.29-14.74.22-19.2l-3.17,2.21c.94-5.56,4.8-8.45,9.26-11.06-1.28-3.3-3.23-6.55-1.8-10.67a32.1,32.1,0,0,0,2,2.86c.82.94,1.59,2.19,3.21,1.15,1.19-.77,2.1-2.82,1.27-4a12.56,12.56,0,0,0-3.71-3.64,21.68,21.68,0,0,0-4.88-1.57c-1.94,4.57-3.43,8.83-5.54,12.77a63.88,63.88,0,0,1-6.36,9.08c-5.33,6.78-3.61,13.48-.05,20.23a12.67,12.67,0,0,0,1,1.65c1.45,2,2.59,4.07,5,5.29,3.09,1.54,3.51,2.84,2,6.36a95.31,95.31,0,0,1-5.51,10.26c-2.46,4.25-5.06,8.42-7.56,12.65a18.36,18.36,0,0,0-2.65,11.05c.4,4.95-3.38,8.55-7.72,9.85-.57-1-1-2.48-1.65-2.64-1.66-.4-2.74.79-3.13,2.41-.35,1.42-.54,2.88-.89,4.3-.86,3.48-3.52,5.18-6.56,6.44-4.68,1.94-9.61,1.69-14.5,1.55-2-.06-2.84-2-2-4,1.68-4.09,5-6.53,8.55-8.83a3.42,3.42,0,0,0,1.6-2c.32-3.79,2.75-6.12,5.5-8.15,3.64-2.69,7.47-5.13,11.15-7.78a12.93,12.93,0,0,0,5.32-9.55c.4-3.91.54-7.84.82-11.76a9.13,9.13,0,0,0-1.83-6.31c-3-4-5.42-8.46-8.82-12s-7.62-6.25-11.51-9.29c-1.45-1.13-3-2.18-4.53-3.32-3.91,4.53-6.8,9.34-7.79,15.23a23,23,0,0,0,1.33,12.24c1.25,3.31-.21,6-3.55,7.12-3.74,1.25-7.67,2.21-10.76,4.77-3.44,2.84-6.67,5.93-9.89,9-.57.54-.66,1.6-.94,2.43a19.81,19.81,0,0,1-.65,2.18c-.19.41-.68.67-1,1l-.7-1.25c-1.67,3.82-5.07,4.85-8.72,6.07l1.44-4.8a4.52,4.52,0,0,0-4.81,4.26c-.26,6.94-.91,6.68-7.24,7.57-4.51.63-9.09.88-13.64,1.16a3.41,3.41,0,0,1-2.36-.91c-.24-.24.28-1.5.72-2.11,3.49-4.87,7.52-9.13,13.3-11.33a4.19,4.19,0,0,0,3-3.19c-2.42-1.18-2.49-1.72-.49-3.51a11.52,11.52,0,0,1,7.31-3c3.45-.1,5.92-1.85,8.39-3.74,3.21-2.45,6.34-5,9.42-7.63,6.06-5.12,7-11.67,4.88-18.88-1.23-4.14-3-8.12-4.29-12.24-1.67-5.23-3-10.6-.57-15.93,1.17-2.59,3-4.89,4.32-7.4.88-1.65,1.47-3.45,2.22-5.26-25.94-8.72-42.8-26-51.39-51.47-3.46.75-6.14-.32-8.62-2.44-4.43-3.77-9-3.13-12.22,1.71-3,4.52-5.95,9.07-8.68,13.75-2,3.42-.85,5,3.2,5.29a19.54,19.54,0,0,1,4.47.89c1.26.39,1.62,1.35.79,2.51-1,1.4-1.55,2.89-.38,4.4s2.6,1.38,4.23.92a9.89,9.89,0,0,1,3.4-.41,2.15,2.15,0,0,1,1.43,1.33,64.89,64.89,0,0,1,2.34,9.21,44,44,0,0,1,0,8.63,35.8,35.8,0,0,1-1.11,5.22,26.7,26.7,0,0,1-14.45-13.51c-2.2-.14-4.81.3-6.58-2.84l-.23,3.76-.4,0c-2.69-4.36-5.44-8.69-8-13.1a13.12,13.12,0,0,1-.84-3.29A34.23,34.23,0,0,0,7159,7206c-1.82-3.89-2-4.72-.18-10.28l-3-4.22-1.41,3.24-.43,0c-.34-2.09-.69-4.17-1-6.26-.59-3.72-1.32-7.42-1.71-11.16a10.76,10.76,0,0,1,3.21-8.58c3.55-3.68,7.59-6.89,11.31-10.42,3-2.81,6.24-5.33,7.53-9.59.9-3,3.4-4.94,5.85-6.75,2.85-2.11,5.84-3.87,9.56-4,3.09-.09,5.11,1.5,6.52,4,1.31,2.33,2.45,4.76,3.67,7.14a6.41,6.41,0,0,0,3.92,3.19c2-2.18,3.81-4.22,5.75-6.08.85-.82,2.14-1.17,3.07-1.94,1.52-1.24,3.35-2.4,4.25-4,2.7-4.89,6.88-7.68,12-9.3s10.53-3,15.72-4.72c4.64-1.54,8.47-4.12,10.21-9.09.44-1.25.05-1.63-.88-2-1.78-.81-3.4-1.43-5.56-.69-3.24,1.1-6.78,1.41-9.56,3.63a28.86,28.86,0,0,0-4.38,4.12c-3.1,3.79-6.78,4.42-11.18,2.66-1.28-.51-2.74-.56-4.08-1a2.45,2.45,0,0,1-1.18-1,26.8,26.8,0,0,0-2.21-3.57c-3.34-3.62-1.72-7.27,1.51-9.74,1.77-1.36,3.77-2.47,5.38-4a37.5,37.5,0,0,0,3.32-4.38c1.66-2.11,3.45-4.13,5.06-6.28a5.33,5.33,0,0,0,1.38-3c-.18-3.07,1.65-4.6,3.88-6,.37-.23.77-.42,1.2-.66l-2.59-3.62-3.14,2.75v-3.13c-1.6-1.43-3.76-2.48-4.32-4.08-.81-2.33-1.65-2.86-4-2.52-2.1.31-3.7-1.36-3.94-3.64-.14-1.35-.47-1.51-1.78-1.23-2.58.55-4.42-.6-5.21-3.4-.54-1.92-1.72-2.35-3.36-2.4-3.71-.12-5.19-1.24-6.59-4.66a2.5,2.5,0,0,0-1.93-1.15c-2.84,0-5.07-.63-5.66-3.91-.07-.37-1.07-.81-1.62-.8-2,.06-3.16-.53-3.29-2.79-.1-1.74-1.25-2.95-2.71-3.95-2.32-1.58-4.55-3.31-6.77-5.05a12.27,12.27,0,0,1-1.61-1.89l.38-.43c.44.17.88.32,1.31.51,3.5,1.55,7.05,3,10.46,4.72a8.14,8.14,0,0,1,3,2.91,2.33,2.33,0,0,0,2.33,1.24c3.07,0,3.58.45,4.71,3.41a2,2,0,0,0,1.61.91c3.66-.5,5,.28,5.9,3.82.38,1.53.82,2.23,2.72,1.71,2.89-.79,5.68.16,6.4,2.5.83,2.7,1.93,3.25,4.55,2.6,1.63-.41,4.28,2.42,4.57,4.29.37,2.39,1,2.78,3.19,2a3.42,3.42,0,0,1,4.64,3C7234,7075,7234.46,7075.19,7236.47,7074.46Zm-36.86,96.73c-.87-.7-1.66-1.78-2.64-2a9.55,9.55,0,0,1-7.08-6.25c-1.45-3.52-5.68-3.83-8-2.3-5,3.21-9.77,6.73-14.59,10.18-4.1,2.93-4.08,4.36,0,7.27,3,2.16,3.28,4.19,1,7.1-1.15,1.44-1.81,2.93-.64,4.76a24.35,24.35,0,0,0,3.73-10,22.46,22.46,0,0,1,7.74-15c2.54-2.24,7.21-2.86,9.7-.36,1.18,1.18,2.45,2.29,3.71,3.39C7194.41,7169.77,7196.38,7171.6,7199.61,7171.19Z" transform="translate(-7151.29 -7039.5)"/></svg>