<svg id="Calque_1" data-name="Calque 1" xmlns="http://www.w3.org/2000/svg" viewBox="0 0 135.14 313.01"><title>8</title><path d="M7243.72,7060.91c-1.51.24-1.94.74-1.35,1.75.81,1.38.22,2.28-1,2.85a53.68,53.68,0,0,1-5.1,2.15c-7.57,2.57-15.14,5.15-22.76,7.56a44.92,44.92,0,0,1-6.4,1.08l-.26-.56a37.62,37.62,0,0,1,3.9-3q10.74-6.23,21.58-12.3c3.33-1.86,6.77-3.52,10.15-5.28a1,1,0,0,0,.48-.43c1.15-3.2,4.27-4.51,6.46-6.72.21-.21.59-.24.87-.38a7.9,7.9,0,0,0,2.31-1.2,2,2,0,0,1,2.91-.31c1.88,1.52,3.58,3.22,3.65,5.89,0,.16.11.35.05.48-1.13,2.55-.6,5.78-2.86,7.81-2.9,2.62-2.45,5.8-2.28,9.16a105.81,105.81,0,0,1-.21,11.31c-.19,3.39-.57,6.76.83,10a7.64,7.64,0,0,1,.69,2.51c.18,3.32,2.26,5.72,4,8.26,1.1,1.62,3,1.51,4.79,1.53,2.26,0,4.52.27,6.79.31a17.32,17.32,0,0,0,3.46-.38c1.32-.25,2.61-.68,3.93-1s2.67-.53,4-.71c1.66-.23,3.33-.44,5-.56,1.29-.09,2.6.07,3.88-.08,1.77-.21,2.31-1.22,1.75-2.9a24.63,24.63,0,0,0-1.22-3.7,4.57,4.57,0,0,0-2-1.89c-1.52-.7-3.28-.93-4.72-1.74a6.3,6.3,0,0,1-2.54-2.75,60.64,60.64,0,0,1-2.12-6.48,3.6,3.6,0,0,0-2.53-2.54c-1.69-.53-2-1.34-1.33-3a36.48,36.48,0,0,0,2.3-5.2,56.27,56.27,0,0,0,1.39-8.53,4.37,4.37,0,0,0-1.24-2.53,5.55,5.55,0,0,1,.16-7.14c1.31-1.47,2.63-2.93,3.9-4.44a4.64,4.64,0,0,1,3.84-1.45c1.88,0,3.26-.85,4.8-1.77,3.27-1.94,6.64-3.77,10.75-2.74,1.52.38,3.19.16,4.73.51,5.23,1.2,9.19,4.68,9.86,10.55.5,4.38,1.42,8.74,1.54,13.13a19.58,19.58,0,0,1-3.13,11.33,20.47,20.47,0,0,0-3,9.4,8.06,8.06,0,0,0-.25,1.77,3.72,3.72,0,0,0,.74,2,36.56,36.56,0,0,0,4.39,3.89,28.85,28.85,0,0,0,5.1,3.07,30.37,30.37,0,0,1,13.49,11.73c2.84,4.45,3.75,9.2,3.9,14.32.08,2.71.81,5.39,1.07,8.1.48,5,1.54,10.11,1,15-.41,3.61,0,7.25-.75,10.83-.63,2.87-.89,5.82-1.3,8.74a2.37,2.37,0,0,0,0,1,17.62,17.62,0,0,1-.39,10.62c-1,3.05-1.58,6.21-2.54,9.27-.89,2.84-2,5.6-3.06,8.41-.8,2.19-1.56,4.39-2.35,6.59a5.76,5.76,0,0,1-.71,1.8c-1.57,1.84-1.31,4-1.17,6.1a12.64,12.64,0,0,1-.07,2.25c-.29,2.59-.48,5.21-1,7.77-.41,2-1.34,4-1.84,6a16.6,16.6,0,0,0-.75,5.26,144.29,144.29,0,0,1,0,18.46,119.16,119.16,0,0,0-.32,12.14,13.38,13.38,0,0,0,2.32,6.33,21.53,21.53,0,0,1,3.19,9.47c.44,3.06,1.22,6.06,1.71,9.11.41,2.58.68,5.19.88,7.8.2,2.45.33,4.92.32,7.38a72.9,72.9,0,0,1-.37,9.19c-.47,3.59.43,6.94,1.16,10.35.41,1.92,1.12,3.79,1.36,5.72a9.83,9.83,0,0,1-.36,4.48,18.18,18.18,0,0,1-5.14,7.58,8.07,8.07,0,0,0-3,4.35,11.05,11.05,0,0,1-2.15,3.82c-4.83,6.39-10.09,8.62-17.81,6-2.09-.7-2.68-2.21-1.49-4.09,2-3.23,4.22-6.36,6.31-9.56,1.34-2.07,2.28-4.2,1-6.71a10.83,10.83,0,0,1-.57-2.51,5.49,5.49,0,0,0-.57-2.17c-1.66-2-1.47-4.39-1.38-6.74q.11-2.82.36-5.63c.22-2.4.45-4.79.77-7.18a7.08,7.08,0,0,0-.88-5,7.17,7.17,0,0,1-.91-6.7c1.18-3.07.54-5.67-1.48-8.22-2.39-3-3-6.79-3.87-10.46-1.67-7-3.67-13.85-5.54-20.76a3.75,3.75,0,0,0-.46-1c-.7-1.08-1.9-1.09-2.18.13a50.54,50.54,0,0,0-.79,6.43c0,.42.22.92.09,1.29-1.7,4.92-.58,10-1,15-.36,4.73-.72,9.47-1.34,14.17-.56,4.26-1.37,8.49-2.27,12.69a29.47,29.47,0,0,1-2.13,6.14,5.55,5.55,0,0,0-.15,5.29c1.17,2.32-.71,8-2.73,9.61a19.11,19.11,0,0,1-10.22,3.93,2.31,2.31,0,0,1-.66,0c-3.8-.7-7.06,1-10.51,2.15a66,66,0,0,1-9.68,2.12,2.7,2.7,0,0,1-3.19-1.45,3.53,3.53,0,0,1,.73-4.08,21,21,0,0,1,10.34-6c.9-.22,1.81-.41,2.71-.63,4.24-1,6.33-5.16,5.85-9.84a18.23,18.23,0,0,1-.06-5c.88-4.87,2.16-9.66,2.93-14.54a44.9,44.9,0,0,0,.1-8,11,11,0,0,1,1.46-6.58,3.75,3.75,0,0,0-.08-2.68,10.28,10.28,0,0,0-1.43-2.54c-1.59-2.38-1.3-4.9-.9-7.55.26-1.69-.19-3.47-.23-5.21-.1-4.33-.12-8.66-.24-13-.07-2.5-.33-5-.43-7.5-.25-6.14-.54-12.27-.64-18.41a97.09,97.09,0,0,1,.4-10.51,65.36,65.36,0,0,1,1.4-7.37c.68-3.25.7-3.22-2.28-4.43a14.93,14.93,0,0,1-2.28-1.26c-1.6-1-1-2.58-.74-3.87,1.73-8.42,3.67-16.79,5.32-25.23a80.28,80.28,0,0,0,1.13-10.43c.34-5.52.59-11.05.7-16.58.07-3.33-.34-6.68-.25-10a59.38,59.38,0,0,1,1-6.44c.2-1.4-.47-2-1.86-1.85-1.18.16-2.35.46-3.53.68-1.48.28-2.58,0-3.28-1.59-1.41-3.27-4.15-4.77-7.54-5.64-3.92-1-7.75-2.43-11.58-3.77a7.52,7.52,0,0,1-2.47-1.59,7.85,7.85,0,0,1-2.89-5.15c-.39-4-1.71-7.93-1.25-12a17,17,0,0,1,.5-2.18c.05-.21.27-.49.2-.59-1.43-2.13-.31-4.37-.23-6.53.16-4.15.56-8.29.93-12.44a46.41,46.41,0,0,0,.63-4.86C7244.32,7066.42,7244,7063.75,7243.72,7060.91Z" transform="translate(-7206.81 -7041.7)"/></svg>