<svg id="Calque_1" data-name="Calque 1" xmlns="http://www.w3.org/2000/svg" viewBox="0 0 245.84 313.01"><title>9</title><path d="M7309.95,7109.87c4.62,1.54,8.87,3.63,11.81,7.41a12.51,12.51,0,0,1,2.63,6.43c.37,5.65.12,11.34.12,17.11l-10,2.84,10.61,157.67c2.21-.9,4.15-1.62,6-2.48,3.51-1.6,6.95-3.36,10.48-4.88a6.09,6.09,0,0,1,3.45-.41c5.93,1.26,11.88,2.49,17.72,4.11,5.6,1.55,11.32,2.48,16.93,3.91,5.8,1.48,11.65,2.73,17.48,4.1.22.05.41.26.79.52-6.58,5.06-13.07,10.08-19.62,15a2.79,2.79,0,0,1-2,.2c-14.06-3.24-28.1-6.55-42.15-9.8-4.77-1.1-5.35-.93-7.78,3.24-2.32,4-4.31,8.12-6.58,12.12a4.63,4.63,0,0,1-2.34,2.1c-12,3.48-23.91,7.07-36,10.1-3.73.94-7.85.31-11.8.38-8.48.14-17,.21-25.43.44a6.86,6.86,0,0,0-3.56,1.22c-5.7,4-11.42,8.06-16.89,12.38-2.5,2-4.9,1-7.28.6-21.32-3.23-42.63-6.59-64.37-10,4.48-3.83,9-7.16,12.83-11.13,5.06-5.21,11.35-7.5,18.07-9.23,4.2-1.08,8.38-2.31,12.51-3.63a5.25,5.25,0,0,0,2.57-2c3.37-5.15,6.5-10.47,10-15.56a12.93,12.93,0,0,1,4.67-4c3.87-2,8.12-3.22,11.88-5.36,4.11-2.33,8-1.54,12-.4.23.07.43.26.66.34,3.72,1.19,4.05.9,4.32-3,1-15.26,2.17-30.52,3.21-45.78.77-11.24,1.45-22.49,2.2-33.74.86-13,1.79-25.93,2.63-38.9.62-9.51,1.16-19,1.74-28.68l-9.71-2.45c0-6.12-.35-12.21.11-18.24.39-5.1,4.62-7.65,8.55-10.11a6.08,6.08,0,0,1,1.93-1c4-.76,4.44-3.48,4.05-6.87-.22-1.87,0-3.79-.08-5.67a5.53,5.53,0,0,0-.79-2.73c-3.14-4.47-2-12.51,3.86-15.23a8.46,8.46,0,0,0,4.23-4.39c3.79-7.77,10.19-12,18.72-12.68v-16.08h-2.06l.45-1.92,1.38,1.48.61-.31c-.13-1.27-.3-2.54-.38-3.81a2,2,0,0,1,.24-1.28,1.14,1.14,0,0,1,1.07,0,2.35,2.35,0,0,1,.17,1.33c-.12,1.25-.3,2.5-.45,3.76l.67.31,1.32-1.47.57,1.89h-2.14v16.13c7.21.51,13.22,3.66,17.08,9.91,2.12,3.44,4.19,6.5,7.81,8.65s4,6.13,3.54,10.09a1.53,1.53,0,0,1-.31.89c-2.31,2.1-2.53,4.87-2.44,7.7S7309.78,7106.85,7309.95,7109.87Z" transform="translate(-7152.16 -7041.78)"/></svg>