<svg id="Calque_1" data-name="Calque 1" xmlns="http://www.w3.org/2000/svg" viewBox="0 0 210.05 313.05"><title>Base 2</title><path d="M7138.7,7149.75l2.88-4c.88,1.26,1.7,2.36,2.44,3.5a1.66,1.66,0,0,1-.35,2.26c-.66.63-1.37,1.19-2.19,1.91l-2.79-2.94Z" transform="translate(-7138.7 -7036.78)"/><path d="M7258.76,7112.62l-2.85-.72-3-.72c1.14-1.56,2.11-3.06,3.27-4.4.93-1.08,2.33-.89,3.61-.76a11.71,11.71,0,0,1,5.83,2.3,3.46,3.46,0,0,1,1.47,4,6.9,6.9,0,0,1-2.67,4.12,82.31,82.31,0,0,1-19.82,10.3,37.45,37.45,0,0,0-5.21,2.6c-.91.51-.94,1.27-.35,2.21a5.59,5.59,0,0,0,3.87,2.93c3,.5,6,1,9,1.53,7.13,1.21,10.54,6,9.63,13.18a27.85,27.85,0,0,1-7.61,15.81,22.35,22.35,0,0,0-6.12,17.33c.31,5.22.5,10.46.75,15.68.1,2.05.53,2.49,2.57,2.68,7.6.69,15.22,1.21,22.7,2.83a41,41,0,0,1,13,5.63,6,6,0,0,1,3,5.89c-.29,3.21-.5,6.44-.88,9.64a6.17,6.17,0,0,1-1,2.65c-2.51,3.67-3.66,7.84-4.83,12-3.09,11.07-6.32,22.1-9.51,33.15q-10.53,36.47-21.1,72.93c-.42,1.44-1,2.82-1.62,4.39a14.6,14.6,0,0,1-2.92-5.1q-16-58-32.14-116c-.07-.26-.17-.52-.28-.88-.51.2-1,.41-1.45.56-1.75.54-2.73-.1-2.84-1.93-.08-1.31,0-2.64,0-4,0-2.12,0-4.24,0-6.36a9,9,0,0,1,4.25-8,36.34,36.34,0,0,1,13.09-5.11c5.09-1,10.26-1.5,15.4-2.22.58-.08,1.17-.12,1.92-.2a21.36,21.36,0,0,1-3.48-9.39,49.13,49.13,0,0,1,1.78-19.33,46.53,46.53,0,0,1,6.89-13.75,32.64,32.64,0,0,0,3.61-6.17,11.54,11.54,0,0,0,.67-5.13,5,5,0,0,0-3.71-4.55c-3.29-1-6.64-1.73-9.93-2.69a18.11,18.11,0,0,1-4.53-1.79,8.48,8.48,0,0,1-1-13.76,20,20,0,0,1,4.78-2.91c4.61-2,9.32-3.8,13.93-5.79a32.45,32.45,0,0,0,4-2.45Z" transform="translate(-7138.7 -7036.78)"/><path d="M7200.13,7189.43c-1.88-3.72-5.24-4.53-8.75-5.12-1.77-.3-3.52-.71-5.26-1.14a5.22,5.22,0,0,1-4.23-5.14c-.11-1.51-.25-3-.25-4.54,0-.81-.2-1.22-1-1.42a24.1,24.1,0,0,1-2.94-1,11.38,11.38,0,0,1-7.5-9.46c-.25-1.62-.4-3.25-.51-4.88-.15-2.24-.69-3-2.82-3.78-4.16-1.46-7.54-3.86-9.36-8a15.08,15.08,0,0,1-.35-10.67c2.51-8.34,7.67-14.8,14.36-20.19,5.45-4.4,11.67-7.34,18.12-9.88,3.11-1.22,6-3,9.46-3.28l1.28-.15c-.47,1.93-1,3.73-1.34,5.56-.56,2.89-2.33,4.52-5,5.56-3.45,1.34-6.87,2.83-10.18,4.48a49,49,0,0,0-18.14,15,25.51,25.51,0,0,0-4.28,8.9,5.1,5.1,0,0,0-.12.71c-.22,2.16-.08,2.6,1.87,3.47,2.33,1,4.73,1.92,7.13,2.79a1.34,1.34,0,0,0,1.18-.38,12.92,12.92,0,0,0,1.46-2.32,43,43,0,0,1,14.75-16.55,8.6,8.6,0,0,1,6.84-1.45c3.05.67,4.37,2.88,3.57,5.91a19.65,19.65,0,0,1-6,9.63c-2.72,2.46-5.63,4.72-8.5,7a7.92,7.92,0,0,1-2.21,1.16c-2.94,1.08-4.14,2.6-4.21,5.69a37.9,37.9,0,0,0,.2,4.55,4.47,4.47,0,0,0,2.14,3.45c1.07.67,2.25,1.18,3.46,1.81,1.32-2,2.55-3.83,3.83-5.65,1.08-1.54,2.21-3,3.35-4.53a7.86,7.86,0,0,1,1.15-1.21c1.49-1.27,3.09-2.22,5.11-1.2a6,6,0,0,1,2.64,5.43,2.54,2.54,0,0,1-.53,1.17,53,53,0,0,1-10.7,10.76c-2.57,1.81-2.9,3.45-1.66,6.33s3.07,4.63,6.21,5a11.91,11.91,0,0,1,7.27,3.58C7201.14,7186.8,7201.26,7187.29,7200.13,7189.43Z" transform="translate(-7138.7 -7036.78)"/><path d="M7236.48,7118.71a19.38,19.38,0,0,1-.28-11.9,26.06,26.06,0,0,1,7.16-12.13,19.85,19.85,0,0,0,2.93-3.61,5.32,5.32,0,0,0-1.16-7.49,37.45,37.45,0,0,0-3.52-2.49c-4.66-3.13-6.4-7.48-5.43-13a8.66,8.66,0,0,1,4.56-6.25c2.83-1.62,5.55-3.44,8.23-5.12-.12-1.09-.63-1.41-1.46-1.46a23.33,23.33,0,0,1-3.33-.34c-3-.62-4.3-2.74-3.59-5.68a13.11,13.11,0,0,1,6.28-8.27,30.76,30.76,0,0,1,15-4.15,68,68,0,0,1,6.83,0c1.7.09,2.27.86,2,2.57a32.87,32.87,0,0,1-1,4.42c-.48,1.63-1.85,2-3.34,2l-11.39-.11c-.67,0-1.34.07-2,.11-.38,1,0,1.49.88,1.81a9.77,9.77,0,0,1,4.7,3.17c2.32,3.08,2,7.11-1.11,9.37s-6.25,4-9.41,5.93c-1.7,1-3.5,1.92-5.17,3s-1.87,2.09-.24,3.49,3.5,2.64,5.25,4a29.27,29.27,0,0,1,3.4,2.63c3.08,3.13,3.61,7,1.25,11-1.87,3.19-4.09,6.2-6.26,9.21-1.31,1.81-2.83,3.46-4.22,5.22C7238.12,7109.56,7237,7112.54,7236.48,7118.71Z" transform="translate(-7138.7 -7036.78)"/><path d="M7284.9,7135.47a17.41,17.41,0,0,1-5.57-7.85,27.49,27.49,0,0,1-1.43-10.74c.25-6.06.92-12.08,3.62-17.6a77.41,77.41,0,0,1,5.35-8.77c1.9-2.84,3.71-5.69,4.29-9.14a5.49,5.49,0,0,0-2.86-6.2,27.21,27.21,0,0,0-6.15-2.22,32.29,32.29,0,0,1-8.68-3c-6.42-3.74-6.52-11.1,0-14.69,3.9-2.15,8.09-3.77,12.17-5.61,2.62-1.18,5.26-2.31,7.88-3.5.3-.13.72-.56.68-.75a1.47,1.47,0,0,0-.75-.89c-1.23-.53-2.51-1-3.86-1.47.53-1.28,1-2.46,1.51-3.62a2.68,2.68,0,0,1,2.69-1.64,13.37,13.37,0,0,1,5.87,1.5c3.43,1.72,4.05,5.47,1.37,8.3a27.08,27.08,0,0,1-9.35,6.37c-4.27,1.78-8.57,3.52-12.84,5.29-2.5,1-2.62,1.14-4.46,3.25a6.94,6.94,0,0,0,4.81,3.6q4.69.95,9.35,2a21.2,21.2,0,0,1,3.41,1.11c3.83,1.62,5.85,4.57,5.73,8.71-.16,5.86-1.77,11.4-5.66,15.84-6.38,7.29-8.91,15.77-8.53,25.22.2,4.9.83,9.79,1.26,14.69C7284.8,7134.29,7284.85,7134.88,7284.9,7135.47Z" transform="translate(-7138.7 -7036.78)"/><path d="M7328.89,7103.62c-.3.71-.52,1.26-.76,1.81-1.4,3.23-2.78,4.22-6.28,4-4.63-.27-9.24-.8-13.86-1.08-3.25-.2-6.5-1-9.76-.13a1.55,1.55,0,0,0-.84.78c-.35.75.21,1,.8,1.29,5,2.09,9.94,4.17,14.89,6.29a43.1,43.1,0,0,1,5.07,2.43c4.55,2.7,5.18,7.32,1.36,11a82.46,82.46,0,0,1-7.12,5.66,1.41,1.41,0,0,0-.69,1.65,9.42,9.42,0,0,1-3,9.35c-2.9,2.62-6,5-9.13,7.38-3.84,3-7.74,5.94-11.61,8.9-.31.24-.63.45-1.09.79-.07-1.91-.1-3.52,1.52-4.84,4-3.29,7.89-6.75,11.87-10.09,2.54-2.13,4.92-4.35,5.84-7.69,0-.08.06-.15.08-.23.76-2.83.14-3.44-2.73-3.9a97.74,97.74,0,0,1-11.33-2.49c-2.94-.84-3.45-3.48-1.48-5.84a5.83,5.83,0,0,1,6.48-1.89c3.48.91,7,1.7,10.14,3.54a3.41,3.41,0,0,0,4.11-.16c2.12-1.57,4.24-3.13,6.32-4.74.77-.6.3-2.08-.72-2.39-4.47-1.34-9-2.53-13.41-4.05a62.19,62.19,0,0,1-9.41-4.1c-4.45-2.43-4.69-7.35-.69-10.52a15.16,15.16,0,0,1,10-3.48c5,.16,10,.73,15,1.25,3.18.33,6.33.87,9.49,1.32C7328.19,7103.47,7328.45,7103.53,7328.89,7103.62Z" transform="translate(-7138.7 -7036.78)"/><path d="M7205.79,7079.94l-4.88-5.71c2.51-1.49,4.88-3,7.37-4.33a43.81,43.81,0,0,1,11.06-3.82,4.25,4.25,0,0,1,4.82,1.82,31.33,31.33,0,0,1,2.07,3.5c.78,1.55.34,2.87-1.41,4.25-2.45,1.93-4.94,3.8-7.43,5.69-1.17.89-2.36,1.76-3.76,2.81l3.41,1.09a15.66,15.66,0,0,1,6.62,3.47c3.26,3.23,3.87,7.08,2.42,11.26a23.33,23.33,0,0,1-2.75,5.56c-4.69,6.8-4.93,13.9-2.07,21.44,2.11,5.55,3.91,11.22,5.83,16.85a4.33,4.33,0,0,1-.52,3.73,19.71,19.71,0,0,1-2.57-3.62c-2.9-7.09-5.76-14.2-8.42-21.38-1.92-5.19-2.45-10.55-.08-15.77a32.71,32.71,0,0,1,3.45-5.58,10.13,10.13,0,0,0,1.79-6.68c-.06-1.37-1.1-2.24-2.74-2.34a17.43,17.43,0,0,1-6.63-1.9,10.9,10.9,0,0,1-1.55-.9c-2.23-1.59-2.8-3.94-1.19-6.15a25.36,25.36,0,0,1,4-4.06c2.2-1.9,4.51-3.67,6.82-5.52l-.86-1.37Z" transform="translate(-7138.7 -7036.78)"/><path d="M7348.75,7121.65a103.8,103.8,0,0,1-9.65,22.32,61.43,61.43,0,0,1-9.47,12.47c-4.5,4.43-10.06,6.46-16.27,7-5.94.52-11.56,2-16.31,5.87a25.51,25.51,0,0,0-6.39,8.45c-1.93,3.75-4.18,7.38-5.14,11.56a29.79,29.79,0,0,0-.61,3.3c-.49,4.3-3.2,6.63-7.84,6.51.68-2.12,1.31-4.2,2-6.24,2.76-7.92,6.5-15.29,12.28-21.47,4.3-4.59,9.17-8.43,15.14-10.67a15.28,15.28,0,0,1,6.46-1c7.26.48,12.73-2.73,16.52-8.67,2.74-4.3,5-8.89,7.44-13.39,1.64-3.06,3.26-6.13,4.73-9.28A14.41,14.41,0,0,1,7348.75,7121.65Z" transform="translate(-7138.7 -7036.78)"/><path d="M7218.57,7181.88l4.07,4.72c-1.64.6-3.15,1.19-4.7,1.68a1.13,1.13,0,0,1-.93-.43,26.46,26.46,0,0,1-1.48-2.46,20.85,20.85,0,0,0-7.36-7.88,9,9,0,0,1-3.69-4.39c-.4-.95-.83-1.89-1.25-2.82a1,1,0,0,1,1.54-.21c2.53,1.74,5.09,3.44,7.69,5.18.69-1,1.28-2,2-2.83a4.64,4.64,0,0,1,6.89-.73c.19.15.37.3.55.46,2.38,2.15,2.54,3.54.62,6.06a35.26,35.26,0,0,1-2.56,3A4.38,4.38,0,0,1,7218.57,7181.88Z" transform="translate(-7138.7 -7036.78)"/><path d="M7253.46,7179.73l6.33-1.68c0,5.83,1.53,10.76,6.88,13.89,1.41-3.56,3-7,3.31-10.83a8.17,8.17,0,0,1,.14-.95c.44-2.26,1-2.73,3.26-2.83.83,0,1.67,0,2.59,0a15.49,15.49,0,0,1-1.17,8.9,13.13,13.13,0,0,1-4.26,5.53,8.14,8.14,0,0,1-9.32.7c-4.37-2.36-6.51-6.3-7.56-11-.1-.43-.16-.86-.23-1.29A2.7,2.7,0,0,1,7253.46,7179.73Z" transform="translate(-7138.7 -7036.78)"/><path d="M7269.49,7137.7c-.28-3.68-.55-7.29-.82-10.91,0-.18,0-.52.12-.54a10.52,10.52,0,0,1,3.11-.58c.47,0,1.13,1,1.23,1.62a34.59,34.59,0,0,1,.29,4.51c0,.75-.11,1.52,0,2.27.21,2.57-.35,3.31-2.89,3.63A9.45,9.45,0,0,1,7269.49,7137.7Z" transform="translate(-7138.7 -7036.78)"/><path d="M7225.54,7172.47l-2.66-5.72,6.77-4.33c.52,2,1,3.8,1.46,5.65a.91.91,0,0,1-.31.76C7229.12,7170,7227.41,7171.2,7225.54,7172.47Z" transform="translate(-7138.7 -7036.78)"/><path d="M7204.19,7140.68c.91-1,1.67-1.94,2.51-2.79,1.28-1.28,2.17-1.3,3.56-.17.34.28.66.58,1,.87l2.48,2.32c-1.4,1.12-2.72,2.25-4.12,3.28a1.82,1.82,0,0,1-2.5-.38C7206.12,7142.84,7205.21,7141.78,7204.19,7140.68Z" transform="translate(-7138.7 -7036.78)"/><path d="M7225.83,7197.87c-.92-1.69-1.85-3.26-2.63-4.9a2.37,2.37,0,0,1,2-3.22,30.09,30.09,0,0,1,4.39.37c.23,0,.59.61.56.9-.1,1-.37,2-.52,3.05C7229.26,7196.15,7227.62,7196.93,7225.83,7197.87Z" transform="translate(-7138.7 -7036.78)"/><path d="M7328.43,7145.09c-1.23.88-2.3,1.71-3.43,2.43s-2.27.54-3.55-.83c-1-1.11-1.09-1.68-.11-3a7.62,7.62,0,0,1,1.32-1.36,1.67,1.67,0,0,1,2.29,0C7326.07,7143.17,7327.18,7144.08,7328.43,7145.09Z" transform="translate(-7138.7 -7036.78)"/><path d="M7265.88,7100c.6-.74,1.11-1.41,1.65-2,1.1-1.27,1.85-1.38,3.18-.4,1,.75,2,1.59,3,2.45-1,.86-2,1.67-3,2.5a1.47,1.47,0,0,1-2.06,0C7267.76,7101.73,7266.84,7100.85,7265.88,7100Z" transform="translate(-7138.7 -7036.78)"/><path d="M7163.29,7106.49c.59.69,1.07,1.29,1.58,1.84,1.17,1.26,1.2,1.84.1,3.19a3.5,3.5,0,0,1-.31.36l-2.44,2.26c-.66-1-1.41-2.11-2.11-3.24a1.53,1.53,0,0,1,.4-2C7161.32,7108.11,7162.19,7107.42,7163.29,7106.49Z" transform="translate(-7138.7 -7036.78)"/><path d="M7277.78,7151.76c.55,1,1.06,1.82,1.53,2.7.85,1.56.75,2.23-.5,3.51-.36.37-.75.71-1.19,1.13-.44-.33-.89-.64-1.32-1-1.73-1.33-1.82-1.92-.56-3.65C7276.38,7153.61,7277,7152.75,7277.78,7151.76Z" transform="translate(-7138.7 -7036.78)"/><path d="M7189.63,7203c-.9.76-1.68,1.43-2.48,2.08a1.62,1.62,0,0,1-2.43-.08c-1.16-1.12-1.48-2.19-.88-3.14,1.05-1.66,1.91-1.82,3.51-.65C7188.09,7201.8,7188.79,7202.38,7189.63,7203Z" transform="translate(-7138.7 -7036.78)"/><path d="M7271,7167.71c-1.15.78-2,1.35-2.8,1.88-1,.63-1.7.18-2.35-.63a1.65,1.65,0,0,1,0-2.43c1.33-1.49,2.25-1.52,3.64-.08A18,18,0,0,0,7271,7167.71Z" transform="translate(-7138.7 -7036.78)"/><path d="M7236.65,7179.16l-3.08.17v-4.22c.1-.06.17-.12.24-.12,2.18-.09,2.18-.09,2.54,2.06C7236.45,7177.7,7236.53,7178.36,7236.65,7179.16Z" transform="translate(-7138.7 -7036.78)"/></svg>