<svg id="Calque_1" data-name="Calque 1" xmlns="http://www.w3.org/2000/svg" viewBox="0 0 163.61 313.06"><title>Base 3</title><path d="M7320.7,7083.82c-.83,1.59-1.67,3.17-2.49,4.77a27.81,27.81,0,0,1-13.09,12.72c-3.18,1.53-4.24,4.14-4.1,7.45a1.36,1.36,0,0,0,.22.77,12.28,12.28,0,0,1,2.29,5.72c.29,1.4.69,2.79,1.1,4.16a2.41,2.41,0,0,1-.47,2.64c-1.56,1.65-1.57,3.86-1.94,5.93-.78,4.4-1.46,8.82-2.42,13.18a11.93,11.93,0,0,1-7.56,8.83,16.08,16.08,0,0,0-3.26,2,6.29,6.29,0,0,1-4,1.45c-3.39-.12-6.79-.19-10.16-.54a33.2,33.2,0,0,1-5.33-1.46c-.15,3-.32,5.83-.43,8.69-.17,4.31-.6,8.64-.39,12.93.31,6.46,1,12.9,1.67,19.34a119.6,119.6,0,0,0,4.09,21.51c1,3.51,2.67,6.83,3.9,10.29,2.74,7.71,5.55,15.4,8,23.19a87.9,87.9,0,0,1,2.32,11.13,7.2,7.2,0,0,1-1.13,5.28c-3.43,5.26-7.44,9.91-13.29,12.63a2.26,2.26,0,0,0-1.29,2.47c.14,2.07.08,2.16-2,2.23a9,9,0,0,0-5.79,2.12c-4.06,3.4-8.11,6.74-11,11.3-1.58,2.52-1.87,4.82-.13,7.44a16.38,16.38,0,0,1,2.72,9.18,1.71,1.71,0,0,0,.25.89,11.89,11.89,0,0,1,1.68,6.65c0,3,0,6,1.24,8.84a3.65,3.65,0,0,1,.15,1.65c-.35,4.5-.73,9-1.1,13.5-.15,1.79-.61,2.39-2.38,2.8a29.1,29.1,0,0,1-10.14.08c-1-.13-2.06-.27-3.09-.37-1.39-.14-2-.92-1.55-2.3,1.24-4,2.56-8,3.8-12a51.77,51.77,0,0,0,1.4-5.32,4.38,4.38,0,0,0-1.88-4.92,2.18,2.18,0,0,1-.83-1.57,5.05,5.05,0,0,0-1.38-3.47c-1-1.13-2-2.28-3-3.45a5.91,5.91,0,0,1-.51,1,16.88,16.88,0,0,1-2.37,3.06c-2.86,2.45-3.43,5.62-3.22,9.11.16,2.59.35,5.18.45,7.78a6.17,6.17,0,0,1-2.69,5.22,2.47,2.47,0,0,1-3.4-.05,9.06,9.06,0,0,1-1.73-2c-4.25-6.42-5.26-13.4-3.7-20.88a42.39,42.39,0,0,0,1.13-12.25c0-.23-.05-.46-.1-.81l-3.35.19c-.1-.77-.21-1.5-.29-2.24-.21-2.19-.45-4.37-.6-6.56a2.43,2.43,0,0,1,1.92-2.66c2.88-.82,5.77-1.59,8.66-2.39.49-.14,1-.29,1.62-.48-1-.84-1.89-1.62-2.83-2.28a1.09,1.09,0,0,1-.45-1.58c.34-.71.59-1.47.87-2.18-2.33-2.05-2.33-2.05-1.16-3.56-2.71-2.74-2.06-6.53-3-9.87-2.32-8.68-4.62-17.36-6.85-26.06-2.3-9-4.56-18-6.69-27a13.7,13.7,0,0,0-3.78-6.4,1.55,1.55,0,0,1-.25-2.33c1.31-2,1.43-4.29,1.52-6.57.2-5.19.27-10.39.56-15.57.18-3.06.79-6.1,1-9.17.28-3.78.37-7.57.55-11.35l-.39-.18c-1.64,1.64-3.34,3.23-4.92,4.92-3.62,3.87-8,4.91-13,3.49a3.47,3.47,0,0,1-.89-.34c-3-1.85-6.09-3.52-8.86-5.64-3.56-2.71-4.8-6.75-5.22-11.06-.05-.52-.09-1-.15-1.55,0-.19-.08-.38-.17-.85-1.36,0-2.75,0-4.13,0a9.2,9.2,0,0,1-6.1-2.35c-2-1.7-4.34-3-6.41-4.61a42.82,42.82,0,0,1-3.87-3.71c-.17-.17-.28-.69-.17-.79a1.14,1.14,0,0,1,.89-.27c1.32.29,2.61.74,3.94,1,1.83.33,2.49-.5,2.1-2.3a2.61,2.61,0,0,1,.21-1.93c1.39-1.68,2.71-3.57,4.47-4.75,4.81-3.22,11.44.17,12,6a11.41,11.41,0,0,1-.09,2.86c-.44,2.76,1.3,4.73,4,4.44a20.6,20.6,0,0,1,10.29,1.7l1.36.57c.83-1.74,1.66-3.45,2.46-5.17,3-6.41,5.93-12.83,8.93-19.23,1.55-3.31,3.8-5.9,7.45-7a1.64,1.64,0,0,0,.86-.73c1-1.81,2.52-2.36,4.5-2.3,3.14.09,6.29,0,9.57,0,.57-1.77,1.37-3.61,1.24-5.8-.35-5.78,1.43-11.11,3.83-16.28,1.2-2.6,2.38-5.21,3.58-7.82-2.92-1.25-6.39.1-7.3,2.86-1.37,4.13-2.58,8.31-3.82,12.48a3,3,0,0,0,.06,1.28c.21,1.24-1.08,2.83-2.15,2.48-.56-.18-1.29-.74-1.37-1.22a2.45,2.45,0,0,1,.64-2,3.51,3.51,0,0,0,1.4-2.5c.38-3.41.86-6.82,1.21-10.24a10.23,10.23,0,0,1,6.75-9.12c3.86-1.49,7.89-2.54,11.83-3.85a5.14,5.14,0,0,0,2-1.17,8.78,8.78,0,0,1,5.93-2.53c4.35-.25,8.7-.52,13.05-.48,3.77,0,7.43.81,10.17,3.76a15.16,15.16,0,0,1,3.71,9.53c.16,2,0,4.08,0,6.11a3.74,3.74,0,0,0,.88,2.87,1.68,1.68,0,0,1,.27,2.3,2,2,0,0,1-2.38.61,1.64,1.64,0,0,1-.73-2.9c.8-.77.66-1.35.28-2.17a23,23,0,0,0-7.22-9.42c.67,1.38,1.36,2.75,2,4.14a27.89,27.89,0,0,1,3.1,11,17,17,0,0,1-2.7,9.66l-.62,1s0,.08,0,.11l.34-.06a14.53,14.53,0,0,1,.55,3c0,.41-.74,1.08-1.21,1.14a2,2,0,0,1-1.68-.64,4.37,4.37,0,0,1-.28-2.51c.54-2.78,1.29-5.52,1.84-8.3a7.5,7.5,0,0,0-4.8-8.43,1.38,1.38,0,0,0-1.12.42c-2.48,2.57-3.93,5.8-5.59,8.9-1.05,2-2.12,3.94-3.25,5.87-1.65,2.83-2.37,5.74-1,8.91a5.17,5.17,0,0,1,.3,1.52,6.58,6.58,0,0,0,4.9,6c2.8.92,5.56,2,8.34,2.93a3.14,3.14,0,0,0,1.5.2,8.91,8.91,0,0,1,8.6,2.78c.16.17.33.32.74.7-.1-1.8-.13-3.33-.27-4.86a10.86,10.86,0,0,1,3.93-9.92c2.3-1.92,4.46-4,6.73-6a5.73,5.73,0,0,0,1.82-2.72c.69-2.17,1.56-4.28,2.26-6.44a11,11,0,0,1,5-6,12.42,12.42,0,0,1,2.21-1.19c2.73-1,3.79-3,3.76-5.89l-1.81-.24a8.34,8.34,0,0,1-7.3-5.9,7.77,7.77,0,0,1,2.32-8.52,7.93,7.93,0,0,1,9-1.67,6.51,6.51,0,0,1,4.17,5.69c.16,1.54.21,3.09.3,4.65,1.18.08,2.64-1.31,3.27.82l2.94-.75.45,1.61Zm-85.93,29.38c.4-.52.75-1,1.18-1.5s1-1.35,1.55-1.38c1.92-.12,1.92-1.51,2.08-2.78.38-3-.69-5.73-1.73-8.56a4.12,4.12,0,0,0-.45.49,33.06,33.06,0,0,0-4.12,10.38A3.32,3.32,0,0,0,7234.77,7113.2Z" transform="translate(-7157.09 -7032.9)"/><path d="M7184.88,7079.84a8.09,8.09,0,0,1,8.29,8.6,8.33,8.33,0,0,1-8.51,8,8.58,8.58,0,0,1-7.91-8.77C7177,7083.59,7181.08,7079.66,7184.88,7079.84Z" transform="translate(-7157.09 -7032.9)"/><path d="M7237.81,7032.9a7.93,7.93,0,0,1,7.65,8.19c0,4.33-3.75,8.43-7.71,8.41a8.38,8.38,0,0,1-8.28-8.47A8.29,8.29,0,0,1,7237.81,7032.9Z" transform="translate(-7157.09 -7032.9)"/></svg>