<svg id="Calque_1" data-name="Calque 1" xmlns="http://www.w3.org/2000/svg" viewBox="0 0 177.87 312.71"><defs><style>.cls-1{fill:#fff;}</style></defs><title>Base 1</title><path d="M7332.62,7266.15c-2.09,4.16-4.13,8.35-6.3,12.47-.83,1.58-2,3-2.93,4.52-.8,1.31-1.48,2.7-2.25,4a1.78,1.78,0,0,1-.75.79,6.48,6.48,0,0,0-3.91,4.26c-.11.33-.19.79-.44.94-2.48,1.46-3.76,4-5.51,6.09-2.15,2.57-4.25,5.2-6.41,7.76a5,5,0,0,0-1.32,3.24,6.35,6.35,0,0,1-1.68,4.62,1.44,1.44,0,0,0-.17,2c.52.79.32,1.32-.33,1.94-1.36,1.3-1.39,1.94-.31,3.28a1.2,1.2,0,0,0,.77.34c1.53.14,3.06.24,4.6.37.15,0,.39.07.43.16.45,1.25,1.43.62,2.26.73,2.11.3,4.33,0,6.19,1.69.88.8,2.41.94,3.67,1.25s2.59.46,3.7,1.78c-1.16.14-2.15.2-3.1.4s-1.74.55-2.91.94l2.34,1.65-.06.27H7313l-.08,1.49a55.6,55.6,0,0,0-6.15,0c-2.54.28-4.91-.35-7.34-.77a38.74,38.74,0,0,0-14.64.48,81.21,81.21,0,0,1-9.85,1.32,9,9,0,0,1-5.64-1.73,2.78,2.78,0,0,1-1.05-3.1,38,38,0,0,1,1.1-4.17,1.27,1.27,0,0,0-.5-1.72c-.3-.2-.34-.83-.42-1.27,0-.16.13-.37.23-.54,5.45-8.86,9.48-18.45,14.32-27.63a2.52,2.52,0,0,0,0-1.53,10.54,10.54,0,0,0-.7-1.74c2.74,0,3.53-2,4.4-4,1.12-2.51,2.11-5.11,3.47-7.5,1-1.85,2.62-3.39,3.85-5.14a11.74,11.74,0,0,0,1.62-3.12,5.42,5.42,0,0,1,1.77-2.61,9.09,9.09,0,0,0,1.55-2c.54-.83.92-1.76,1.51-2.54a1.68,1.68,0,0,0,0-2.45c-.93-1-1.86-1.92-3.44-1.85a1.69,1.69,0,0,1-1.78-1.46,10.42,10.42,0,0,0-6.37-7.85c-1.77-.8-3.48-1.76-5.3-2.68-.35.86-.63,1.64-1,2.39-2.85,5.94-5.67,11.89-8.58,17.8a109,109,0,0,0-7.79,22c-2,8.17-6.93,13.48-14.64,16.43a9.52,9.52,0,0,1-2.2.57,3.12,3.12,0,0,0-2.63,1.83c-2.82,6.06-7.06,11.08-11.41,16.07-2.86,3.28-5.41,6.82-8.14,10.22-1.1,1.37-2.31,2.65-3.56,4.07l.82.33a3,3,0,0,0,3.15,3.12c2.1-.21,4.18-.62,6.28-.71a2.91,2.91,0,0,1,2.06,1.09,2.51,2.51,0,0,0,2.19,1.09,5.29,5.29,0,0,1,4.07,1.41,18.3,18.3,0,0,1,1.36,2c-2.89-.7-5.41-.91-7.79.66l.57,1.15a6.81,6.81,0,0,1-1.08.06c-1.75-.21-3.49-.44-5.13.55-.31.18-.84,0-1.27,0a45.16,45.16,0,0,0-5.78-.65c-4.57.07-9-.27-13.19-2.33-4.44-2.18-9-4.18-13.46-6.28-2.92-1.37-3.13-4.08-.49-6,.67-.48,1.34-.94,2.24-1.57l-1.27-.15c-.42-1.18.13-1.88,1.09-2.47l-.86-.66c0-.06,0-.14.06-.17,2-1.28,2-1.28,1.43-3.56a23.58,23.58,0,0,1-.65-2.92,6.84,6.84,0,0,1,3.12-6.5c4.35-3.14,7.71-7.17,10.92-11.37,1.94-2.54,3.95-5,5.87-7.59.74-1,1.27-2.11,2-3.1a6,6,0,0,1,1.71-1.74,22.75,22.75,0,0,0,7.66-6.77,15,15,0,0,1,1.9-2c.81-.79,1.83-1.4,2-2.71,0-.34.42-.67.71-.93a64.92,64.92,0,0,1,6.1-5.38,4.81,4.81,0,0,0,2.23-4.89,42.46,42.46,0,0,1,0-6.59,10.88,10.88,0,0,1,1.09-2.95,7.46,7.46,0,0,0,.79-1.95q.32-4,.4-8a10.74,10.74,0,0,0-.5-2.2c-.22-1.07-.42-2.14-.58-3.22-.21-1.4-.37-2.82-.58-4.22a31.44,31.44,0,0,1-.62-3.87c-.06-2.36.08-4.71-.68-7-.18-.56-.08-1.2-.23-1.78a15.42,15.42,0,0,0-1.09-3.6,8.25,8.25,0,0,1-1.23-4.66c.08-1.07,0-2.16,0-3.24a11.23,11.23,0,0,0-1.59-6.41,5,5,0,0,1-.61-4.13,38.49,38.49,0,0,0,.64-4.26,2.29,2.29,0,0,0-1.34-2.56,3.61,3.61,0,0,1-2.15-4c.3-2.5.56-5,.92-7.49.29-2,0-3.7-1.68-5.05a7.88,7.88,0,0,1-2.68-4.44,1.37,1.37,0,0,0-.62-.88c-4.22-1.71-7.31-4.79-10.17-8.18l-1.36-1.61a40.18,40.18,0,0,0-7.83,5.51,19.35,19.35,0,0,1-7.87,4.87,8.19,8.19,0,0,1-5.41,0,7.17,7.17,0,0,0-.13,1,2.52,2.52,0,0,1-1.85,2.86,5.31,5.31,0,0,0-2.72,2.4c-1.38,2.23-2.82,2.59-5,1.21-1.4-.88-2.57-2.23-4.47-2a.67.67,0,0,1-.51-.29,2.37,2.37,0,0,0-3-1.13c-.21.07-.61-.26-.84-.49q-2-2-3.93-4a2.85,2.85,0,0,1-.68-1.1,12.18,12.18,0,0,0-3.14-4.74c-1.38-1.49-2.6-3.12-3.86-4.73a2.51,2.51,0,0,1-.47-1.21,2,2,0,0,0-1-1.72,2.83,2.83,0,0,1-.87-1.5,108.29,108.29,0,0,1-5-25.69c-.2-2.34-.21-4.88-1.14-6.95-1.56-3.46-.89-7.26-2.25-10.68a17.32,17.32,0,0,1-1.66-6.2c-.07-4.49.24-6,2.18-8.67l1.1,3.89c1.27-1.93,3.27-1.83,5.36-2.34l-2.94,4.13,6.72-.89.09.38c-1.67,1.31-2.93,3.15-5.19,3.69a5.19,5.19,0,0,0-1.42.92l.23.41,1-.37a24.79,24.79,0,0,1,2.34-.91,3,3,0,0,1,3.93,1.8c.38.79.67,1.62,1,2.44.12.29.2.59.39,1.16-1.33-.62-2.49-1.1-3.59-1.68-.73-.39-1.07-.16-1.39.5-1.11,2.28,1.17,6.62,3.68,6.92a1.08,1.08,0,0,0,.75-.23c1-.86,2.19-1.45,2.61-3a2.92,2.92,0,0,1,2-1.67,4.7,4.7,0,0,0,3.4-2.16,2.87,2.87,0,0,1,.44-.4,6,6,0,0,1-.91,4.52c-.36.56-.61,1.2-.94,1.78-.66,1.16-1.39,2.29-2,3.47a17.61,17.61,0,0,0-1.46,3.23,7,7,0,0,1-2.26,3.84,1.1,1.1,0,0,0-.3,1c1.48,3.7,2.92,7.43,4.57,11.05a28.31,28.31,0,0,0,6.71,8.68,5.09,5.09,0,0,0,2.87,1.16,2.2,2.2,0,0,1,1.94,1,16.53,16.53,0,0,0,1,1.35c.72-1.62,1.48-3.21,2.14-4.84a12.63,12.63,0,0,0,.79-2.74,8,8,0,0,1,2.76-4.91,6,6,0,0,0,1.86-3.59,37.12,37.12,0,0,1,2.18-6.45c1.44-3.47,3-6.9,5.94-9.45a8.29,8.29,0,0,0,.89-1.12,7.11,7.11,0,0,1-1.18-.64,1.68,1.68,0,0,1-.49-.8,17.23,17.23,0,0,0-.8-2.84,11.78,11.78,0,0,1-1.27-5.54c0-1.15-.22-2.29-.32-3.44a3.6,3.6,0,0,1,0-1.18,6.77,6.77,0,0,0-.12-2.1,21.39,21.39,0,0,1,.71-4.89c.07-.33.5-.59.85-1-1-.58-.84-1.35-.45-2.18.77-1.64.76-1.64-.71-2.71a.9.9,0,0,1,.1-.31c1.21-1.5,1-2.9-.15-4.37a4.6,4.6,0,0,1-.8-3.59,9.8,9.8,0,0,0-.71-4.41,33.67,33.67,0,0,1-2.26-7.54,17.7,17.7,0,0,0-2.9-7.68c-2.27-3.31-2.66-7-2.65-10.94a2.91,2.91,0,0,1,2.22,1.51,31,31,0,0,0,4.2,5,30.45,30.45,0,0,0,6.09,3.71c1.11.56,2.26-.11,3.12-1,1.33-1.38,2.54-2.91,4-4.14a21.06,21.06,0,0,1,3.84-2.32,12.72,12.72,0,0,1,2.64-1.06,3.26,3.26,0,0,1,1.94,0c3.17,1.3,5.31-.66,7.59-2.24a.74.74,0,0,0,.27-.38c.54-2,2.08-3.35,3.42-4.83,2-2.21,4-4.49,5.87-6.8,1.24-1.5,2.08-1.55,3.56-.25.84.74,2,1.11,2.88,1.81a25.23,25.23,0,0,1,2.88,2.81c.12.13-.14.77-.38,1-.9.88-.56,1.59.15,2.37a10.41,10.41,0,0,1,1.83,2.34,10.57,10.57,0,0,1,.53,2.67l-.4.18a9.89,9.89,0,0,0-4.75-2.17l.8,4-1.38-1.28c-.58-.53-.84-.3-1.1.35s-.64,1-.91,1.5a1.89,1.89,0,0,0-.2,1,8.28,8.28,0,0,0,.3,1.31,4.19,4.19,0,0,1-.55.06c-1.73-.07-1.73-.05-1.34,1.56a1.76,1.76,0,0,1-.05,1.26,3.37,3.37,0,0,0-.32,3,1.39,1.39,0,0,1-.73,1.8,6.89,6.89,0,0,0-.88.62c-2.5,1.81-2.52,1.89-1.16,4.95,1.14-.77,2.16-1.55,1.45-3.23.92-.1,1.71-.15,2.48-.29a4.3,4.3,0,0,0,1.67-.56,2.24,2.24,0,0,1,2.43-.43.69.69,0,0,0,.58,0c1.09-.88,2.16-1.78,3.22-2.69.46-.39.91-.8,1.44-1.27l-1-2.24c.89-1,1.58.37,2.46.15.21-1.84-1.25-2.88-2.22-4.45a8.69,8.69,0,0,1,1.14.13,34.46,34.46,0,0,0,3.42,1,11.48,11.48,0,0,1,7.68,4.86c-1.68,1.15-3.4,2.37-2,4.88-.52.14-.85.24-1.19.31a3,3,0,0,0-2.59,2.63,3.92,3.92,0,0,1-1.77,2.71c-1,.7-1.73,1.43-1,2.88a8.41,8.41,0,0,1,.38,2.84.55.55,0,0,1-.1.34l-3.12,4.37,1.89.67c.07,1.11-.41,2.4,1.09,3l-.91.79,2.27,1.07-1.79,1.16c.55.16.91.24,1.25.38a3.16,3.16,0,0,1,.91.49c.54.48,1,1,1.55,1.52l.31-.18-.37.91c1.06,1.06,2.19,1.71,3.72.85a1.65,1.65,0,0,1,1.26.09,3,3,0,0,0,2.95-.35,2,2,0,0,1,1.45-.17,3.85,3.85,0,0,0,2.53.13,5.29,5.29,0,0,1,2.24.34c.79.16,1.58.31,2.35.51a25.52,25.52,0,0,1,2.56.8,25.56,25.56,0,0,0,2.9,1.24c6,1.48,12.18,1.69,18.34,1.71a7.89,7.89,0,0,1,4.93,1.28c.29-1.14.51-2.18.81-3.2a37,37,0,0,0,1.51-4.9c.57-3.81,2.45-7.31,2.51-11.25,0-2,.86-4,.51-5.91s.27-3.43.29-5.13a4.45,4.45,0,0,0-.13-1.66c-1.43-3.56-2.8-7.07-7.09-8.36a10.88,10.88,0,0,1-5.17-3.44,19.81,19.81,0,0,0-2.65-2.19,3.88,3.88,0,0,1-.49-.66,7.75,7.75,0,0,1,4.73.23c1.29.43,2.53,1,3.83,1.37a3.51,3.51,0,0,0,4.31-2.9,1.06,1.06,0,0,0-.31-.7,5.46,5.46,0,0,0-5.71-1.83c-1.74.41-3.53.63-5.31.89a4.56,4.56,0,0,1-1.64-.11c2.72-2.18,5.23-4.7,9.16-4.12a17.74,17.74,0,0,0,2.37,0,3.45,3.45,0,0,0-2.6-1.86c-.9-.13-1.84,0-2.75-.16-1.82-.27-3.62-.64-5.75-1,4.09-3.1,8.22-4,13-2.52a10.81,10.81,0,0,0-2.64-4.69c-1.17-1.35-2.41-2.64-3.74-4.08,4.11.52,8,1.13,10,5.23a7.87,7.87,0,0,1,.85,2.22c1,6.86,3.2,13.42,5,20.08.55,2.07.61,4.26,1.07,6.36a32.94,32.94,0,0,0,1.63,5.6,106.65,106.65,0,0,1,6.36,19.56,4.4,4.4,0,0,1-.42,2,8.91,8.91,0,0,0-.78,2.11c0,1.24-.06,2.37-1.19,3.21a1.39,1.39,0,0,0-.4,1.16,3.81,3.81,0,0,1-1.05,3.3,5.76,5.76,0,0,0-1.32,5.34,3.09,3.09,0,0,1-1.09,2.46,25.89,25.89,0,0,1-4.26,2.56c-1.28.68-2.85.8-3.75,2.17-.19.29-.77.4-1.19.47-1.83.3-3.67.56-5.48.82,0,2.15-1.92,1.59-2.81,2.42-1.29,1.21-2.41,0-3.66-.71-.9,2.1-1.84,4.15-2.65,6.25-.45,1.18-1,1.62-2.35,1.32-3-.64-6.07-1-9.1-1.5-1-.17-1.38.22-1.29,1.11a5.45,5.45,0,0,0,.46,1.94c3.1,6,6,12.1,9.47,17.89,2.35,3.94,4.91,7.75,6.73,12a146.46,146.46,0,0,0,8.4,16.54,32.06,32.06,0,0,1,1.89,4.76,1.66,1.66,0,0,1,.07.23c1,4.28.84,4.6-2.88,6.79l-6.19,3.66c-.1.06-.19.14-.33.24l1.41,1.19-1.24,1.36a1.72,1.72,0,0,0-.09,2.62,3.41,3.41,0,0,0,1.1.91c3.64,1.65,6.42,4.41,9.36,7a34.58,34.58,0,0,1,7.86,9.72c.49.92,1.52,1.55,2.06,2.46,1.36,2.3,2.64,4.65,3.86,7,1.46,2.84,2.76,5.76,4.27,8.56a13.21,13.21,0,0,0,2.22,2.42c-1.45.46-1.14,1.79-.77,2.86,1,2.83,2.07,5.61,3.2,8.37.56,1.36,1.33,2.64,1.95,4a14.59,14.59,0,0,1,1.3,6.51,27.13,27.13,0,0,0,.63,4.45Zm-111.78-201.93a8.62,8.62,0,0,0-1.87,1.36c-.3.36-.16,1.08-.22,1.64a4,4,0,0,0,1.55.07A1.94,1.94,0,0,0,7220.84,7064.22Z" transform="translate(-7154.75 -7036.96)"/><path class="cls-1" d="M7220.84,7064.22a1.94,1.94,0,0,1-.54,3.06,4,4,0,0,1-1.55-.07c.06-.56-.08-1.27.22-1.64A8.62,8.62,0,0,1,7220.84,7064.22Z" transform="translate(-7154.75 -7036.96)"/></svg>